<svg xmlns="http://www.w3.org/2000/svg" xmlns:xlink="http://www.w3.org/1999/xlink" id="Layer_1" x="0px" y="0px" viewBox="0 0 132 42" style="enable-background:new 0 0 132 42;" xml:space="preserve">
<style type="text/css">
	.st0{fill:#D4C19C;}
	.st1{fill:#ECEEEF;}
</style>
<g>
	<path class="st0" d="M7.4,17.9L7.4,17.9c0.2,0.1,0.4,0.2,0.4,0.3c0,0.1,0.1,0.3,0,0.5C7.8,19,7.7,19,7.7,19H7.6l-1-0.1v-0.3   c0-0.2,0.1-0.2,0.1-0.2s0.1,0,0.3,0l0,0v-0.1l-1-0.1v0.1l0,0c0.2,0.1,0.3,0.1,0.3,0.1s0.1,0.1,0,0.2v0.3l-0.9-0.1   c-0.1,0-0.1,0-0.1,0s0,0,0-0.1l0.1-0.4c0-0.2,0.1-0.3,0.1-0.3s0.1-0.1,0.3-0.1l0,0v-0.1l-0.6-0.1L5,19.5h0.1l0,0   c0-0.1,0.1-0.2,0.1-0.2h0.1h0.1l1.8,0.2c0.2,0,0.2,0.1,0.3,0.1c0,0,0,0.1,0,0.2l0,0h0.1L8.2,18l-0.7-0.3L7.4,17.9z"></path>
	<path class="st0" d="M21.1,38.9H21c-0.1,0-0.2-0.1-0.2-0.2c0-0.1,0.1-0.2,0.1-0.2H21c0.1,0,0.2,0,0.2,0.1s0,0.1,0,0.3   C21.3,38.9,21.2,38.9,21.1,38.9"></path>
	<path class="st0" d="M26.6,39c-0.1,0-0.1,0-0.2-0.1c0-0.1,0-0.1,0-0.2c0.1-0.1,0.1-0.2,0.3-0.2h0.1c0.1,0,0.2,0.1,0.2,0.2   c0,0.1-0.1,0.2-0.2,0.3C26.7,39,26.7,39,26.6,39"></path>
	<path class="st0" d="M21.7,38.5h-0.1l-0.2-0.2v-0.1c0.3-0.3,0.8-0.5,1.3-0.6l0,0c0.1,0,0.1,0.1,0.2,0.1c0,0.1,0,0.2-0.2,0.3   c-0.3,0.1-0.6,0.2-0.8,0.3C21.8,38.5,21.8,38.5,21.7,38.5"></path>
	<path class="st0" d="M26.1,38.6L26.1,38.6c-0.4-0.3-0.6-0.4-0.9-0.5c0,0-0.1,0-0.1-0.1c0-0.2,0-0.3,0-0.3c0.5,0,0.9,0.2,1.3,0.6   v0.1l0,0L26.1,38.6L26.1,38.6z"></path>
	<path class="st0" d="M25.3,40.5c-0.1,0-0.1,0-0.2-0.1c-0.3-0.2-0.6-0.3-1-0.5c-0.1,0-0.1-0.1-0.1-0.2s0.2-0.3,0.3-0.3h0.1   c0.2,0.1,0.4,0.2,0.6,0.3s0.4,0.2,0.6,0.3l0.1,0.1v0.1l-0.2,0.2C25.4,40.5,25.3,40.5,25.3,40.5"></path>
	<path class="st0" d="M21.2,40.2L21.2,40.2c-0.1,0-0.1-0.1-0.1-0.2c0-0.6,0.6-0.9,1.1-1.3c0.2-0.1,0.4-0.2,0.5-0.4   c0.1,0,0.1-0.1,0.2-0.1H23l0.3,0.2c0,0,0.1,0,0.1,0.1c0,0,0,0.1-0.1,0.1c-0.2,0.2-0.4,0.3-0.6,0.4c-0.3,0.2-0.7,0.4-0.9,0.8   C21.8,40,21.6,40.1,21.2,40.2L21.2,40.2z"></path>
	<path class="st0" d="M22.8,40.5h-0.1l-0.2-0.2c-0.1-0.1-0.1-0.2,0.1-0.4s0.4-0.4,0.7-0.6c0.3-0.2,0.5-0.4,0.7-0.6   c0.1-0.1,0.2-0.2,0.3-0.2h0.1c0.1,0,0.1,0,0.2,0s0.2,0,0.2,0c0,0.1-0.1,0.2-0.1,0.3c-0.3,0.4-0.6,0.6-0.9,0.8S23.2,40,23,40.3   C22.8,40.4,22.8,40.5,22.8,40.5"></path>
	<path class="st0" d="M26.6,40c-0.1,0-0.1,0-0.2,0s-0.2-0.1-0.3-0.2c-0.1-0.1-0.3-0.2-0.4-0.3s-0.2-0.1-0.3-0.1   c-0.2-0.1-0.3-0.1-0.5-0.2c-0.1,0-0.1-0.1-0.1-0.1c0-0.1,0.1-0.2,0.2-0.3c0-0.1,0.1-0.1,0.1-0.1h0.1c0.1,0.1,0.3,0.2,0.5,0.3   c0.4,0.2,0.9,0.4,1.2,0.9V40c0,0,0,0-0.1,0.1C26.8,40,26.7,40,26.6,40"></path>
	<path class="st0" d="M5.7,22.8c0,0,0,0.1,0,0.2c0.2,0.3,0.4,0.8,0.4,1c0,0.1-0.1,0.1-0.2,0.1c0,0-0.1,0-0.2,0.1   c0,0.1,0,0.1,0.1,0.1c0,0.1,0.1,0.1,0.2,0.1c0.2,0.1,0.3,0.1,0.2,0.3v0.2c0.1,0.1,0.2,0.2,0.3,0.2c0.1,0,0.1,0,0.1-0.1   s0-0.2-0.2-0.3c-0.1,0-0.1-0.1-0.1-0.1s0-0.1,0.2-0.2C6.9,24.1,6.9,24,6.9,24l0,0l0,0H6.8H6.7c-0.2,0-0.2-0.1-0.2-0.3   c0-0.4,0-0.4,0.2-0.5C6.9,23,7,22.9,7,22.9c0-0.1-0.1-0.1-0.2-0.1H6.7c0,0,0,0-0.1,0v-0.1c0-0.3,0.2-0.5,0.4-0.7   c0-0.1,0.1-0.2,0-0.2c0-0.1-0.1-0.1-0.2,0c-0.2,0-0.3,0.1-0.4,0.2s-0.1,0.2-0.1,0.4L6.2,23c0,0.1-0.1,0.2-0.1,0.2S6,23.2,6,23.1   C5.9,22.8,5.8,22.8,5.7,22.8L5.7,22.8L5.7,22.8z M7.2,26.8L7.2,26.8c-0.3-0.1-0.4-0.3-0.4-0.5c-0.1-0.7-0.3-1-0.6-1   c-0.3-0.1-0.4-0.3-0.4-0.4c0-0.3-0.1-0.4-0.3-0.4C5.2,24.3,5,24.2,5,23.9c-0.1-0.3,0-0.4,0-0.4s0,0,0.1,0s0.2,0,0.4,0.1h0.1   c0.1,0,0.1,0,0.1-0.1s0-0.1,0-0.3l-0.3-0.4c-0.1-0.2-0.1-0.4,0.1-0.6C5.5,22,5.6,22,5.7,22c0,0,0,0,0.1,0C5.9,22.3,6,22.3,6,22.3   c0.1,0,0.1-0.2,0.1-0.3c0-0.4,0.1-1,0.4-1c0,0,0.1,0,0.2,0c0.1,0.1,0.2,0.1,0.2,0.1c0.1,0,0.3-0.1,0.4-0.3c0.1,0,0.1-0.1,0.2-0.1   s0.1,0,0.2,0.2c0.1,0.3,0,0.6-0.3,0.9c-0.1,0.1-0.1,0.2-0.1,0.3c0,0,0,0,0.1,0s0.2-0.1,0.4-0.2l0.1-0.1C8,22,8,22,8,22.2   c0.1,0.4-0.2,0.7-0.9,1C7,23.2,7,23.3,7,23.4s0.1,0.1,0.1,0.1s0.1,0,0.1-0.1c0.1-0.1,0.3-0.2,0.4-0.2s0.2,0,0.2,0.1s0,0.3-0.2,0.6   c-0.1,0.2-0.2,0.3-0.4,0.4c-0.1,0-0.1,0.1-0.1,0.1s0,0.1,0.1,0.2s0.1,0.2,0,0.3C7,25.1,7,25.6,7.3,26.4C7.3,26.6,7.3,26.7,7.2,26.8   C7.3,26.8,7.2,26.8,7.2,26.8"></path>
	<path class="st0" d="M5.3,26c-0.1,0-0.1,0-0.2,0C5,25.9,5,25.8,5,25.7c0-0.1,0.1-0.2,0.2-0.2h0.1c0.1,0,0.1,0,0.2,0.1   s0.1,0.2,0,0.4C5.4,25.9,5.4,26,5.3,26"></path>
	<path class="st0" d="M6.6,26.7C6.6,26.7,6.5,26.6,6.6,26.7c-0.3-0.2-0.4-0.3-0.6-0.3c-0.1,0-0.1,0-0.2,0.1c0,0-0.1,0-0.2,0   s-0.2,0-0.2-0.1s0-0.1,0-0.2c0.1-0.2,0.2-0.4,0.3-0.6c0-0.1,0.1-0.1,0.2-0.1s0.3,0.1,0.3,0.2L6.3,26l0.3,0.4   C6.7,26.5,6.7,26.6,6.6,26.7L6.6,26.7z"></path>
	<path class="st0" d="M29.6,39.2c-0.8,0.1-1.3-0.1-1.6-0.5c0.2,0,0.4,0.1,0.6,0c0.7-0.1,1.4-0.4,2.1-0.7c0.5-0.2,1-0.5,1.3-0.5   c0.2,0,0.3,0,0.3,0.1c0,0,0,0.1-0.1,0.1L30,38.6c-0.1,0.1-0.2,0.1-0.2,0.2c0,0.1,0.1,0.1,0.2,0.1c0.6-0.1,1.1-0.4,1.5-0.6   c0.4-0.2,0.8-0.4,1.1-0.4c0.1,0,0.1,0,0.1,0c0.1,0,0.1,0,0.1,0s0,0.1-0.1,0.1c-0.9,0.5-1.8,0.9-2.9,1.2   C29.7,39.2,29.7,39.2,29.6,39.2"></path>
	<path class="st0" d="M37.9,19.8c-0.1-0.9-0.3-1.8-0.6-2.6c0-0.1-0.1-0.1-0.2-0.1c-0.1,0-0.1,0-0.1,0v0.1c0.3,0.7,0.5,1.5,0.6,2.4   c0.1,0.4,0,1-0.2,1.7c-0.1,0.4,0,0.9,0,1.3c0,0.2-0.1,0.3-0.2,0.3c-0.1,0-0.2-0.1-0.2-0.3c0-0.5-0.1-0.9-0.1-1.3l0,0   c0-0.7,0-1.2-0.2-1.8c-0.1-0.3-0.4-0.7-0.8-1.3c-0.2-0.4-0.4-0.7-0.5-1c0-0.1,0-0.2-0.1-0.2c0-0.1-0.1-0.2-0.1-0.3L35,16.1L34.9,16   c-0.1,0-0.2,0.1-0.2,0.1s-0.1,0.1,0,0.2l0.5,1.6c0.1,0.3,0.3,0.5,0.6,0.8l0,0c0.1,0.1,0.2,0.3,0.4,0.4c0.2,0.3,0.2,0.5,0.3,0.8   c0.1,0.5,0.1,1.3,0.2,2.5L37,24c0.1,0.5,0.1,1.1-0.1,1.8c0,0.2,0,0.3,0,0.3l0,0c0,0,0.1,0,0.3-0.2c0.5-0.5,0.4-2.4,0.4-3.9   c0-0.5,0.1-0.9,0.2-1.2C37.8,20.6,37.9,20.2,37.9,19.8"></path>
	<path class="st0" d="M36.3,17.4v-0.3c0-0.1,0-0.1-0.1-0.2s-0.2-0.2-0.3-0.2h-0.1l0,0c0,0,0,0,0,0.1c0.1,0.6,0.3,1.1,0.8,1.5h0.1   l0,0c0,0,0-0.1,0-0.2l-0.2-0.5C36.3,17.6,36.3,17.5,36.3,17.4"></path>
	<path class="st0" d="M34.3,21.7L34.3,21.7L34.3,21.7c-0.1,0-0.2-0.1-0.2-0.2c-0.1-0.2-0.2-0.6-0.4-1.4c0-0.2-0.1-0.4-0.1-0.6   c-0.1-0.4-0.2-0.7-0.5-0.9c-0.5-0.4-1-1-1.3-1.8c-0.1-0.2-0.2-0.3-0.2-0.3s-0.1,0-0.1,0.1c-0.1,0.1-0.1,0.2,0,0.3   c0.2,0.4,0.4,0.8,0.6,1.1c0.1,0.1,0.2,0.2,0.2,0.3h0.1c0.4,0.3,0.6,0.5,0.8,0.8s0.2,0.6,0.3,0.9c0,0.1,0,0.1,0,0.2l0,0   c0.2,0.8,0.4,1.4,0.8,2.3c0.1,0.2,0.2,0.5,0.2,0.7l0.1,1c0,0.2,0.1,0.3,0.2,0.3l0,0c0,0,0.1-0.1,0.1-0.3c0-0.6,0-1.3-0.1-2.9   c-0.1-1.1-0.3-1.9-0.6-2.3c-0.2,0-0.3,0-0.4,0l0,0c0,0,0,0.1,0,0.2c0.3,0.7,0.5,1.5,0.5,2.3C34.4,21.6,34.4,21.7,34.3,21.7   L34.3,21.7z"></path>
	<path class="st0" d="M32.5,16.8c0-0.1-0.1-0.1-0.2-0.1c-0.1,0-0.1,0-0.1,0.1v0.1c0.2,0.5,0.4,0.9,0.7,1.2H33l0,0V18   C32.8,17.6,32.6,17.2,32.5,16.8"></path>
	<path class="st0" d="M35.6,21.8L35.6,21.8L35.6,21.8c-0.1,0-0.1,0-0.2-0.2c0-0.1-0.1-0.1-0.1-0.2L35,19.7c-0.2-0.6-0.3-1-0.6-1.3   c-0.4-0.4-0.8-1.1-1.2-2c-0.1-0.2-0.1-0.3-0.2-0.3c0,0-0.1,0.1-0.1,0.2s0,0.2,0,0.3c0.3,0.9,0.6,1.5,1.1,1.9c0.3,0.3,0.5,0.6,0.6,1   l0,0c0,0.2,0.1,0.4,0.1,0.6l0,0c0.2,0.9,0.4,1.8,0.7,2.6c0.1,0.2,0.2,0.5,0.2,0.8c0,0.6,0.1,1,0.1,1.3c0,0.2,0.1,0.4,0.2,0.4   c0,0,0.1-0.1,0.1-0.3c0.1-0.8,0.1-1.9,0-3.1c0-0.7-0.1-1.2-0.2-1.7c-0.1-0.3-0.2-0.5-0.3-0.7c-0.1-0.1-0.2-0.1-0.2-0.2   c0,0,0,0.1,0,0.2c0.2,0.7,0.3,1.4,0.4,2.1C35.7,21.6,35.7,21.7,35.6,21.8L35.6,21.8z"></path>
	<path class="st0" d="M34.6,17.8c-0.2-0.3-0.3-0.5-0.3-0.7l-0.1-0.4c0-0.1,0-0.1-0.1-0.2s-0.2-0.1-0.3-0.1h-0.1v0.1   c0.2,0.7,0.4,1.2,0.8,1.6l0,0l0.1,0.1l0,0l0,0c0,0,0,0,0-0.1C34.6,17.9,34.6,17.9,34.6,17.8"></path>
	<path class="st0" d="M32.8,21.7L32.8,21.7c0,0.1,0.1,0.2,0.1,0.3c0,0.1,0.1,0.2,0.1,0.2l0.1,0.1c0.1,0,0.1-0.1,0.1-0.1   c0-0.1,0-0.1,0-0.2c-0.1-1.7-0.3-2.6-0.7-3.1c-0.1-0.1-0.1-0.1-0.1-0.1s0,0,0,0.1s0,0.1,0.1,0.2c0.1,0.3,0.2,0.5,0.3,0.8   c0,0.1,0,0.2,0,0.2l0,0l0,0l0,0c-0.1,0-0.1-0.1-0.2-0.2c-0.2-0.5-0.5-0.9-0.9-1.1c-0.5-0.3-1-0.6-1.3-1c-0.1-0.1-0.2-0.3-0.3-0.5   c0,0,0-0.1-0.1-0.1s-0.2,0.1-0.2,0.2s0,0.1,0,0.1c0.3,0.5,0.7,0.9,1.1,1.1c0.7,0.3,1.2,0.8,1.5,1.4C32.5,20.9,32.7,21.4,32.8,21.7"></path>
	<path class="st0" d="M30.5,17.1c-0.1,0-0.1,0-0.2,0.1l0,0c0.3,0.4,0.5,0.7,0.8,0.9h0.1l0,0c0,0,0,0-0.1-0.1   c-0.3-0.2-0.4-0.5-0.6-0.8C30.7,17.1,30.6,17.1,30.5,17.1"></path>
	<path class="st0" d="M29,18.8L29,18.8c0.2,0.1,0.4,0.1,0.5,0.2c0.2,0.1,0.3,0.2,0.4,0.3c0.3,0.3,0.6,0.6,0.8,1v0.1   c0.2,0.3,0.4,0.6,0.7,0.9l0.1,0.1h0.1c0,0,0-0.1,0-0.2c-0.1-0.3-0.3-0.9-0.7-1.8c0-0.1-0.2-0.2-0.3-0.2l0,0l0,0l0.2,0.3v0.1l0,0   l0,0l-0.1,0.1l0,0h-0.1l0,0l0,0c-0.1-0.2-0.3-0.4-0.5-0.6c0.1-0.1,0-0.1-0.1-0.2c-0.2-0.1-0.4-0.2-0.6-0.2   c-0.2-0.1-0.3-0.2-0.5-0.3c-0.1-0.1-0.3-0.3-0.5-0.4h-0.1h-0.1c0,0.1,0,0.1,0,0.2c0.1,0.2,0.3,0.3,0.5,0.5   C28.8,18.7,28.9,18.7,29,18.8"></path>
	<path class="st0" d="M35.2,25.4c-0.4-0.3-0.8-0.5-1-0.7c-1.7-1.3-3.5-2.6-5.3-3.8c-0.1,0-0.1,0-0.1,0l0,0c0,0.1,0,0.2,0.2,0.3   l5.6,4.1h0.1c0.1,0,0.2,0.1,0.2,0.2c0,0,0.1,0.2-0.1,0.3c-0.2,0.1-0.4,0.1-0.5,0.1c-0.3,0-0.6-0.1-1-0.4c-1.5-1.2-3-2.3-4.3-3.5   h-0.1l0,0c0,0,0,0.1,0,0.2s0.1,0.1,0.2,0.2c1.4,1.2,2.9,2.3,4.3,3.5c0.3,0.2,0.6,0.3,0.9,0.3c0.4,0,0.8-0.2,1.2-0.5   C35.3,25.6,35.3,25.5,35.2,25.4"></path>
	<path class="st0" d="M33.1,25.1c0.2,0.2,0.5,0.3,0.6,0.4h0.1h0.1c0,0,0-0.1-0.1-0.1l-5-3.8h-0.1l0,0c0,0,0,0.2,0.1,0.3L33.1,25.1z"></path>
	<path class="st0" d="M31.9,25.3l-3.2-2.7h-0.1l0,0c0,0,0,0.1,0.1,0.2c0.9,0.9,2,1.8,3,2.7c0.2,0.1,0.3,0.2,0.4,0.3   c0.1,0,0.1,0,0.2,0c0.1,0,0.1,0,0.1-0.1c0,0,0,0,0-0.1L31.9,25.3z"></path>
	<path class="st0" d="M29.4,18.3L29.4,18.3h0.1c0,0,0,0,0-0.1s-0.1-0.1-0.1-0.2c-0.1-0.1-0.1-0.1-0.2-0.2c-0.1,0-0.1,0-0.2,0h-0.1   v0.1C29,18.1,29.2,18.2,29.4,18.3"></path>
	<path class="st0" d="M32.5,26.5c0.2,0,0.3-0.1,0.5-0.1l0.1-0.1c0,0,0-0.1-0.1-0.1h-0.1c0,0,0,0-0.1,0h-0.1c-0.1,0-0.1,0-0.2,0   c-0.3,0-0.5-0.1-0.7-0.3c-0.8-0.7-1.4-1.2-2-1.7h-0.1c-0.4-0.4-0.8-0.7-1.2-1.1h-0.1l0,0v0.1c0,0,0,0.1,0.1,0.1l0.2,0.2   c1,0.9,1.8,1.7,2.8,2.5c0.3,0.2,0.5,0.4,0.6,0.5C32.2,26.5,32.4,26.5,32.5,26.5"></path>
	<path class="st0" d="M28.1,23.4c0.7,0.8,1.5,1.5,2.3,2.3c0.3,0.2,0.4,0.3,0.6,0.3l0,0c0,0,0,0-0.1-0.1c-0.7-0.6-1.5-1.4-2.2-2.1   c0-0.1-0.1-0.1-0.1-0.1l0,0C28.5,23.6,28.3,23.4,28.1,23.4L28.1,23.4C28.1,23.3,28.1,23.4,28.1,23.4"></path>
	<path class="st0" d="M31.3,26.7c0.1,0,0.1,0,0.2,0c0,0,0,0,0-0.1s-0.1-0.1-0.1-0.1c-0.3,0-0.6-0.1-0.9-0.4   c-0.9-0.8-1.7-1.6-2.5-2.5h-0.1l0,0c0,0,0,0.1,0,0.2S28,23.9,28,24l0,0c0.5,0.5,1.1,1.1,1.9,1.9c0.2,0.2,0.4,0.4,0.8,0.6   C30.9,26.6,31.1,26.7,31.3,26.7"></path>
	<path class="st0" d="M30.1,26.4L30.1,26.4c0.1-0.1,0-0.2-0.1-0.2c-0.4-0.1-0.9-0.6-1.5-1.3l-0.3-0.3h-0.1v0.1v0.1l1.1,1.3   C29.6,26.3,29.8,26.4,30.1,26.4L30.1,26.4z"></path>
	<path class="st0" d="M15.7,12.3L15.7,12.3c0.1,0,0.1,0,0.2,0c0.1,0,0.1,0,0.2,0h0.1c0.1,0,0.1,0,0.1,0c0.1-0.2,0.3-0.3,0.4-0.3   s0.1,0,0.2,0c0.2,0,0.3,0.1,0.5,0.2c0.1,0.1,0.1,0.1,0.1,0.2c0,0.1-0.1,0.1-0.2,0.1s-0.1,0-0.2,0s-0.3,0-0.5,0.1   C16.2,12.7,16,13,16,13.4l0,0c0,0.1,0,0.3-0.2,0.3c-0.1,0-0.1,0-0.2-0.1c-0.2-0.2-0.3-0.4-0.3-0.6C15.4,12.7,15.5,12.5,15.7,12.3    M15.2,12.7c-0.1,0.2-0.1,0.4-0.1,0.6c0.3,0.6,0.7,0.8,1.2,0.8l0,0c0.1,0,0.3,0,0.3-0.1s0-0.1-0.1-0.2c-0.3-0.2-0.4-0.5-0.3-0.8   s0.4-0.5,0.8-0.5c0.1,0,0.2,0,0.2,0c0.2,0,0.3-0.1,0.5-0.1c0.2-0.2,0.4-0.3,0.6-0.3c0.1,0,0.2,0,0.3,0.1l0,0c0.1,0.1,0.1,0.2,0,0.3   s-0.2,0.1-0.3,0.1c-0.3,0.1-0.4,0.2-0.5,0.2v0.1c0,0,0,0,0.1,0s0.1,0,0.2,0s0.1,0,0.2,0c0.3-0.1,0.6-0.3,1-0.6   c0.1-0.1,0.1-0.2,0-0.3c-0.3-0.3-0.6-0.4-0.9-0.4c-0.1,0-0.2,0-0.3,0.1c-0.2,0-0.3,0.1-0.5,0.1c-0.1,0-0.2,0-0.3,0l-0.7-0.2   c-0.1,0-0.2-0.1-0.3-0.1c-0.1,0-0.2,0-0.3,0.1l0,0c0,0,0,0,0.1,0.1s0.1,0.1,0.1,0.2c0,0.1-0.1,0.1-0.2,0.1s-0.1,0-0.2,0   c-0.1,0-0.2,0-0.2,0.1C15.4,12.3,15.3,12.5,15.2,12.7"></path>
	<path class="st0" d="M16.4,11.2c0.1,0.1,0.3,0.1,0.5,0.2l0,0c0,0,0.1,0,0.1-0.1c0.1-0.1,0.1-0.2,0.2-0.4c0-0.2,0.1-0.4,0.3-0.6   l0.1-0.1c0.1-0.1,0.1-0.2,0.2-0.3c0.1-0.3,0-0.5-0.2-0.6v0.1l0,0c-0.1,0.5-0.4,0.8-0.6,1l-0.1,0.1c-0.2,0.1-0.3,0.2-0.4,0.3   s-0.2,0.2-0.2,0.3C16.3,11.1,16.3,11.1,16.4,11.2"></path>
	<path class="st0" d="M17.6,10.5C17.5,10.5,17.5,10.6,17.6,10.5c0.2,0.5,0.1,0.6-0.3,0.8c-0.1,0-0.1,0.2,0.1,0.1h0.1   c0.4-0.2,0.4-0.4,0.3-0.8C17.7,10.6,17.6,10.5,17.6,10.5"></path>
	<path class="st0" d="M18.1,9.8c0.1,0,0.1-0.1,0.1-0.2c0-0.1,0-0.3,0.1-0.3s0.1,0.2,0.1,0.2s0.1,0,0.1-0.1c0-0.2-0.1-0.4-0.2-0.5   l0,0c0,0,0,0,0,0.1C18.1,9.1,18.1,9.4,18.1,9.8C18.1,9.7,18.1,9.8,18.1,9.8"></path>
	<path class="st0" d="M18,10.3L18,10.3c0.9-0.4,1.1-1,1.2-1.3c0-0.3-0.1-0.6-0.2-0.7l0,0l0,0c0.1,0.5,0,0.9-0.2,1.2   c-0.2,0.2-0.4,0.3-0.7,0.5L18,10.1L18,10.3C17.9,10.3,18,10.3,18,10.3"></path>
	<path class="st0" d="M19.2,10.4c-0.3,0.2-0.5,0.3-0.7,0.4c-0.2,0.1-0.3,0.2-0.4,0.2v0.1l0,0l0,0c0.3-0.1,0.7-0.3,1.3-0.7   c0.3-0.2,0.3-0.4,0.2-0.7h-0.1h-0.1c-0.2,0.2-1.1,0.7-1.3,0.8c-0.1,0-0.1,0.1-0.1,0.1s0,0.1,0.1,0c0.1,0,0.8-0.4,0.9-0.5   c0.2-0.1,0.2-0.1,0.2,0C19.4,10.2,19.3,10.3,19.2,10.4"></path>
	<path class="st0" d="M17.9,11.6c0.1,0,0.2,0,0.3-0.1c0.1-0.1,1-0.5,1.3-0.5h0.1c0,0,0.1,0.2-0.1,0.3L19,11.6l0,0c0,0,0.1,0,0.2,0   l0,0c0.5-0.1,0.8-0.3,0.7-0.7c0-0.1-0.1-0.2-0.3-0.2c-0.1,0-0.2,0-0.5,0.1s-0.7,0.3-0.9,0.4c-0.1,0-0.2,0.1-0.3,0.2   C17.8,11.5,17.7,11.7,17.9,11.6"></path>
	<path class="st0" d="M19.6,9.2c0.2-0.1,0.3-0.5,0.4-0.3s0,0.5-0.1,0.6s0,0.2,0.1,0.2l0,0c0,0,0,0,0.1,0c0.1-0.2,0.2-0.5,0.2-0.8   c0-0.1-0.1-0.3-0.2-0.4H20c0,0-0.1,0-0.1,0.1l-0.1,0.3C19.8,9,19.7,9.2,19.6,9.2c-0.1,0.1-0.1,0.2-0.1,0.2   C19.5,9.3,19.5,9.3,19.6,9.2"></path>
	<path class="st0" d="M20.5,9.6c0.3,0.1,0.5,0.2,0.8,0.3c0.1,0,0.1,0.1,0.2,0.1c0.2,0.1,0.4,0.2,0.7,0.3h0.1c0,0,0.1,0,0.1-0.1l0,0   c0.2-0.2,0.3-0.4,0.3-0.7l0,0l0,0l0,0c-0.1,0-0.2,0-0.3,0c-0.1,0-0.2,0-0.3-0.1c-0.5-0.3-1-0.4-1.4-0.5h-0.1l0,0l0,0l0,0V9l0,0   c0.6,0.1,1,0.3,1.5,0.6l0,0l0.1,0.1l0,0h-0.1H22h-0.1c-0.5-0.2-1.3-0.6-1.4-0.6l0,0C20.5,9.5,20.4,9.5,20.5,9.6   C20.4,9.6,20.5,9.6,20.5,9.6"></path>
	<path class="st0" d="M19.9,12.2c-0.1,0-0.2-0.2-0.2-0.3l0,0l0,0V12c0.1,0.2,0.1,0.3,0.3,0.4h0.1c0.1,0,0.2-0.1,0.2-0.2   c0-0.2-0.1-0.4-0.3-0.5l0,0c0,0.1,0.1,0.3,0.1,0.4C20,12.2,19.9,12.2,19.9,12.2"></path>
	<path class="st0" d="M20.7,11.8c-0.1,0-0.3-0.3-0.3-0.4h-0.1l0,0v0.1c0,0.2,0.1,0.4,0.3,0.6c0.1,0,0.1,0.1,0.2,0.1s0.3-0.1,0.5-0.3   c0.1-0.1,0-0.3,0-0.3c-0.2-0.3-0.6-0.5-1-0.6l0,0l0,0l0,0c0.1,0.1,0.2,0.2,0.3,0.2l0,0c0.2,0.1,0.3,0.2,0.4,0.3   c0,0.1,0.1,0.1,0,0.2C20.9,11.6,20.8,11.8,20.7,11.8"></path>
	<path class="st0" d="M20.1,10.4L20.1,10.4c0,0.2,1.3,0.8,1.4,0.8s0.1,0.1,0.2,0.1s0.1,0,0.2-0.1s0.2-0.3,0.1-0.5   c-0.3-0.4-0.8-0.7-1.6-0.9l0,0l0,0l0,0l0,0l0,0l0,0c0,0,0,0,0.1,0.1c0.3,0.1,0.8,0.3,1.1,0.6l0,0c0.1,0.1,0.2,0.1,0.1,0.2   c0,0-0.1,0.1-0.1,0.2h-0.1c-0.1,0-0.3-0.1-0.4-0.2H21l0,0C20.6,10.6,20.2,10.4,20.1,10.4L20.1,10.4z"></path>
	<path class="st0" d="M31.8,9.5c0,0,0,0.1,0.1,0.2c2,1.4,3.5,3.4,4.8,6.2c0,0.1,0,0.2,0,0.2l-0.1,0.1c-0.1,0-0.2,0-0.4-0.1   c-0.4-0.3-0.8-0.6-1.1-1.1c-1.4-2.2-3-3.6-4.5-4.7l-0.1-0.1l0,0c0,0.1,0,0.2,0.1,0.3c1.4,0.9,2.8,2.6,4.5,5.2   c0.6,0.8,1.3,1.2,2.3,1.2c0.1,0,0.2,0,0.3,0c0.2,0,0.2-0.1,0.2-0.1s0-0.1-0.1-0.1c-0.4-0.3-0.7-0.8-0.9-1.3c-1.4-3-3.4-4.8-4.8-5.8   C32,9.5,31.9,9.5,31.8,9.5L31.8,9.5"></path>
	<path class="st0" d="M35.8,15.5c0.1,0.1,0.2,0.1,0.2,0.1h0.1c0-0.1,0-0.2-0.1-0.3c-1.2-2.1-2.8-3.9-4.7-5.4c-0.1,0-0.1-0.1-0.2-0.1   s-0.1,0-0.1,0s0,0.1,0.2,0.1C32.3,11,33.8,12.4,35.8,15.5"></path>
	<path class="st0" d="M33.9,15.5c-0.1,0-0.2-0.1-0.3-0.2c-0.9-1.4-2.1-2.5-3.2-3.4l0,0l0,0c-0.1,0.1,0,0.3,0,0.4   c0.7,0.6,1.5,1.5,2.2,2.3l0,0c0.5,0.6,0.9,1.1,1.2,1.3c0.1,0.1,0.3,0.1,0.4,0.1c0.1,0,0.3-0.1,0.3-0.1c0.1-0.1,0.1-0.2,0.1-0.3   c-0.9-1.7-2.2-3.1-4-4.5L30.5,11l0,0c0,0.1,0,0.3,0.1,0.4c1.1,1,2.3,2.1,3.4,3.8c0.1,0.1,0.1,0.2,0,0.3   C34,15.5,33.9,15.5,33.9,15.5"></path>
	<path class="st0" d="M30.1,12.7L30.1,12.7c-0.1,0.1-0.1,0.2,0,0.2c0.8,0.7,1.6,1.5,2.3,2.5c0.1,0.1,0.1,0.2,0.1,0.4   c-0.1,0.1-0.2,0.2-0.3,0.2s-0.2,0-0.3-0.1c-0.5-0.5-1-1-1.5-1.5c-0.2-0.2-0.4-0.4-0.6-0.7h-0.1l-0.1,0.1c0,0.1,0,0.2,0,0.3l1.5,1.7   c0.2,0.3,0.5,0.5,0.8,0.6c0.1,0,0.2,0,0.4,0s0.4-0.1,0.5-0.2s0.1-0.3,0-0.6C32.1,14.3,31.2,13.5,30.1,12.7L30.1,12.7z"></path>
	<path class="st0" d="M29.7,13.1c0,0.1,0,0.1,0,0.2c0.7,0.8,1.4,1.5,2.2,2.1H32l0,0v-0.1C31.3,14.5,30.5,13.7,29.7,13.1L29.7,13.1z"></path>
	<path class="st0" d="M29.4,14.3h-0.1c0,0-0.1,0-0.1,0.1s0,0.1,0.1,0.2c0.5,0.4,1,0.9,1.3,1.4c0.1,0.1,0.1,0.2,0,0.3   c-0.1,0.1-0.2,0.2-0.3,0.2c-0.1,0-0.2,0-0.3-0.1c-0.4-0.3-0.9-0.7-1.3-1.1l-0.1-0.1c0,0,0,0-0.1,0.1c0,0.1,0,0.1,0,0.2   c0.7,0.8,1.2,1.2,1.4,1.3c0.2,0,0.4,0.1,0.5,0.1c0.2,0,0.4-0.1,0.4-0.2c0.1-0.1,0.1-0.3,0-0.6C30.8,15.7,30.3,15,29.4,14.3"></path>
	<path class="st0" d="M28.9,14.9l1.3,1.2h0.1h0.1l0,0c-0.4-0.6-0.9-1.1-1.5-1.4C28.8,14.7,28.8,14.8,28.9,14.9"></path>
	<path class="st0" d="M28.7,17.5c0.3,0,0.5-0.1,0.6-0.3c0.1-0.1,0.1-0.3,0-0.4c-0.3-0.4-0.6-0.8-1-1.2l0,0c0,0-0.1,0-0.1,0.1v0.1   c0.5,0.5,0.7,0.8,0.8,0.9c0,0.1,0,0.2,0,0.3c-0.1,0.1-0.2,0.2-0.4,0.2c-0.1,0-0.2,0-0.2-0.1c-0.2-0.2-0.5-0.4-0.8-0.7l0,0   c0,0-0.1,0-0.1,0.1v0.1c0.3,0.4,0.6,0.7,1,0.9C28.6,17.5,28.7,17.5,28.7,17.5"></path>
	<path class="st0" d="M28.4,16.7c0.1,0,0.1,0,0.1,0c0.1,0,0.1,0,0.1-0.1s0-0.1,0-0.2c-0.2-0.2-0.4-0.4-0.7-0.6h-0.1   c-0.1,0-0.1,0.1-0.1,0.1c0,0.1,0,0.1,0.1,0.2C28.1,16.4,28.2,16.5,28.4,16.7"></path>
	<path class="st0" d="M27.9,17.5l-0.6-0.7h-0.1h-0.1v0.1l0.4,0.4c0.1,0.1,0.1,0.1,0.1,0.2s-0.1,0.3-0.3,0.4l0,0   c-0.1,0.1-0.2,0.1-0.2,0.2s0,0.1,0,0.1s0,0,0.1,0h0.1l0.5-0.4C27.9,17.8,28,17.6,27.9,17.5"></path>
	<path class="st0" d="M27.1,17.7L27.1,17.7h0.1v-0.1l-0.3-0.5h-0.1c0,0-0.1,0-0.1,0.1v0.1L27.1,17.7z"></path>
	<path class="st0" d="M27.2,8.8c0,0.1,0.1,0.2,0.3,0.3c0.8,0.3,1.6,0.7,2.2,1.2c0.1,0.1,0.1,0.2,0.1,0.3s-0.1,0.1-0.2,0.1   s-0.1,0-0.2-0.1c-0.7-0.5-1.3-0.8-1.8-1l0,0c0,0.1,0,0.1,0.1,0.2c0.6,0.3,1.2,0.6,2,1.2c0.1,0.1,0.2,0.1,0.3,0.1   c0.1,0,0.2,0,0.2-0.1c0.1-0.4,0-0.7-0.5-1.1C28.8,9.5,27.9,9,27.2,8.8L27.2,8.8z"></path>
	<path class="st0" d="M27.7,10.2L27.7,10.2c-0.1,0.1,0,0.2,0,0.2c0.2,0.1,0.4,0.2,0.6,0.4c0.5,0.3,1,0.6,1.1,0.8   c0.1,0.1,0.1,0.3,0,0.5c-0.1,0.1-0.1,0.1-0.2,0.2c-0.1,0-0.1,0-0.2-0.1l-1.1-0.7l0,0l0,0c0,0.1,0,0.2,0.2,0.4   c0.3,0.2,0.6,0.4,0.8,0.6H29c0.1,0.1,0.3,0.2,0.4,0.2s0.1,0,0.2-0.1c0.3-0.3,0.3-0.8,0.2-1C29.3,11.1,28.6,10.7,27.7,10.2"></path>
	<path class="st0" d="M29,11.8L29,11.8c0.2,0,0.2,0,0.2,0c-0.2-0.2-1.4-0.9-1.4-0.9s0,0.1,0.1,0.1C28.1,11.3,28.5,11.6,29,11.8"></path>
	<path class="st0" d="M27.9,13.6l0.7,0.5c0.1,0,0.2,0.1,0.2,0.1c0.1,0,0.1,0,0.2-0.1s0.2-0.2,0.3-0.4c0.1-0.3,0-0.5-0.2-0.7   l-0.9-0.7l0,0l0,0c0,0,0,0.1,0,0.2c0.3,0.2,0.6,0.4,0.7,0.6c0.1,0.1,0.1,0.3,0.1,0.4c0,0.1-0.1,0.1-0.2,0.1s-0.1,0-0.2-0.1L28,13.2   c0,0-0.1,0-0.1,0.1C27.8,13.4,27.8,13.5,27.9,13.6"></path>
	<path class="st0" d="M28.4,13.3c0,0,0.1,0,0.1-0.1v-0.1L28,12.8h-0.1v0.1L28.4,13.3L28.4,13.3z"></path>
	<path class="st0" d="M27,14.8c0,0,0,0.1,0,0.2l0.7,0.5h0.1c0.1,0,0.2-0.1,0.3-0.1l0.1-0.1c0.2-0.3,0.3-0.5,0.1-0.8   c-0.2-0.2-0.4-0.4-0.7-0.6c0,0,0,0-0.1,0.1c0,0.1,0,0.2,0,0.2l0.3,0.4c0.1,0.1,0.1,0.2,0,0.4c-0.1,0.1-0.2,0.2-0.3,0.2   c-0.1,0-0.1,0-0.2-0.1l-0.4-0.3L27,14.8C27.1,14.7,27.1,14.8,27,14.8"></path>
	<path class="st0" d="M27.3,14.4v0.1l0.2,0.2h0.1c0,0,0.1,0,0.1-0.1v-0.1l-0.2-0.2L27.3,14.4C27.4,14.3,27.3,14.4,27.3,14.4"></path>
	<path class="st0" d="M26,15.7C26,15.7,26,15.8,26,15.7c-0.1,0.1-0.1,0.2-0.1,0.2l0.5,0.6c0.1,0.1,0.1,0.1,0.2,0.1   c0.2,0,0.5-0.2,0.6-0.5c0.1-0.2,0.1-0.4,0.1-0.5c-0.2-0.3-0.4-0.5-0.5-0.7l0,0c0,0,0,0-0.1,0.1c0,0.1,0,0.2,0,0.2l0.2,0.3   c0.1,0.1,0,0.3,0,0.4c-0.1,0.1-0.2,0.2-0.3,0.2c-0.1,0-0.1,0-0.2-0.1L26,15.7L26,15.7z"></path>
	<path class="st0" d="M26.6,15.9C26.7,15.9,26.7,15.9,26.6,15.9c0.1-0.1,0.1-0.1,0.1-0.2l-0.3-0.3l0,0c0,0-0.1,0-0.1,0.1v0.1   L26.6,15.9L26.6,15.9z"></path>
	<path class="st0" d="M27.6,22.8c0,0.1,0,0.2,0.1,0.2s0.2,0,0.2-0.1c0.6-0.7,0.4-3.1-0.4-4.2h-0.1c0,0-0.1,0-0.1,0.1s0,0.1,0,0.2   c0.6,1.3,0.8,2.3,0.6,3.1c0,0.1-0.1,0.2-0.2,0.2s-0.1,0-0.2-0.3c-0.1-1-0.4-1.7-0.8-2.3c0,0.1,0,0.3,0,0.5   C27.2,20.6,27.4,21.5,27.6,22.8"></path>
	<path class="st0" d="M27.1,18.9L27.1,18.9c-0.1,0.1-0.1,0.2,0,0.3c0.3,0.5,0.6,1.2,0.7,1.9l0,0l0,0C27.7,20.3,27.5,19.5,27.1,18.9   L27.1,18.9z"></path>
	<path class="st0" d="M23.6,8.2c0.1,0.1,0.2,0.1,0.3,0.1c0.2,0.1,0.3,0.2,0.5,0.3c0.6,0.4,1.1,0.8,1.3,2.1v0.1c0.3,1.2,0.4,2-0.8,3   c-0.1,0.1-0.1,0.2,0,0.3c0,0.1,0.1,0.1,0.1,0.1l0,0l0,0c0.4-0.2,0.7-0.5,1-0.9c0.7-1-0.1-3.2-0.3-3.9c-0.2-0.5-0.6-0.8-1.1-1.1   l-1.4-0.6C23.1,7.6,23,7.4,23,7.3c0-0.2,0.1-0.2,0.3-0.3c0.1-0.1,0.3-0.1,0.6-0.1c0.2,0,0.3,0,0.5,0c2.2,0.2,4.2,0.7,6.2,2l0,0   c0.1,0.1,0.1,0.2,0,0.3c0,0.1-0.2,0.2-0.5,0.2c-0.2,0-0.3,0-0.4-0.2l-0.2-0.3c0,0,0-0.1-0.1-0.1c0,0-0.1,0-0.1,0.1l-0.1,0.4   c0,0.1,0,0.1,0.1,0.1c0.3,0.1,0.6,0.1,0.9,0.1c0.5,0,1-0.2,1.4-0.5c0.1-0.1,0.1-0.2,0.1-0.2s-0.1-0.1-0.2-0.1h-0.1   c-0.5,0-0.9-0.1-1.3-0.4c-2-1.2-4.2-1.7-6.6-1.7c-0.2,0-0.4,0-0.6,0.1S22.6,7,22.5,7.2c0,0.2,0,0.4,0.2,0.6   C23.1,8,23.3,8.1,23.6,8.2"></path>
	<path class="st0" d="M13.4,12.8c0.1,0.3,0.2,0.5,0.5,0.5h0.9c0.1,0,0.1-0.1,0.1-0.2c0-0.1,0-0.1-0.1-0.2h-0.7   c-0.3,0-0.4-0.4-0.5-0.8c-0.2-0.8,0.2-1.4,0.6-1.8l0.1-0.1l0,0l0,0l-0.1-0.1c0,0,0-0.1,0.1-0.2l0.1-0.1l0,0h-0.1l0,0   c-0.3,0.1-0.6,0.5-1.1,1C13,11,12.9,11.1,13,11.4L13.4,12.8z"></path>
	<path class="st0" d="M15.2,12.1L15.2,12.1c-0.2,0-0.4,0.1-0.5,0.1c-0.2,0-0.4-0.1-0.6-0.2H14l0,0v0.1c0.2,0.2,0.4,0.3,0.5,0.3   C14.8,12.5,15,12.4,15.2,12.1C15.2,12.2,15.2,12.2,15.2,12.1"></path>
	<path class="st0" d="M13.9,11.3c0,0.1-0.1,0.2,0,0.3c0,0.1,0.1,0.1,0.2,0.1c0.1,0,0.1,0,0.2,0c0.4,0,0.8-0.2,1.3-0.6V11l0,0   c-0.5,0.2-0.8,0.4-1.1,0.4c-0.1,0-0.1-0.1-0.2-0.1c0-0.1,0-0.2,0.1-0.3c0.2-0.2,0.3-0.3,0.4-0.5v-0.1c0-0.1,0-0.1,0-0.2v-0.1   c0-0.1,0-0.2,0.1-0.2C15,9.8,15,9.8,15.1,9.7c0.1-0.1,0.1-0.1,0.1-0.2c0-0.1-0.1-0.2-0.2-0.2c-0.3,0.1-0.4,0.2-0.3,0.5   c0,0.3,0,0.4-0.1,0.6C14.3,10.7,14,11,13.9,11.3"></path>
	<path class="st0" d="M15,10.1c0,0.1,0,0.1,0,0.2c0.1,0.1,0.2,0.3,0.1,0.5l0,0c0.1-0.1,0.2-0.2,0.2-0.3s0-0.2-0.1-0.4   C15.1,10.1,15.1,10,15,10.1C15,10,15,10.1,15,10.1"></path>
	<path class="st0" d="M21.8,31.9c0.3,0.2,0.5,0.7,0.7,1.3c0.2,0.7,0.5,1.4,1,1.5c0.1,0,0.2,0,0.2,0l0,0c0,0,0,0-0.1-0.1   c-0.3-0.1-0.5-0.6-0.7-1.2c-0.2-0.7-0.5-1.5-1-1.7c-0.1,0-0.1,0-0.2,0s-0.1,0-0.1,0C21.7,31.8,21.7,31.8,21.8,31.9"></path>
	<path class="st0" d="M22.7,31.8c-0.1,0-0.1,0-0.1,0S22.6,31.8,22.7,31.8c0.3,0.3,0.5,0.8,0.7,1.4c0.3,0.7,0.6,1.5,1.1,1.5l0,0   c0.1,0,0.1,0,0.1,0l0,0c-0.3-0.1-0.5-0.7-0.7-1.2C23.6,32.7,23.3,31.8,22.7,31.8"></path>
	<path class="st0" d="M24.4,33.3L24.4,33.3c0.2,0.6,0.5,1.3,1,1.3h0.1l0,0c-0.4-0.3-0.6-0.8-0.7-1.1c-0.1-0.4-0.3-0.8-0.7-0.9H24   h-0.1v0.1C24.2,32.7,24.3,33,24.4,33.3"></path>
	<path class="st0" d="M22.7,31.4L22.7,31.4h0.2c0.2,0,0.2-0.1,0.2-0.2s0-0.1-0.1-0.2c-0.1,0-0.2,0-0.4,0l0,0c-0.2,0-0.5,0-0.8-0.1   h-0.1c0,0-0.1,0-0.2,0c0,0-0.1,0-0.1,0.1c0,0,0,0.1,0,0.2c0.1,0.2,0.4,0.3,0.9,0.2C22.5,31.4,22.6,31.4,22.7,31.4"></path>
	<path class="st0" d="M27.6,31.3c0-0.1-0.2-0.4-0.6-0.4c-0.5,0-0.6,0.3-0.7,0.6c0,0.1,0,0.1,0,0.1l0.1,0.1c0.1,0,0.1,0,0.2-0.1   c0.1-0.3,0.2-0.3,0.3-0.3c0.1,0,0.3,0.1,0.3,0.2s0,0.2-0.1,0.3c-0.2,0.1-0.3,0.3-0.2,0.5c0.2,0.4,0.3,0.7,0,1.2   c-0.1,0.3,0,0.4,0.2,0.6l0,0c0.1,0.1,0.1,0.2,0,0.2c0,0.1-0.2,0.2-0.3,0.2c-0.1,0-0.2-0.1-0.3-0.2c0-0.1-0.1-0.2-0.2-0.2   s-0.1,0-0.1,0.1v0.1c0.2,0.4,0.4,0.6,0.7,0.6c0.1,0,0.3,0,0.4-0.1s0.2-0.2,0.2-0.4c0-0.1,0-0.3-0.1-0.4c-0.2-0.1-0.2-0.3-0.1-0.6   c0.2-0.3,0.1-0.6,0-1c-0.1-0.2-0.1-0.4,0.1-0.5C27.7,31.8,27.7,31.5,27.6,31.3"></path>
	<path class="st0" d="M21.3,34c0-0.1-0.1-0.1-0.2-0.1H21l-0.2,0.3c0,0.1-0.1,0.1-0.2,0.1s-0.2,0-0.2-0.1c-0.1-0.1-0.1-0.1,0-0.2   c0-0.1,0.1-0.2,0.2-0.3s0.1-0.2,0-0.4c-0.1-0.3-0.2-0.6-0.1-0.9l0.1-0.4c0-0.2,0-0.3-0.1-0.4s-0.2-0.2-0.1-0.4   c0-0.1,0.1-0.2,0.2-0.2h0.1c0.1,0.1,0.1,0.1,0.2,0.2v0.1c0.1,0.1,0.1,0.1,0.2,0.1h0.1c0,0,0-0.1,0-0.2c-0.1-0.4-0.4-0.5-0.7-0.5   c-0.2,0-0.3,0.1-0.4,0.2c-0.1,0-0.1,0.2-0.1,0.4c0,0.2,0,0.3,0.2,0.4l0,0c0.1,0.2,0.1,0.4,0,0.6c-0.1,0.4-0.1,0.6,0,0.8   c0.1,0.3,0.1,0.5,0,0.7l-0.1,0.1C20,34,20,34.1,20,34.3c0.1,0.3,0.3,0.4,0.6,0.4c0.1,0,0.3,0,0.4-0.1C21.2,34.5,21.3,34.3,21.3,34"></path>
	<path class="st0" d="M26.2,34.9c-0.1,0-0.1,0-0.2,0.1c-0.1,0-0.2,0-0.3,0h-0.1c-1.2,0-2.5,0-3.8-0.1c-0.1,0-0.2,0-0.4-0.1   c-0.1,0-0.2-0.1-0.3-0.1c-0.1,0-0.1,0-0.1,0.1c0,0,0,0.1,0,0.2c0.3,0.4,2.3,0.3,3.1,0.3h0.8c0.3,0,0.5,0,0.7,0   c0.3,0,0.5-0.1,0.7-0.2c0.1,0,0.1-0.1,0.1-0.2C26.4,34.9,26.4,34.9,26.2,34.9"></path>
	<path class="st0" d="M21.8,8.8c1.2,0.3,2,0.7,2.3,1.7c0,0.4,0.1,0.7,0.2,0.8l0,0v-0.1c0-1-0.3-1.7-1-2C23,9,22.5,8.8,21.8,8.6   c-0.3,0-0.4-0.2-0.4-0.5s0.2-0.6,0.6-0.6h0.1c0.1,0,0.2-0.1,0.2-0.1s0,0-0.1-0.1l0,0h-0.1c-0.4,0-0.8,0.1-0.8,0.7   C21.2,8.5,21.3,8.7,21.8,8.8"></path>
	<path class="st0" d="M21.9,7.7L21.9,7.7c0.2,0,0.3,0.1,0.3,0.2s-0.1,0.2-0.3,0.2l0,0c0,0,0,0,0.1,0s0.2,0,0.2,0   c0.2,0,0.3-0.1,0.4-0.1c0-0.1,0-0.1,0-0.2s-0.2-0.2-0.4-0.2C22.1,7.7,22,7.7,21.9,7.7"></path>
	<path class="st0" d="M23.6,8.9c0,0,0.1,0.1,0.2,0.1S24,9,24,9l0,0c-0.2-0.3-1-0.5-1.3-0.4C22.5,8.6,23.4,8.6,23.6,8.9"></path>
	<path class="st0" d="M23.8,10.8c-0.2-0.4-0.5-0.7-0.8-0.9c-0.1,0-0.1,0-0.1,0.1c0.5,0.4,0.9,0.9,1.1,1.7c0,0.1,0,0.2-0.1,0.4l0,0   c-0.1,0-0.1,0.1-0.2,0.2c0,0,0,0.1,0,0.2c0,0.1,0.1,0.1,0.2,0.1l0,0l0,0l0.6-0.4c0,0,0.1-0.1,0.1-0.2c0-0.1,0-0.1,0-0.1   C24.2,11.6,24,11.3,23.8,10.8"></path>
	<path class="st0" d="M22.1,11.3L22.1,11.3L22.1,11.3c0.1,0.5,0.1,1.1,0.1,1.7v0.1c0,0,0.1,0.1,0.2,0.1c0.2-0.1,0.4-0.1,0.6-0.3   c0.2-0.1,0.2-0.2,0.2-0.4c-0.1-0.7-0.3-1.3-0.7-1.8h-0.1l0,0v0.1c0.5,0.9,0.6,1.5,0.4,1.8c-0.1,0.1-0.2,0.2-0.3,0.2   c-0.1,0-0.2,0-0.2-0.2C22.4,11.8,22.3,11.5,22.1,11.3L22.1,11.3z"></path>
	<path class="st0" d="M22.8,12.2c0-0.1,0-0.1,0-0.2c-0.1-0.5-0.5-1.3-0.5-1.3l0,0v0.1c0.2,0.4,0.3,0.8,0.4,1.4   C22.7,12.3,22.8,12.4,22.8,12.2"></path>
	<path class="st0" d="M23.5,11.9c0.1,0.1,0.2,0,0.1-0.1c-0.2-0.6-0.7-1.4-0.8-1.4C23.1,10.8,23.3,11.3,23.5,11.9"></path>
	<path class="st0" d="M21,13l0.1-0.7c0-0.1,0-0.1,0-0.1s0,0-0.1,0.1c-0.1,0.2-0.4,1-0.2,1.2c0,0.1,0.1,0.1,0.1,0.1   c0.1,0,0.1,0,0.2,0c0.3,0,0.5-0.1,0.6-0.2c0.3-0.3,0.2-1,0.2-1.5v-0.1c0-0.1-0.1-0.2-0.1-0.2h-0.1c0,0-0.1,0.1,0,0.2   c0,0.4,0,0.8-0.1,1.2c-0.1,0.2-0.2,0.3-0.3,0.3C21.1,13.2,21,13.2,21,13"></path>
	<path class="st0" d="M21.4,12.7c0-0.2,0-0.5,0-0.7l0,0c0,0-0.1,0-0.1,0.1c0,0.3,0,0.4-0.1,0.7v0.1l0,0   C21.4,12.8,21.4,12.8,21.4,12.7"></path>
	<path class="st0" d="M21.1,10.7C21.1,10.7,21.2,10.7,21.1,10.7h0.1c0-0.1,0-0.1-0.1-0.1c-0.2-0.1-0.6-0.3-0.9-0.3l0,0v0.1   C20.5,10.3,20.9,10.5,21.1,10.7"></path>
	<path class="st0" d="M19.5,13.6c0.1,0.1,0.2,0.1,0.4,0.1c0.1,0,0.5,0,0.6-0.4l0.2-0.8v-0.1h-0.1c-0.1,0-0.2,0.1-0.2,0.2   c0,0.3-0.1,0.4-0.2,0.7c0,0.1-0.1,0.1-0.2,0.1s-0.1,0-0.1-0.1v-0.1c0.1-0.1,0.1-0.2,0.2-0.4v-0.1l0,0c0,0-0.1,0-0.1,0.1   c-0.1,0.2-0.2,0.4-0.4,0.5C19.5,13.4,19.4,13.5,19.5,13.6"></path>
	<path class="st0" d="M17.4,12.8c-0.1,0-0.1,0-0.2,0s-0.1,0-0.1,0.1V13c0.8,0.6,1,1.3,0.6,2.2c0,0.1,0,0.1,0,0.1l0,0   c0,0,0.1,0,0.1-0.1C18.4,14.2,18.3,13.5,17.4,12.8"></path>
	<path class="st0" d="M10.2,16.4c0,0.1,0,0.1,0.1,0.1l0,0c0.1,0,0.1,0,0.1-0.1s0-0.1,0-0.2c-0.2-0.3,0-0.4,0.1-0.6l0,0l0.1-0.1   c0-0.1,0.1-0.1,0.1-0.2c0-0.1-0.1-0.1-0.1-0.1h-0.1c-0.1,0.1-0.2,0.2-0.3,0.2l0,0h-0.1H10c0,0-0.1,0.1,0,0.2   C10.1,16,10.1,16.2,10.2,16.4"></path>
	<path class="st0" d="M10.8,16.7c0.1,0.1,0.1,0.1,0.2,0.1h0.1c0-0.1,0.1-0.2,0-0.3c-0.2-0.4,0-0.5,0.2-0.7l0,0c0-0.1,0-0.1,0-0.2   l-0.1-0.1h-0.1C10.7,15.8,10.6,16.1,10.8,16.7"></path>
	<path class="st0" d="M11.3,16.3l0.1,0.5c0,0.1,0.1,0.1,0.2,0.1c0,0,0.1,0,0.1-0.1c0,0,0-0.1,0-0.2c-0.1-0.2-0.1-0.4,0-0.6l0.2-0.2   c0-0.1,0-0.1,0-0.2l-0.1-0.1h-0.1l-0.2,0.2C11.4,16,11.3,16.2,11.3,16.3"></path>
	<path class="st0" d="M16.7,13.1h-0.1c-0.1,0-0.1,0-0.2,0.1c0,0.1,0,0.2,0.1,0.3c0.4,0.3,0.6,0.5,0.6,0.8c0.1,0.3,0,0.6-0.2,0.9   l-1.6,1.5c-1.1,1-1.2,1.9-0.5,2.8h0.1v-0.1c-0.6-1.2,0.2-1.8,1.2-2.7l0,0c0.5-0.4,1-0.8,1.4-1.4C17.9,14.5,17.6,13.8,16.7,13.1"></path>
	<path class="st0" d="M17.3,19.1c-0.3,0-0.5,0-0.7,0.1h-0.1c-0.2,0-0.3,0-0.5,0c-0.4,0-0.7-0.1-0.9-0.9c0-0.1,0-0.1-0.1-0.2   c0,0-0.1,0.1-0.1,0.2c0,1,0.7,1,1.7,1.1c0.3,0,0.6,0,0.9,0.1c0.5,0.1,0.9,0.5,1,0.9s-0.1,0.8-0.5,1.2c0-0.1,0,0,0,0.1   s0.1,0.1,0.2,0.1s0.1,0,0.1,0c0.5-0.3,0.7-0.9,0.6-1.5s-0.6-1.1-1.3-1.2C17.5,19.1,17.4,19.1,17.3,19.1"></path>
	<path class="st0" d="M15.5,15.2c-1.5,0.8-2,2.2-1.8,3.4c0.2,1,1,1.7,2,1.8h1.8c0.1,0,0.2,0.1,0.3,0.2c0,0.1,0.1,0.2-0.1,0.4   c0,0.1,0,0.1,0,0.1l0,0c0,0,0.1,0,0.2-0.1c0.2-0.2,0.3-0.5,0.2-0.7C18,20.1,17.8,20,17.5,20s-0.6,0-0.8,0c-0.8,0-1.2,0-1.4-0.2   c-0.7-0.4-1.1-1-1.2-1.7c0-1,0.6-2,1.7-2.7c0.5-0.3,1.1-0.7,1.2-1c0-0.1,0-0.2,0-0.2l0,0c0,0-0.1,0-0.1,0.1   C16.6,14.6,16.1,14.9,15.5,15.2"></path>
	<path class="st0" d="M12.5,18.7c-0.1,0.4-0.1,0.7,0.2,0.9c0.3,0.2,0.6,0.5,0.9,0.7c0.4,0.3,0.5,0.7,0.5,1.1l0,0   c0,0.1,0,0.2,0.1,0.3c0.1,0.4,0.3,0.6,0.7,0.7l0,0c0.1,0,0.1-0.1,0.1-0.1c0-0.1,0-0.1-0.1-0.1c-0.4-0.1-0.5-0.3-0.6-0.5   c-0.1-0.6-0.3-1.2-0.6-1.4c-0.3-0.2-0.7-0.4-0.9-0.7c-0.1-0.1-0.2-0.1-0.2-0.2c-0.1-0.3,0-0.8,0.4-1.5c0.1-0.8-0.2-1.3-0.9-1.7H12   c-0.1,0-0.1,0-0.1,0s0,0.1,0.1,0.1C12.8,16.7,13.3,17.2,12.5,18.7"></path>
	<path class="st0" d="M12.8,20.6c0.4,0.3,0.6,0.6,0.6,1.1c0.1,1.2,0.7,1.7,1.7,1.7l0,0c0.2,0,0.4-0.1,0.5-0.1l0,0c0,0,0-0.1-0.1-0.2   c0-0.1-0.1-0.1-0.2-0.1h-0.1l0,0c-0.1,0-0.2,0.1-0.3,0.1s-0.1,0-0.2,0c-0.5-0.2-0.8-0.5-0.9-1.2c0-0.7-0.2-1.1-0.5-1.3   c-0.5-0.3-0.9-0.6-1.1-0.9c-0.3-0.6-0.1-1,0.1-1.4c0-0.1,0.1-0.2,0.1-0.3c0.1-0.2,0.1-0.4,0.1-0.6c0-0.6-0.2-0.9-0.5-1h-0.1h-0.1   c0,0,0,0.1,0.1,0.2c0.4,0.3,0.4,0.8,0,1.7c-0.2,0.5-0.3,1-0.1,1.3C12,20,12.3,20.3,12.8,20.6"></path>
	<path class="st0" d="M16.2,23.4L16.2,23.4c0.1,0,0.1,0,0.1-0.1c-0.1-0.1-0.2-0.1-0.3-0.1l0,0C16,23.3,16.1,23.4,16.2,23.4"></path>
	<path class="st0" d="M16.8,23.2L16.8,23.2C16.7,23,16.5,23,16.4,23h-0.1l0,0c0,0,0,0,0,0.1c0.1,0.1,0.2,0.1,0.4,0.1H16.8L16.8,23.2   z"></path>
	<path class="st0" d="M16.9,22.8L16.9,22.8L16.9,22.8c0,0.2,0.1,0.3,0.3,0.3c0.1,0,0.1,0,0.2,0l0,0c0,0,0,0,0-0.1   C17.2,22.9,17.1,22.8,16.9,22.8"></path>
	<path class="st0" d="M17.1,21.8c0.1,0,0.2,0,0.2-0.1c0.1,0,0.1-0.1,0.2-0.1v-0.1c-0.1-0.1-0.2-0.3-0.1-0.5c0-0.1,0-0.1,0-0.1l0,0   l0,0c0,0-0.1,0.1-0.2,0.1l0,0c-0.3,0.2-0.3,0.4-0.3,0.7C16.9,21.7,17,21.8,17.1,21.8L17.1,21.8z"></path>
	<path class="st0" d="M15.8,23C15.9,23,15.9,23,15.8,23L15.8,23c-0.1-0.1-0.2-0.3-0.1-0.6c0-0.2-0.1-0.5-0.2-0.7c0,0,0,0-0.1,0.1   c0,0.1,0,0.2,0,0.2c0.1,0.1,0.1,0.2,0.1,0.4C15.5,22.8,15.6,22.9,15.8,23"></path>
	<path class="st0" d="M16.3,22.8L16.3,22.8c0.2-0.1,0.2-0.1,0.2-0.1s0,0-0.1,0c-0.2-0.1-0.3-0.3-0.3-0.6c0.1-0.2,0-0.3-0.1-0.5   s-0.1-0.3-0.1-0.4l0,0h-0.1c-0.1,0-0.1,0.1-0.1,0.2s0,0.3,0.1,0.5c0.1,0.1,0.1,0.2,0.1,0.4c0,0.2,0,0.4,0.2,0.5   C16.1,22.8,16.2,22.8,16.3,22.8"></path>
	<path class="st0" d="M16.9,20.9C16.9,20.8,16.9,20.8,16.9,20.9L16.9,20.9c0-0.1-0.1-0.1-0.2-0.1c-0.2,0-0.4,0.1-0.5,0.2   s-0.1,0.3,0,0.5c0.1,0.1,0.1,0.3,0,0.4c0,0.1,0,0.3,0,0.4c0.1,0.2,0.2,0.3,0.4,0.3c0.1,0,0.1,0,0.1,0l0,0c-0.1-0.1-0.1-0.2,0-0.3   l0.1-0.1c0,0,0-0.1-0.1-0.1C16.5,21.6,16.5,21.2,16.9,20.9"></path>
	<path class="st0" d="M18.6,22.8c0.1-0.1,0.3-0.2,0.4-0.3c0.2-0.1,0.4-0.2,0.5-0.4c0.2-0.4,0.1-0.8-0.2-1.1h-0.1c0,0-0.1,0-0.1,0.1   s0,0.1,0,0.2l0.2,0.3c0.1,0.2,0,0.4-0.2,0.5c-0.4,0.2-0.7,0.4-0.8,0.6c-0.1,0.1-0.1,0.1-0.2,0.1s-0.1,0-0.2-0.1l-0.3-0.3   c-0.1-0.1-0.1-0.1,0-0.2l0.1-0.1h0.1l0.2,0.1h0.1c0,0,0,0,0.1-0.1c0-0.2-0.1-0.3-0.3-0.4c-0.1,0-0.1,0-0.2,0   c-0.2,0-0.4,0.1-0.6,0.4c-0.2,0.2,0.2,0.5,0.5,0.7c0.1,0.1,0.2,0.2,0.3,0.2c0.1,0,0.1,0.1,0.2,0.1s0.1,0,0.1,0   C18.4,23.1,18.5,23,18.6,22.8"></path>
	<path class="st0" d="M19.5,23.2C19.5,23.2,19.6,23.2,19.5,23.2c0.3,0,0.5,0.1,0.8,0.3c0.1,0,0.1,0,0.1,0s0-0.1-0.1-0.1   c-0.3-0.3-0.7-0.4-1-0.4c-0.1,0-0.2,0-0.3,0c-0.1,0.1-0.2,0.2-0.2,0.2c0,0.1,0.1,0.1,0.1,0.1l0.7,0.2l0.5,0.2l0,0   c0.1,0,0.1,0,0.1-0.1v-0.1c-0.2-0.1-0.4-0.2-0.6-0.3c-0.2,0-0.2-0.1-0.2-0.1C19.4,23.3,19.4,23.2,19.5,23.2"></path>
	<path class="st0" d="M20,22.2c-0.1,0.1-0.2,0.2-0.3,0.3c0,0.1,0,0.2,0,0.3c0.1,0.3,0.7,0.4,0.9,0.5l0,0l0,0l0,0   c0.1,0,0.1,0,0.1-0.1v-0.1l0,0c-0.3-0.1-0.5-0.3-0.7-0.4c-0.1-0.1-0.1-0.2,0-0.3c0-0.1,0.1-0.1,0.2-0.1s0.2,0,0.3,0.1l0,0h0.1v-0.1   c-0.1-0.1-0.2-0.1-0.3-0.1C20.3,22.1,20.1,22.1,20,22.2"></path>
	<path class="st0" d="M20.4,22.5L20.4,22.5C20.4,22.5,20.3,22.5,20.4,22.5c-0.1,0.1-0.1,0.1-0.1,0.2c0.2,0.1,0.4,0.2,0.7,0.3l0,0   l0,0c0,0,0.1,0,0.1-0.1c0,0,0-0.1-0.1-0.1C20.9,22.7,20.7,22.6,20.4,22.5"></path>
	<path class="st0" d="M20.6,24.4L20.6,24.4c0.1,0,0.2,0,0.3,0c0.3-0.1,0.6-0.2,1-0.2c0.1,0,0.1,0,0.1-0.1c0,0,0-0.1-0.1-0.1h-0.1   c-0.2,0-0.5,0.1-0.9,0.2h-0.1c-0.1,0-0.1,0-0.1-0.1s0-0.2,0.1-0.2c0.2-0.3,0.6-0.5,1-0.6c0.1,0,0.1-0.1,0.1-0.1s0-0.1-0.1-0.1   c-0.5,0.1-1,0.4-1.3,0.8c-0.1,0.2-0.1,0.3-0.1,0.4C20.3,24.4,20.4,24.4,20.6,24.4"></path>
	<path class="st0" d="M21.2,23.6C21.2,23.7,21.2,23.7,21.2,23.6c0,0.1,0,0.2,0.1,0.2c0.2,0,0.4-0.1,0.5-0.1v-0.1l0,0   c0,0-0.1-0.1-0.2-0.1S21.3,23.6,21.2,23.6"></path>
	<path class="st0" d="M20.2,21.5c-0.1-0.1-0.1-0.1,0-0.2c0-0.1,0.1-0.1,0.2-0.1l0,0l0,0C20.2,21,20,21,19.8,20.9c-0.1,0-0.1,0-0.1,0   c0,0.4,0.2,0.7,0.7,0.9h0.1l0,0l0,0L20.2,21.5z"></path>
	<path class="st0" d="M19.6,19.6L19.6,19.6c0,0.4,0.1,0.8,0.3,1c0.1,0.1,0.3,0.2,0.4,0.2h0.1c0,0,0-0.1,0-0.2s-0.1-0.2-0.2-0.2   c0,0.1-0.1,0.1-0.1,0.1c-0.1,0-0.2-0.2-0.2-0.4C19.9,19.8,19.7,19.7,19.6,19.6"></path>
	<path class="st0" d="M20.8,21c-0.1-0.1-0.1-0.1-0.2-0.1l0,0l0,0V21c0.1,0.7,0.3,1.4,0.9,1.8c0.1,0,0.1,0,0.2,0   c0.2,0,0.2-0.2,0.2-0.2c0-0.3,0-0.5-0.1-0.7l-0.1-0.1c0,0-0.1,0-0.1,0.1v0.4v0.1h-0.1l0,0c0,0-0.1,0-0.1-0.1   c-0.3-0.3-0.4-0.6-0.5-1.1C20.9,21.2,20.8,21.1,20.8,21"></path>
	<path class="st0" d="M22.6,24.4c0.1,0,0.2,0.1,0.2,0c0.1,0,0.1,0,0.2-0.1c0.1-0.2,0.1-0.5,0.1-0.8l0,0C23,23.4,23,23.3,23,23.3l0,0   c0,0,0,0,0,0.1v0.5c0,0.1,0,0.2-0.1,0.2c0,0-0.1,0-0.1-0.1c-0.3-0.4-0.3-1-0.3-1.5c0-0.2-0.1-0.3-0.2-0.3c0,0-0.1,0-0.1,0.1   C22,23.2,22.1,24,22.6,24.4L22.6,24.4z"></path>
	<path class="st0" d="M22.6,23.6L22.6,23.6c0,0,0.1-0.1,0.1-0.2L22.6,23c0-0.1-0.1-0.1-0.1-0.1s-0.1,0-0.1,0.1   C22.4,23.2,22.5,23.4,22.6,23.6L22.6,23.6"></path>
	<path class="st0" d="M21.3,22l0.1-0.1c0-0.1,0-0.2-0.1-0.3h-0.1h-0.1c0,0.1,0,0.2,0.1,0.3C21.2,21.9,21.3,22,21.3,22"></path>
	<path class="st0" d="M24.1,9.2L24.1,9.2c-0.1,0-0.1,0-0.1,0.1c0,0,0,0.1,0.2,0.1s0.5,0,0.7,0.4c0,0.1,0,0.2,0,0.2   c0,0.1-0.1,0.1-0.2,0.1l0,0v0.1c0.1,0,0.1,0.1,0.2,0.1s0.2,0,0.2-0.1C25,9.9,25,9.9,25,9.7C24.8,9.3,24.5,9.2,24.1,9.2"></path>
	<path class="st0" d="M24.5,9.8C24.6,9.8,24.6,9.7,24.5,9.8c0.1-0.2,0-0.3-0.2-0.3l0,0c0,0,0,0.1,0.1,0.2   C24.4,9.8,24.5,9.8,24.5,9.8"></path>
	<path class="st0" d="M24.7,10.4C24.7,10.4,24.6,10.5,24.7,10.4c-0.1,0.1,0,0.2,0,0.2c0.4,0,0.5,0.2,0.5,0.7c0,0.2-0.1,0.2-0.2,0.2   s-0.1,0-0.2-0.1c-0.1,0-0.1,0-0.1,0s0,0,0,0.1s0.3,0.2,0.5,0.2c0.1,0,0.1,0,0.1,0c0.1-0.1,0.2-0.3,0.1-0.6   C25.3,10.6,25.1,10.4,24.7,10.4"></path>
	<path class="st0" d="M24.9,11.2L24.9,11.2c0.1-0.2,0-0.2,0-0.3c0,0,0,0-0.1,0S24.7,11,24.7,11v0.1C24.8,11.2,24.9,11.2,24.9,11.2"></path>
	<path class="st0" d="M25,13.4L25,13.4c0.4-0.2,0.6-0.5,0.7-0.8c0-0.2,0-0.3-0.1-0.4c-0.1-0.1-0.3-0.2-0.5-0.2H25   c-0.1,0-0.2,0.1-0.2,0.1v0.1l0.3,0.1c0.1,0,0.2,0.1,0.2,0.2c0,0.1,0,0.3-0.1,0.5C25,13.1,24.8,13.1,25,13.4   C24.9,13.4,24.9,13.4,25,13.4"></path>
	<path class="st0" d="M24.8,12.7h0.1c0.1,0,0.1,0,0.1-0.1c0-0.2-0.1-0.2-0.1-0.2h-0.1c-0.1,0-0.1,0.1-0.1,0.1   C24.7,12.6,24.7,12.7,24.8,12.7"></path>
	<path class="st0" d="M25.7,8.5L25.7,8.5L25.7,8.5c0.1,0.2,0.3,0.2,0.6,0.3c0.1,0,0.1,0,0.2,0V8.7c-0.8-1.1-1.6-1.3-2.3-1.2   c-0.1,0-0.2,0-0.4,0h-0.1c0,0.1,0.2,0.2,0.3,0.2c0.1,0,0.3,0,0.4,0c0.6,0,1.1,0.2,1.5,0.6c0.1,0,0.1,0,0.1,0.1   C26,8.5,25.9,8.5,25.7,8.5"></path>
	<path class="st0" d="M25.2,8C25.1,8,25,8,25,8l0,0c0,0,0,0.1,0.1,0.1s0.2,0.1,0.3,0.1c0.1,0,0.1,0,0.2,0h0.1c0,0,0,0-0.1-0.1   C25.4,8,25.3,8,25.2,8"></path>
	<path class="st0" d="M27.2,8.2c-0.1,0-0.1,0-0.2-0.1c-0.3-0.3-0.5-0.5-0.8-0.5h-0.1l0,0c0.4,0.5,0.9,0.8,1.5,1c0.1,0,0.1,0,0.1,0   h0.1c0,0,0,0,0-0.1c0-0.4-0.2-0.6-0.5-0.6c0.1,0.1,0.1,0.2,0,0.3C27.3,8.2,27.3,8.2,27.2,8.2"></path>
	<path class="st0" d="M28.3,30.7h0.1l0,0c-0.1,0-0.1-0.1-0.1-0.2s0-0.3,0.2-0.4c0.8-0.4,1.1-0.8,1-1.5v-0.1c0,0-0.1-0.1-0.2-0.1   s-0.2,0-0.2,0.2c-0.1,0.4-0.2,0.7-0.5,0.9c-0.6,0.4-1.4,0.6-2.3,0.7c-0.4,0-0.6,0.2-0.8,0.5l-0.3,0.7c0,0.2-0.2,0.3-0.3,0.3   l-0.7-0.1c-0.1,0-0.2,0-0.2-0.1c0,0-0.1-0.1,0-0.2c0-0.6,0.1-1.2,0.2-1.8c0.1-0.2,0-0.4-0.1-0.5L24,28.9c0,0,0,0-0.1,0.1   c-0.3,0.5-0.4,1.3-0.4,2.5c0,0.2,0.1,0.4,0.3,0.4l1.5,0.1c0.2,0,0.3-0.1,0.3-0.3c0.1-0.8,0.3-1.2,0.7-1.2c0.3-0.1,0.7-0.1,1.2-0.2   h0.1c0.2,0,0.2,0.1,0.3,0.1C28,30.7,28.2,30.7,28.3,30.7"></path>
	<path class="st0" d="M27.5,28.1L27.5,28.1c-0.3,0.1-0.3,0.2-0.3,0.3c0,0.1,0.1,0.2,0.2,0.2h0.1c0.2-0.2,0.3-0.3,0.5-0.3   C27.8,28.2,27.6,28.1,27.5,28.1"></path>
	<path class="st0" d="M27.1,29.6h0.1c0.1-0.1,0.3-0.1,0.4-0.3c-0.2,0-0.4,0-0.6-0.1h-0.1c-0.1,0-0.2,0.1-0.2,0.2s0,0.1,0.1,0.2   C27,29.5,27.1,29.6,27.1,29.6"></path>
	<path class="st0" d="M26.5,28.4c0.1-0.2,0.2-0.4,0.4-0.5h-0.1c-0.2,0-0.3,0-0.4,0.1s-0.2,0.2-0.2,0.3c0,0.1,0.1,0.2,0.2,0.2   S26.5,28.5,26.5,28.4"></path>
	<path class="st0" d="M24.7,30.8c0.1,0,0.1-0.1,0.1-0.1c0-0.3,0.1-0.4,0.2-0.6c-0.2,0-0.4,0.1-0.5,0.2c-0.1,0.2-0.1,0.3-0.1,0.3   C24.6,30.8,24.6,30.8,24.7,30.8"></path>
	<path class="st0" d="M31.1,30.3c0.3-0.2,0.5-0.2,0.7-0.2c-0.2-0.2-0.4-0.3-0.7-0.3C30.5,29.7,30.7,30.4,31.1,30.3"></path>
	<path class="st0" d="M31.9,29.3c0-0.3,0.1-0.4,0.1-0.6c-0.2,0-0.3,0.1-0.4,0.2s-0.1,0.2-0.1,0.3c0,0.1,0.1,0.1,0.2,0.1   C31.8,29.4,31.9,29.4,31.9,29.3"></path>
	<path class="st0" d="M33,29C32.9,29,32.9,29,33,29c-0.3,0-0.4,0-0.5,0.1c-0.1,0.1-0.2,0.2-0.2,0.3c0,0.1,0.1,0.2,0.2,0.2   c0.1,0,0.1,0,0.1-0.1C32.8,29.2,32.9,29.1,33,29"></path>
	<path class="st0" d="M32.3,30.3L32.3,30.3c0.3-0.1,0.4-0.1,0.5-0.3c-0.2,0-0.4,0-0.6-0.1h-0.1c0,0-0.1,0.1-0.1,0.1   c0,0.1,0,0.1,0.1,0.2C32.1,30.2,32.2,30.3,32.3,30.3"></path>
	<path class="st0" d="M25.7,29.4c0,0.1,0.1,0.2,0.2,0.2s0.2,0,0.2-0.2c0.1-0.2,0.1-0.3,0.1-0.5c-0.1,0.1-0.3,0.2-0.5,0.3   C25.7,29.3,25.7,29.4,25.7,29.4"></path>
	<path class="st0" d="M23,28c-0.2,0-0.4,0.2-0.6,0.3c0.2,0,0.4,0,0.7,0.2C23.5,28.7,23.6,28,23,28"></path>
	<path class="st0" d="M21.5,27.6c0.1,0,0.1-0.1,0.2-0.2c0-0.1,0-0.2-0.2-0.3c-0.1,0-0.2-0.1-0.4-0.1H21c0.2,0.1,0.3,0.3,0.4,0.4   C21.4,27.5,21.5,27.6,21.5,27.6"></path>
	<path class="st0" d="M20.7,27.5c0-0.1-0.1-0.2-0.3-0.3c-0.2,0-0.3,0.1-0.5,0.1c0.1,0,0.3,0.1,0.5,0.3h0.1   C20.6,27.7,20.7,27.6,20.7,27.5"></path>
	<path class="st0" d="M20.9,28.2c-0.3,0.2-0.5,0.2-0.7,0.2c0.2,0.2,0.4,0.3,0.6,0.3C21.4,28.8,21.3,28.1,20.9,28.2"></path>
	<path class="st0" d="M21.7,28.3c0.1,0,0.1,0,0.2,0s0.2-0.1,0.2-0.2s-0.1-0.2-0.2-0.2s-0.2,0-0.2,0c-0.1,0-0.3,0-0.3,0   C21.4,28.1,21.5,28.2,21.7,28.3"></path>
	<path class="st0" d="M17.8,27.4c0.1,0,0.1,0.1,0.2,0.1s0.2-0.1,0.2-0.2s0-0.2-0.2-0.2s-0.4,0-0.5-0.1   C17.5,27.2,17.6,27.3,17.8,27.4"></path>
	<path class="st0" d="M16.3,27.5c0.1,0,0.1,0.1,0.2,0c0.1,0,0.2-0.1,0.2-0.2s0-0.2-0.2-0.2h-0.1c-0.2,0-0.3,0-0.4-0.1   C16.1,27.3,16.2,27.4,16.3,27.5"></path>
	<path class="st0" d="M15.7,26.3h-0.1c-0.1,0-0.2,0-0.4,0.1c0.1,0.1,0.2,0.2,0.3,0.2l0,0l0.1,0.1h0.1c0.1,0,0.2-0.1,0.2-0.2   C16,26.4,15.9,26.3,15.7,26.3"></path>
	<path class="st0" d="M13.2,24.6L13.2,24.6c0,0.1,0.1,0.2,0.2,0.2c0.1,0,0.1,0,0.1-0.1c0,0,0.1-0.1,0-0.3c-0.1-0.1-0.2-0.3-0.3-0.4   c0,0.1,0,0.3,0,0.4C13.2,24.6,13.2,24.6,13.2,24.6"></path>
	<path class="st0" d="M12.7,24.1c-0.1-0.1-0.2-0.3-0.3-0.4c0,0.2,0,0.3,0,0.4v0.1l0,0c0,0.1,0.1,0.2,0.2,0.2c0.1,0,0.1,0,0.1-0.1   C12.8,24.4,12.8,24.3,12.7,24.1"></path>
	<path class="st0" d="M12.6,24.9C12.6,24.9,12.6,24.8,12.6,24.9c-0.2,0-0.4-0.1-0.5-0.2c0,0.2,0.1,0.4,0.3,0.5   c0.1,0,0.1,0.1,0.2,0.1c0.1,0,0.2-0.1,0.2-0.2C12.8,25,12.8,24.9,12.6,24.9"></path>
	<path class="st0" d="M13.4,25.8c0.1,0.1,0.1,0.1,0.2,0.1c0.1,0,0.2-0.1,0.2-0.2s0-0.2-0.1-0.2c0,0,0,0-0.1,0s-0.3-0.1-0.4-0.2   C13.2,25.5,13.3,25.7,13.4,25.8"></path>
	<path class="st0" d="M23.8,27.4v-0.1c0-0.1,0-0.3,0-0.5c0,0,0-0.1-0.2-0.1h-0.1c-0.4,0-0.6,0.3-0.7,0.5c-0.1,0.3,0,0.6,0.3,0.8   c0.1,0,0.1,0,0.1,0l0,0c0,0,0-0.1,0-0.2s0-0.2,0-0.2C23.4,27.4,23.5,27.4,23.8,27.4L23.8,27.4z"></path>
	<path class="st0" d="M24.7,29.3L24.7,29.3c0.1,0,0.1,0,0.1,0l0,0c-0.2-0.1-0.2-0.2-0.2-0.3c0-0.1,0.1-0.2,0.2-0.3   c0.1-0.1,0.1-0.2,0-0.3c-0.2-0.1-0.2-0.2-0.3-0.4c0-0.1-0.1-0.1-0.1-0.1c-0.1,0-0.1,0-0.2,0.1c-0.3,0.2-0.3,0.6-0.3,0.8   C24.1,29,24.4,29.3,24.7,29.3"></path>
	<path class="st0" d="M29.8,29.1L29.8,29.1c0.1,0,0.2,0.1,0.2,0.1c0.3,0,0.5-0.2,0.6-0.5s0-0.6-0.3-0.9c-0.1,0-0.1-0.1-0.1-0.1   s-0.1,0-0.1,0.1c-0.1,0.2-0.2,0.3-0.3,0.4c0,0.1,0,0.1,0,0.1l0.1,0.1c0.1,0.1,0.2,0.2,0.2,0.3C30,28.9,29.9,29,29.8,29.1"></path>
	<path class="st0" d="M28.5,28.1c0.1,0.1,0.2,0.1,0.3,0.1c0.1,0,0.1,0,0.2-0.1c0.4-0.2,0.7-0.4,0.8-0.7c0-0.2,0-0.3-0.1-0.4   c-0.1-0.2-0.3-0.3-0.5-0.2h-0.1c-0.4,0-0.6-0.2-0.8-0.4c-0.1-0.1-0.2-0.2-0.3-0.3h-0.1l0,0v0.1c0,0.2,0.2,0.3,0.3,0.5   c0.2,0.1,0.4,0.2,0.6,0.4c0.1,0.1,0.2,0.2,0.2,0.2c0,0.1-0.1,0.2-0.2,0.2h-0.1c-0.1,0-0.2-0.1-0.3-0.2c-0.2-0.3-0.4-0.6-0.7-0.8   h-0.1c0,0,0,0-0.1,0s-0.2,0.1-0.2,0.2c-0.1,0.1-0.1,0.1-0.2,0.1c0,0-0.1,0-0.1-0.1c0,0,0,0-0.1,0c-0.3,0.2-0.7,0.5-1,0.8   c-0.1,0.1-0.1,0.1-0.2,0.1l0,0h-0.1l0,0l0,0c0-0.1,0-0.2,0.1-0.2c0.4-0.2,0.6-0.5,0.8-0.7v-0.1c0-0.1,0-0.1-0.1-0.1   c-0.1-0.1-0.2-0.1-0.3-0.1c-0.1,0-0.2,0-0.4,0.1c-0.1,0-0.2,0-0.4,0c-0.2,0-0.4,0-0.6-0.1c-0.1,0-0.1,0-0.2,0s-0.2,0.1-0.3,0.2   c0,0.1-0.1,0.1-0.1,0.2c0,0.2,0,0.4,0,0.5s0,0.1,0.1,0.2l0.1,0.1c0.1,0,0.1,0,0.2-0.1c0.2-0.1,0.3-0.3,0.3-0.5   c0-0.1,0.1-0.1,0.2-0.2c0.3-0.1,0.5-0.1,0.7-0.1c0.1,0,0.1,0,0.2,0s0.1,0.1,0.1,0.1c0,0.1-0.1,0.1-0.1,0.2   c-0.2,0.2-0.5,0.3-0.9,0.4c-0.2,0.1-0.3,0.3-0.2,0.5c0,0.1,0.1,0.3,0.4,0.5c0.1,0,0.2,0.1,0.2,0.1c0.2,0,0.3-0.1,0.4-0.3   c0-0.1,0.1-0.2,0.3-0.3c0.2-0.2,0.4-0.3,0.6-0.5l0.1-0.1c0.1,0,0.1,0.1,0.1,0.2v0.1c0.1,0.1,0.1,0.1,0.2,0.1s0.2-0.1,0.3-0.2   l0.1-0.1h0.1l0,0c0,0,0,0.1,0,0.2s0,0.1,0,0.1h0.1c0.1,0,0.1,0,0.2,0.1L28.5,28.1z"></path>
	<path class="st0" d="M24.6,24.8h-0.1v0.1l0.7,0.9c0.1,0.1,0.2,0.2,0.3,0.2c0.1,0,0.1,0,0.2-0.1s0.1-0.2,0-0.3   c0-0.1-0.1-0.1-0.1-0.1v0.1c0,0.1-0.1,0.1-0.2,0.1s-0.1,0-0.2-0.1L24.6,24.8C24.7,24.8,24.7,24.8,24.6,24.8"></path>
	<path class="st0" d="M26.8,26.4c0.1,0,0.1,0,0.1,0c0.1,0,0.2,0,0.2-0.2c0.1-0.2,0-0.5-0.1-0.8l-0.6-1.2c0-0.1-0.1-0.1-0.1-0.1   s0,0-0.1,0.1c0,0.2,0,0.4,0.1,0.6c0.1,0.1,0.2,0.3,0.3,0.5l0.1,0.2c0.1,0.2,0.1,0.3,0,0.4c0,0.1-0.1,0.1-0.2,0.1s-0.1,0-0.2-0.1   L25.9,25c-0.1-0.3-0.3-0.4-0.5-0.5c-0.1,0-0.1,0-0.1,0l0,0c0,0,0,0,0,0.1c0.2,0.2,0.3,0.4,0.4,0.6l0,0C26,25.7,26.3,26.1,26.8,26.4   "></path>
	<path class="st0" d="M26,24.7L26,24.7l0.4,0.8l0,0c0,0,0.1,0,0.1-0.1v-0.1L26,24.7L26,24.7L26,24.7z"></path>
	<path class="st0" d="M25.4,25.5L25.4,25.5c0.1,0,0.1,0,0.1-0.1v-0.1l-0.3-0.5l0,0l0,0v0.1L25.4,25.5z"></path>
	<path class="st0" d="M27.8,25.8c0.1,0,0.1,0,0.2,0h0.1v-0.1c-0.1-0.6-0.2-1-0.3-1.4c-0.1-0.1-0.1-0.3-0.1-0.4v-0.1h-0.1   c-0.1,0.1-0.1,0.3,0,0.5l0.3,0.7c0,0.1,0,0.2,0,0.3l0,0l0,0l0,0c-0.1,0-0.1,0-0.2-0.1c-0.1-0.2-0.2-0.4-0.2-0.7   c-0.1-0.3-0.2-0.3-0.2-0.4l0,0l0,0l0,0C27.1,24.8,27.3,25.5,27.8,25.8"></path>
	<path class="st0" d="M26.6,20.3c0,0-0.1,0-0.1,0.1s-0.1,0.2,0,0.2c0.4,0.8,0.6,1.5,0.5,2.3c0,0.3-0.2,0.3-0.2,0.3   c-0.1,0-0.2,0-0.2-0.1c-0.2-0.3-0.3-0.7-0.5-1.1l0,0c-0.1-0.3-0.3-0.6-0.4-0.9l0,0c0,0,0,0-0.1,0.1c0,0.1,0,0.3,0.1,0.5   s0.2,0.5,0.3,0.7l0,0c0.2,0.5,0.5,1,0.7,1.2c0.1,0.1,0.1,0.1,0.2,0.1s0.2-0.1,0.2-0.2C27.5,23,27.1,21.1,26.6,20.3   C26.7,20.3,26.6,20.3,26.6,20.3"></path>
	<path class="st0" d="M26.6,22.5c0,0,0.1,0,0.1-0.1c0-0.7-0.3-1.3-0.7-1.7h-0.1h-0.1v0.1C26.2,21.4,26.4,21.9,26.6,22.5L26.6,22.5"></path>
	<path class="st0" d="M25.6,24.3c0.1,0,0.1,0,0.2,0s0.2,0,0.3-0.3c0-0.7-0.2-1.6-0.8-2.5l-0.1-0.1c-0.1,0-0.1,0-0.2,0.1v0.1   c0.1,0.3,0.2,0.6,0.3,0.8l0,0c0.2,0.3,0.3,0.6,0.4,1c0,0.1,0,0.2,0,0.3l-0.1,0.1c-0.1,0-0.1,0-0.2-0.1c-0.3-0.3-0.6-0.8-0.8-1.1   v-0.1c-0.1-0.2-0.3-0.5-0.4-0.6s-0.1-0.1-0.2-0.1h-0.1c0,0.1,0,0.1,0,0.2C24.4,22.9,24.9,23.6,25.6,24.3"></path>
	<path class="st0" d="M24.2,21.4L24.2,21.4L24.2,21.4c0.4,0.6,0.8,1.1,1.1,1.8h0.1l0,0v-0.1C25.1,22.3,24.7,21.7,24.2,21.4   L24.2,21.4z"></path>
	<path class="st0" d="M24.5,24.5c0.2,0,0.3-0.1,0.3-0.4c0-0.7-0.6-1.4-1.2-2c-0.1,0-0.1-0.1-0.1-0.1l0,0l0,0   c0.4,0.5,0.7,0.9,1.1,1.5c0.1,0.1,0.1,0.3,0,0.4c0,0.1-0.1,0.1-0.2,0.1s-0.2,0-0.2-0.1c-0.6-0.8-1.2-1.5-1.7-2h-0.1h-0.1V22   c0.6,0.6,1.2,1.3,1.8,2.2C24.2,24.4,24.4,24.5,24.5,24.5"></path>
	<path class="st0" d="M22.7,21.7L22.7,21.7c-0.1,0.1-0.1,0.1,0,0.2l1.4,1.7h0.1l0,0c0,0,0,0,0-0.1L22.7,21.7L22.7,21.7z"></path>
	<path class="st0" d="M28.2,8.8C28.5,9,28.9,9.2,29,9.2h0.1c0.1-0.1,0.1-0.2,0.1-0.3s-0.1-0.2-0.3-0.3l0,0c0,0.1,0,0.2-0.1,0.2   c0,0-0.1,0.1-0.2,0.1s-0.3-0.1-0.3-0.2c0-0.2-0.1-0.3-0.3-0.4l0,0l0,0c0,0.1,0.1,0.2,0.1,0.4C28.2,8.7,28.2,8.7,28.2,8.8"></path>
	<path class="st0" d="M26.5,9.8c-0.1,0-0.1,0-0.2,0l0,0c0,0,0,0,0,0.1c0.2,0.1,0.4,0.2,0.6,0.2c0.1,0,0.2,0,0.3-0.1   c0.1-0.1,0-0.3-0.1-0.6V9.3l0,0l0,0c0,0,0-0.1-0.2-0.3l0,0c0,0.1-0.1,0.1-0.2,0.1s-0.1,0-0.2,0s-0.2,0-0.3,0l0,0l0.1,0.1   c0.5,0,0.7,0.2,0.7,0.3C26.8,9.7,26.7,9.8,26.5,9.8"></path>
	<path class="st0" d="M26.7,10.6c0.4,0.1,0.5,0.4,0.5,0.6c0,0.2-0.1,0.3-0.3,0.3c-0.1,0-0.2,0-0.3-0.1c0,0,0,0.1,0,0.2   c0.2,0.3,0.5,0.5,0.7,0.5c0.1,0,0.2,0,0.2-0.1c0.1-0.1,0.1-0.2,0-0.4c-0.2-0.4-0.2-0.8-0.2-1c0-0.1,0-0.1,0-0.1s-0.1,0-0.1,0.1   c-0.1,0-0.2,0.1-0.2,0.1C26.9,10.7,26.7,10.6,26.7,10.6h-0.2v0.1L26.7,10.6z"></path>
	<path class="st0" d="M25.3,16.6c0,0,0,0.1,0,0.2c0.2,0.3,0.5,0.7,0.7,1.1V18c0.2,0.3,0.3,0.6,0.5,0.7c0.1,0.1,0.1,0.1,0.1,0.1   c0.1,0,0.1-0.1,0.1-0.2c0-0.7-0.4-1.6-1.2-2.7l0,0c0,0.1,0,0.1,0,0.2c0.3,0.5,0.6,0.9,0.8,1.5c0,0.1,0,0.1,0,0.2l0,0l0,0l0,0   c-0.1,0-0.1,0-0.2-0.1C25.9,17.3,25.7,16.9,25.3,16.6L25.3,16.6L25.3,16.6z"></path>
	<path class="st0" d="M24.6,18L24.6,18c-0.1,0.1-0.1,0.2-0.1,0.3c0.3,0.6,0.6,1.2,0.9,1.8c0.1,0.2,0.3,0.3,0.4,0.3s0.3-0.1,0.4-0.2   c0.2-0.3,0.2-0.7,0-1.1c-0.2-0.5-0.6-1.2-1.2-2h-0.1h-0.1c0,0.1,0,0.1,0,0.2c0.5,0.7,0.8,1.3,1.1,2c0.1,0.2,0.1,0.4,0,0.5   s-0.1,0.1-0.2,0.1s-0.2-0.1-0.3-0.2C25.2,19.2,25,18.6,24.6,18C24.7,18,24.7,18,24.6,18"></path>
	<path class="st0" d="M25.7,19.3c0,0,0.1,0,0.1-0.1s0-0.1,0-0.2L25,17.6c0-0.1,0-0.1-0.1-0.1l0,0c-0.1,0.1-0.1,0.2,0,0.3L25.7,19.3   L25.7,19.3"></path>
	<path class="st0" d="M24.8,21.3c0.2,0,0.4-0.1,0.5-0.3c0.1-0.2,0.1-0.5-0.1-0.8c-0.4-0.7-0.7-1.3-0.8-1.8c0-0.1-0.1-0.1-0.2-0.1   c0,0-0.1,0-0.1,0.1v0.1c0.2,0.5,0.5,1.1,0.9,1.8c0.1,0.2,0.1,0.4,0,0.5s-0.1,0.1-0.2,0.1s-0.2-0.1-0.3-0.2c-0.2-0.3-0.5-0.7-0.7-1   l-0.1-0.1c-0.1-0.2-0.3-0.5-0.4-0.7l-0.1-0.1c-0.1,0-0.1,0-0.1,0.1s0,0.1,0,0.2l1.2,1.8C24.4,21.2,24.6,21.3,24.8,21.3"></path>
	<path class="st0" d="M23.6,18.7l0.9,1.6c0,0.1,0.1,0.1,0.2,0.1l0,0c0,0,0-0.1,0-0.3l-0.9-1.7c0,0,0,0-0.1,0l0,0v0.1   c0,0.1,0,0.1,0,0.1C23.5,18.6,23.5,18.6,23.6,18.7"></path>
	<path class="st0" d="M23.8,21.7c0.1-0.1,0.1-0.3,0-0.5c-0.2-0.7-0.6-1.3-1-1.9l-0.1-0.1c0-0.1-0.1-0.1-0.2-0.1s-0.1,0-0.1,0   s0,0,0,0.1c0.4,0.6,0.8,1.2,1.1,1.8c0.1,0.1,0.1,0.2,0,0.3c0,0.1-0.1,0.1-0.2,0.1c0,0-0.1,0-0.2-0.1c-0.6-0.6-1.1-1.2-1.6-2   c0,0-0.1-0.1-0.1,0c0,0-0.1,0-0.1,0.1c0,0,0,0.1,0,0.2c0.4,0.7,1,1.4,1.6,2.1c0.1,0.1,0.3,0.2,0.5,0.2   C23.5,21.8,23.7,21.8,23.8,21.7"></path>
	<path class="st0" d="M21.7,19.1c0.2,0.6,0.6,1.2,1.2,1.8H23l0,0v-0.1c-0.4-0.6-0.8-1.2-1.2-1.7L21.7,19.1   C21.7,19,21.7,19,21.7,19.1"></path>
	<path class="st0" d="M22.2,21.7c0.1,0,0.1,0,0.1,0s0-0.1,0-0.2c-0.3-0.6-0.8-1.2-1.5-2c0-0.1-0.1-0.1-0.1-0.1l0,0c0,0,0,0,0,0.1   c0.3,0.4,0.7,0.9,1,1.3c0,0.1,0.1,0.1,0,0.2l0,0l0,0l0,0l0,0c0,0-0.1,0-0.1-0.1c-0.5-0.6-1-1.2-1.5-1.9L20,18.9   c-0.1,0-0.1,0-0.1,0.1v0.1l0.1,0.1C20.4,20.3,21.2,21.4,22.2,21.7L22.2,21.7z"></path>
	<path class="st0" d="M24.2,14.6c0,0.1-0.1,0.1-0.1,0.2c0,0.2,0,0.3,0,0.3l0,0c0,0,0,0,0.1,0c0.3-0.3,0.4-0.6,0.4-0.9l-0.1-1.4   c0-0.1-0.1-0.1-0.1-0.1h-0.1c0,0-0.1,0.1,0,0.2v0.3c0,0.2,0,0.3,0,0.5s0,0.3,0,0.5C24.4,14.4,24.3,14.5,24.2,14.6L24.2,14.6z"></path>
	<path class="st0" d="M23.1,13.3C23.1,13.3,23,13.3,23.1,13.3c-0.3,0.6-0.4,1.2-0.3,1.9c0.1,0.2,0.2,0.4,0.4,0.4   c0.3,0,0.6-0.2,0.7-0.6c0.2-0.7,0.1-1.4,0.1-1.9c0-0.1,0-0.2-0.1-0.2h-0.1c0,0-0.1,0.1,0,0.1c0,0.6,0,1.3-0.1,1.8   c-0.1,0.2-0.3,0.4-0.4,0.4s-0.2,0-0.2-0.3c0-0.6,0.1-1.1,0.1-1.5C23.2,13.3,23.2,13.3,23.1,13.3"></path>
	<path class="st0" d="M23.5,14.6c0.1-0.4,0.1-0.9,0.1-1.5c0-0.1,0-0.1-0.1-0.1c0,0-0.1,0-0.1,0.1l-0.1,1.5   C23.3,14.7,23.4,14.7,23.5,14.6C23.4,14.7,23.4,14.7,23.5,14.6"></path>
	<path class="st0" d="M21.5,15.5c-0.1,0-0.2,0-0.2-0.1c-0.1-0.1,0-0.2,0-0.4l0.3-1.1v-0.1h-0.1c0,0-0.1,0-0.1,0.1   c-0.1,0.3-0.2,0.5-0.3,0.8c-0.1,0.2-0.1,0.4-0.2,0.6c0,0.1-0.1,0.2,0,0.3s0.3,0.2,0.6,0.2l0,0c0.6-0.1,0.9-0.3,0.9-0.6l0.2-1.5   c0-0.1,0-0.1-0.1-0.1h-0.1c0,0-0.1,0-0.1,0.2l-0.2,1.1C22.1,15.2,21.9,15.5,21.5,15.5"></path>
	<path class="st0" d="M22,13.5c0,0-0.1,0-0.1,0.1c0,0.4-0.1,0.8-0.2,1.2v0.1l0,0c0.1,0,0.1-0.1,0.1-0.2C22,14.5,22,14,22,13.5   C22.1,13.5,22,13.5,22,13.5"></path>
	<path class="st0" d="M19.8,15.5c0.1,0.1,0.2,0.1,0.3,0.1c0.2,0,0.4-0.1,0.5-0.3l0.4-1.2c0-0.1,0-0.1,0-0.2c0,0,0,0,0,0.1   c-0.2,0.5-0.4,0.9-0.6,1.2c-0.1,0.1-0.2,0.2-0.3,0.2c-0.1,0-0.2,0-0.2-0.1s0-0.2,0-0.3c0.2-0.4,0.3-0.7,0.5-1.1c0-0.1,0-0.1,0-0.1   s-0.1,0-0.1,0.1c-0.2,0.4-0.4,0.8-0.6,1.2c-0.1,0.2-0.1,0.3-0.1,0.4C19.7,15.4,19.7,15.5,19.8,15.5"></path>
	<path class="st0" d="M20.6,13.9c-0.1,0.3-0.2,0.6-0.4,1V15l0,0c0,0,0.1,0,0.1-0.1c0.2-0.4,0.4-0.7,0.4-1   C20.8,13.9,20.7,13.9,20.6,13.9C20.7,13.8,20.6,13.9,20.6,13.9"></path>
	<path class="st0" d="M19.9,13.9L19.9,13.9c-0.2,0.3-0.3,0.6-0.5,0.8v0.1l0,0h0.1C19.7,14.6,19.9,14.3,19.9,13.9   C20,13.9,20,13.9,19.9,13.9"></path>
	<path class="st0" d="M18.8,15c0.1,0.1,0.2,0.2,0.4,0.3c0.1,0,0.1,0,0.1-0.1v-0.1L19.2,15l-0.1-0.1c0-0.1,0-0.2,0.1-0.2   c0.2-0.2,0.3-0.4,0.4-0.6c0-0.1,0.1-0.1,0-0.2l0,0c0,0-0.1,0-0.1,0.1c-0.2,0.3-0.4,0.6-0.6,0.8C18.8,14.9,18.8,14.9,18.8,15"></path>
	<path class="st0" d="M18.7,15.5c-0.4,0.6-0.5,1-0.4,1.5c0.1,0.3,0.2,0.5,0.3,0.7c0.1,0.1,0.1,0.3,0.2,0.4s0.1,0.4,0.1,0.7   c0,0,0,0.1,0.2,0.1c0.1,0,0.1,0,0.2,0c0.2-0.1,0.3-0.2,0.4-0.3c0-0.1,0-0.2,0-0.3c-0.5-1.1-0.5-1.8-0.1-2.4c0-0.1,0-0.1,0-0.2   l-0.1-0.1c0,0-0.1,0-0.1,0.1c-0.3,0.3-0.3,0.5-0.4,1c0,0.2,0.1,0.5,0.2,0.8c0.1,0.2,0.1,0.4,0.2,0.6c0,0.1,0,0.1,0,0.2l-0.1,0.1   c0,0-0.1,0-0.2-0.2s-0.1-0.4-0.2-0.5l0,0c-0.1-0.3-0.2-0.5-0.2-0.8c0-0.5,0.1-0.7,0.3-1.1l0,0c0-0.1,0-0.1,0-0.2l-0.1-0.1   C18.8,15.4,18.8,15.5,18.7,15.5"></path>
	<path class="st0" d="M19.7,17.6c0.1,0.5,0.3,0.9,0.7,1.4c0.1,0.1,0.3,0.2,0.5,0.2c0.3,0,0.5-0.2,0.6-0.4c0-0.1,0-0.3-0.1-0.4   c0-0.1,0-0.1-0.1-0.2c-0.2-0.6-0.2-1.2,0-1.9v-0.1h-0.1c-0.1,0-0.1,0-0.2,0.1c-0.2,0.6-0.2,1.3,0,2.1c0,0.1,0,0.3-0.1,0.3   c-0.1,0.1-0.1,0.1-0.2,0.1s-0.2,0-0.3-0.2c-0.6-1-0.7-1.8-0.3-2.5c0-0.1,0-0.1,0-0.2L20,15.8c-0.1,0-0.1,0-0.2,0.1   C19.6,16.5,19.6,17,19.7,17.6"></path>
	<path class="st0" d="M20.8,15.9C20.7,15.9,20.7,15.9,20.8,15.9c-0.2,0-0.2,0-0.2,0.1c-0.3,0.7-0.3,1.4,0.1,2.2h0.1l0,0   c0,0,0-0.1,0-0.2c-0.2-1-0.2-1.6,0-2V15.9"></path>
	<path class="st0" d="M21.9,16.1C21.9,16.1,21.8,16.1,21.9,16.1c-0.1,0-0.2,0-0.2,0.1c-0.2,0.6-0.2,1.2,0,2c0.1,0.4,0.5,0.6,0.8,0.6   s0.6-0.2,0.7-0.6C23,17.3,23,16.6,23,16v-0.1l-0.1-0.1c0,0-0.1,0-0.1,0.1c-0.1,0.5-0.1,1-0.1,1.7v0.1c0,0.2,0.1,0.3,0,0.5   c-0.1,0.1-0.1,0.1-0.2,0.1s-0.2-0.1-0.4-0.2c-0.2-0.5-0.3-1.1-0.1-1.9C21.9,16.2,21.9,16.1,21.9,16.1"></path>
	<path class="st0" d="M22.4,15.9L22.4,15.9c-0.1,0-0.1,0-0.1,0.1c-0.1,0.6-0.1,1.2-0.1,1.7c0,0.1,0.1,0.1,0.1,0.1   c0.1,0,0.1,0,0.1-0.2C22.4,17.2,22.4,16.6,22.4,15.9L22.4,15.9z"></path>
	<path class="st0" d="M24,15.4c0,0.1,0,0.2,0,0.3c0.2,0.6,0.3,1,0.2,1.5c0,0.2-0.2,0.3-0.3,0.3c-0.1,0-0.2-0.1-0.3-0.2   c-0.1-0.5-0.2-1-0.1-1.5c0-0.1-0.1-0.1-0.1-0.1h-0.1v0.1c0,0.7,0,1.4,0.3,2c0.1,0.1,0.2,0.2,0.3,0.2c0.2,0,0.5-0.2,0.7-0.6   c0.1-0.5,0-1.2-0.4-2H24L24,15.4z"></path>
	<path class="st0" d="M23.9,17l0.1-0.1c-0.1-0.4-0.1-0.8-0.2-1.2c0-0.1-0.1-0.1-0.1-0.1s-0.1,0-0.1,0.1C23.7,16.2,23.7,16.6,23.9,17   L23.9,17z"></path>
	<path class="st0" d="M24.9,14.7L24.9,14.7c0,0.3,0,0.4,0.1,0.5l0,0c0.1,0.1,0.1,0.3,0.1,0.5c0,0.1-0.1,0.1-0.2,0.2h-0.1   c-0.1,0-0.2-0.3-0.3-0.4c0-0.1,0.1-0.1,0.1-0.1c0,0.1,0.1,0.1,0.1,0.1c0.1,0-0.1-0.4-0.1-0.4h-0.1c0,0-0.1,0-0.2,0.1   c-0.1,0-0.1,0.1-0.1,0.2c0.1,0.4,0.2,0.7,0.5,1h0.1c0.1,0,0.1,0,0.2-0.1C25.4,15.8,25.3,15.2,24.9,14.7L24.9,14.7"></path>
	<path class="st0" d="M25.5,14.5L25.5,14.5c-0.1,0-0.1,0-0.1,0s0,0,0,0.1s0.1,0.1,0.2,0.2c0.1,0.2,0.3,0.4,0.1,0.6   c-0.1,0-0.1,0.1,0,0.1c0,0.1,0.1,0.1,0.2,0.1c0,0,0.1,0,0.2-0.1l0.3-0.3v-0.1l0,0c-0.2,0-0.3-0.2-0.4-0.3   C25.7,14.6,25.6,14.5,25.5,14.5"></path>
	<path class="st0" d="M26.3,14.4h-0.1l-0.3-0.3h-0.1c0,0-0.1,0-0.1,0.1v0.1c0.1,0.2,0.3,0.4,0.5,0.5c0.1,0,0.1,0.1,0.2,0.1   c0,0,0.1,0,0.1-0.1c0.1-0.1,0.2-0.2,0.3-0.3c0.1-0.1,0.3-0.3,0.4-0.5c0-0.1,0-0.1,0-0.1s0,0-0.1,0c-0.3,0-0.5-0.2-0.7-0.4h-0.1   c0,0-0.1,0-0.1,0.1v0.1l0.3,0.3c0,0.1,0.1,0.2,0,0.2C26.5,14.4,26.4,14.4,26.3,14.4"></path>
	<path class="st0" d="M27,13.1c-0.1,0-0.1,0-0.2-0.1c0,0,0,0-0.1,0c0,0,0,0-0.1,0c-0.2,0.1-0.1,0.2-0.1,0.3c0.2,0.2,0.4,0.3,0.5,0.3   s0.2-0.1,0.3-0.2c0.1-0.2,0.2-0.5,0.2-0.8c0-0.1,0-0.1,0-0.1s-0.1,0-0.1-0.1l0,0h-0.1c-0.2-0.1-0.4-0.2-0.6-0.4l0,0   c0,0.1,0,0.2,0,0.3l0.3,0.3c0.1,0.1,0.1,0.3,0.1,0.4C27.2,13.1,27.1,13.1,27,13.1"></path>
	<path class="st0" d="M33.2,28.3c0-0.1,0-0.2,0-0.3c0-0.1-0.1-0.1-0.2-0.1c-0.2,0-0.4-0.1-0.4-0.4v-0.1l0,0h-0.1   c-0.3,0.1-0.3,0.2-0.4,0.4c0,0.1-0.1,0.1-0.1,0.2c-0.1,0-0.3,0-0.4,0s-0.2-0.1-0.3-0.3c0-0.1,0-0.1,0-0.1s0,0-0.1,0.1   s-0.1,0.2-0.1,0.4c0,0.2,0,0.4-0.1,0.7c-0.3,0.5-0.6,0.7-1,0.7c-0.1,0-0.2,0-0.3,0h-0.1c-0.1,0-0.1,0.1-0.1,0.1c0,0.1,0,0.1,0,0.1   c0.2,0.1,0.3,0.1,0.5,0.1c0.4,0,0.7-0.2,0.9-0.5c0.4-0.6,0.9-1.3,1.5-1.3c0.1,0,0.2,0,0.4,0.1l0,0c0.1,0.1,0.2,0.2,0.2,0.2   C33.1,28.3,33.2,28.3,33.2,28.3"></path>
	<path class="st0" d="M34.6,30c-0.2,0-0.3,0-0.3-0.1c-0.1-0.1,0-0.2,0-0.4l0,0h-0.1c-0.3,0-0.4,0.2-0.4,0.3c0,0.1,0,0.3-0.2,0.3   c-0.8,0.4-1.4,0.5-2.1,0.5c-0.6,0-1.1-0.1-1.6-0.3c-0.3-0.1-0.6-0.2-0.8-0.2c-0.2,0-0.3,0.1-0.3,0.1s0,0.1,0.1,0.1l0.6,0.2   c0.1,0,0.3,0.1,0.4,0.3c0.1,0.3,0.2,0.4,0.4,0.4h0.1l0,0l0,0l0,0l0,0c0-0.1-0.1-0.2,0-0.3c0-0.1,0.1-0.1,0.1-0.1h0.1   c0.4,0.1,0.7,0.1,1.1,0.1c0.2,0,0.5,0,0.7-0.1h0.1c0.1,0,0.1,0,0.2,0.1c0.2,0.2,0.4,0.2,0.6,0.2c0.1,0,0.2,0,0.3-0.1l0,0   c-0.1,0-0.2-0.1-0.3-0.3c0-0.1,0-0.2,0.1-0.2c0.2,0,0.4-0.1,0.6-0.3c0.1-0.1,0.1-0.1,0.2-0.1l0,0c0.4,0,0.5-0.1,0.5-0.2l0,0v-0.1   h-0.1C34.6,30,34.6,30,34.6,30"></path>
	<path class="st0" d="M34.7,28.5c-0.2,0.2-0.4,0.4-0.7,0.4c-0.1,0-0.2,0-0.3-0.1s-0.1-0.1-0.1-0.2s0.1-0.3,0.4-0.5   c0.1-0.1,0.3-0.2,0.4-0.2c0.1,0,0.3,0.1,0.4,0.2C34.7,28.2,34.7,28.3,34.7,28.5 M34.2,27.7c-0.2,0-0.3,0.1-0.4,0.2   c-0.6,0.5-0.7,0.9-0.4,1.3c0.2,0.1,0.4,0.2,0.6,0.2c0.3,0,0.6-0.2,1-0.5c0.1-0.2,0.2-0.5,0-0.7C34.8,27.8,34.5,27.7,34.2,27.7"></path>
	<path class="st0" d="M36,28.3c0-0.1-0.1-0.1-0.1-0.1h-0.1c-0.1,0-0.3,0.1-0.4,0.1c-0.1,0-0.1,0.1-0.1,0.1c0,0.1,0,0.1,0.1,0.1   c0.2,0.1,0.4,0.1,0.5,0.1l0,0H36v-0.1C36,28.5,36,28.4,36,28.3"></path>
	<path class="st0" d="M35.8,27.7c-0.1-0.1-0.2-0.2-0.2-0.3l-0.1-0.1c0,0-0.1,0-0.1,0.1c-0.1,0.1-0.2,0.2-0.3,0.3c0,0.1,0,0.2,0,0.2   s0.1,0.1,0.2,0.1c0.2,0,0.3-0.1,0.5-0.2C35.8,27.7,35.8,27.7,35.8,27.7"></path>
	<path class="st0" d="M35,26.9c-0.1-0.1-0.1-0.1-0.1-0.1s0,0-0.1,0.1s-0.1,0.2-0.1,0.3c0,0.1,0,0.2,0,0.2h0.1h0.1   c0.1,0,0.2-0.1,0.3-0.2v-0.1c0,0,0-0.1-0.1-0.1C35.1,27,35,27,35,26.9"></path>
	<path class="st0" d="M36.4,26.7c-0.1,0-0.2,0.1-0.2,0.2c0,0.2-0.1,0.3-0.3,0.4c-0.1,0,0,0.1,0,0.1c0,0.1,0.1,0.2,0.2,0.2h0.1   c0.1-0.1,0.2-0.2,0.4-0.2c0,0,0.1,0,0.2,0c0.1,0,0.1,0,0.2-0.1c0-0.1,0-0.3-0.1-0.4C36.6,26.7,36.5,26.7,36.4,26.7"></path>
	<path class="st0" d="M20.9,29.7c0,0.1-0.1,0.2-0.2,0.2h0.1c0.1,0,0.1,0,0.2,0c0.2,0,0.3-0.1,0.4-0.2s0.3-0.2,0.5-0.2   c0.1,0,0.2,0,0.4,0.1c0.2,0.1,0.2,0.1,0.2,0.2s0,0.1-0.1,0.2l0,0l0,0h0.1c0.2,0,0.4-0.1,0.5-0.4c0.1-0.2,0.2-0.2,0.5-0.3   c0.1-0.1,0.1-0.2,0.2-0.4c0-0.1,0-0.1-0.1-0.1c0,0,0,0-0.1,0c-0.4,0.2-0.9,0.4-1.4,0.4c-0.8,0-1.7-0.3-2.8-0.7   C19,28.4,19,28.1,19,27.9l0.4-1.1c0.2-0.3,0.4-0.5,0.8-0.5c0.6,0,1.4,0.3,2.5,1.1h0.1l0,0c0-0.1,0-0.2,0-0.3l-0.4-0.3   c-0.1-0.1-0.2-0.2-0.2-0.4c0-0.4-0.2-0.5-0.3-0.5l0,0c0,0,0,0,0,0.1v0.3c0,0.1-0.1,0.1-0.2,0.1h-0.1c-0.6-0.1-0.8-0.3-1-0.6   c-0.1-0.2-0.2-0.3-0.5-0.3H20l0,0l0.1,0.1c0.1,0.1,0.1,0.2,0.1,0.2c0,0.1-0.1,0.1-0.2,0.2c-0.1,0-0.2,0-0.2,0c-0.1,0-0.1,0-0.2,0   s-0.2,0-0.3-0.1l0,0c-0.1-0.1-0.2-0.1-0.3-0.1c-0.1,0-0.1,0-0.2,0l0,0l0,0c0.2,0.2,0.3,0.4,0.2,0.7L18.4,28c0,0.3-0.1,0.6,0.3,0.9   c0.3,0.1,0.5,0.2,0.5,0.4c0,0.1-0.1,0.2-0.2,0.3l0,0c0.1,0,0.2,0.1,0.3,0.1c0.1,0,0.2-0.1,0.4-0.2c0.1-0.1,0.2-0.1,0.3-0.1   c0.1,0,0.1,0,0.2,0C20.6,29.4,20.8,29.6,20.9,29.7"></path>
	<path class="st0" d="M18.4,26.9C18.5,26.9,18.5,26.9,18.4,26.9c0.1-0.1,0.1-0.1,0.1-0.2c-0.2-0.3-0.4-0.5-0.6-0.6h-0.1   c0,0-0.1,0-0.1,0.1v0.1C18,26.4,18.2,26.6,18.4,26.9L18.4,26.9z"></path>
	<path class="st0" d="M14.2,26.9c0,0.3,0,0.6-0.3,0.7l0,0l0,0c0.1,0.1,0.2,0.1,0.4,0.1c0.1,0,0.2,0,0.3-0.1l0.1-0.1h0.1l0.9,0.4   c0.1,0.1,0.2,0.1,0.2,0.2s0,0.1-0.2,0.2c0.1,0,0.2,0.1,0.3,0.1s0.3-0.1,0.4-0.1c0,0,0.1-0.1,0.2-0.1h0.1c0.1,0,0.3,0,0.4,0   c0.4,0,0.8-0.1,1.1-0.1c0.1-0.1,0.1-0.2,0.1-0.3l-0.1-0.1h-0.1c-0.3,0.1-0.7,0.2-1,0.2c-0.7,0-1.4-0.2-2.2-0.7   c-0.2-0.1-0.2-0.2-0.2-0.6c0.1-0.5,0.3-0.8,0.5-1.1c0-0.1,0.1-0.1,0.2-0.1l0,0c0.1,0,0.2,0,0.2,0c0.3,0,0.3-0.1,0.3-0.2l0,0l0,0   h-0.1c-0.2,0-0.4-0.1-0.5-0.2s-0.2-0.2-0.3-0.2l0,0c0,0,0,0.1,0,0.2s0,0.2-0.1,0.3C14.5,25.7,14.2,26.2,14.2,26.9"></path>
	<path class="st0" d="M16.5,26.2L16.5,26.2c-0.1-0.4-0.1-0.6,0-0.9c0.1-0.1,0.2-0.1,0.3-0.1c0.1,0,0.2,0.1,0.3,0.1   c0.1,0.1,0.1,0.3,0.1,0.5c-0.1,0.3-0.2,0.5-0.4,0.5C16.7,26.3,16.6,26.3,16.5,26.2 M17.5,25.9c0.1-0.3,0-0.6-0.1-0.8   c-0.1-0.2-0.4-0.3-0.6-0.3s-0.3,0.1-0.4,0.2s-0.2,0.4-0.2,0.7c0,0.3,0.2,0.7,0.4,0.8c0.1,0,0.2,0,0.3,0   C17.1,26.6,17.3,26.4,17.5,25.9"></path>
	<path class="st0" d="M17.8,25c0.1,0,0.3-0.1,0.4-0.2c0-0.1,0-0.2-0.1-0.2l-0.2-0.2h-0.1c0,0-0.1,0-0.1,0.1   c-0.1,0.1-0.1,0.2-0.1,0.3C17.6,24.9,17.6,25,17.8,25L17.8,25z"></path>
	<path class="st0" d="M17.4,24.2l-0.3-0.1H17h-0.1c0,0,0,0,0,0.1v0.3c0,0.1,0.1,0.1,0.1,0.1s0.1,0,0.2-0.1S17.3,24.4,17.4,24.2   c0,0,0,0,0-0.1C17.5,24.2,17.5,24.2,17.4,24.2"></path>
	<path class="st0" d="M16.6,24.1c-0.1,0-0.2,0-0.3,0h-0.1c0,0,0,0.1,0,0.2s0.2,0.3,0.3,0.3c0,0,0.1,0,0.1-0.1s0-0.1,0-0.2V24.1   C16.8,24.2,16.8,24.1,16.6,24.1L16.6,24.1z"></path>
	<path class="st0" d="M13,26.4L13,26.4c0.4,0.1,0.5,0.1,0.7,0.1c0.1,0,0.1,0,0.2,0c0.1,0,0.1-0.1,0.1-0.1c0-0.1-0.1-0.1-0.1-0.1   c-1.1-0.2-1.9-0.7-2.4-1.6c-0.1-0.2-0.1-0.4,0-0.7c0.2-0.3,0.5-0.5,0.9-0.7c0.1-0.1,0.2-0.1,0.3-0.1s0.3,0,0.4,0.1   c0.7,0.6,1,1.3,1.2,1.9c0,0.1,0.1,0.2,0.1,0.2c0.1,0,0.1-0.1,0.1-0.2l-0.1-0.4c0-0.2,0-0.2,0-0.3c0.3-0.3,0.3-0.6,0-0.8l0,0   c-0.1,0.2-0.2,0.3-0.3,0.3s-0.2-0.1-0.2-0.2c-0.3-0.4-0.5-0.7-0.8-0.9c-0.1-0.1-0.2-0.2-0.2-0.3c-0.1-0.4-0.2-0.4-0.4-0.5l0,0l0,0   c0.1,0.3,0,0.5-0.4,0.6c-0.6,0.2-1,0.6-1.2,1.1C10.8,24,10.7,24,10.7,24c-0.1,0-0.2,0-0.3-0.1V24c0,0.3,0.1,0.4,0.3,0.5   c0.1,0,0.2,0.1,0.3,0.2c0.1,0.2,0.2,0.3,0.3,0.4s0.1,0.1,0.1,0.2s-0.1,0.1-0.3,0.1l0,0c0.1,0.1,0.3,0.2,0.5,0.2h0.1   c0.1,0,0.1,0,0.2,0.1l0.4,0.2c0.1,0.1,0.1,0.1,0.1,0.2s-0.1,0.2-0.2,0.2l0,0l0,0c0.1,0.1,0.2,0.1,0.3,0.1s0.2-0.1,0.3-0.2   C12.9,26.4,12.9,26.4,13,26.4"></path>
	<path class="st0" d="M11,21.7c0.1,0,0.3,0,0.4,0.4c0.1,0.3,0.1,0.5,0.1,0.6s-0.1,0.1-0.2,0.1h-0.1l0,0c-0.3-0.1-0.5-0.4-0.5-0.7   C10.7,21.9,10.8,21.7,11,21.7 M10.5,21.8c-0.1,0.2-0.1,0.4,0.1,0.7c0.2,0.3,0.4,0.5,0.8,0.6h0.1c0.2,0,0.3-0.1,0.4-0.3   c0.1-0.3,0.1-0.7-0.1-1c-0.2-0.3-0.4-0.4-0.7-0.4C10.8,21.4,10.6,21.6,10.5,21.8"></path>
	<path class="st0" d="M11.1,21.2c0.1,0,0.1,0,0.2-0.1c0-0.1,0.1-0.2,0.1-0.3c0-0.1,0-0.1-0.1-0.2c-0.1,0-0.1,0-0.2,0   c0,0-0.1,0-0.2,0c-0.1,0-0.1,0.1-0.1,0.2C10.9,21.1,11,21.2,11.1,21.2"></path>
	<path class="st0" d="M10.7,21.3c0.1-0.1,0.1-0.2,0-0.5v-0.1h-0.1c-0.1,0-0.3,0.1-0.3,0.2V21C10.4,21.3,10.5,21.3,10.7,21.3   C10.6,21.3,10.6,21.3,10.7,21.3"></path>
	<path class="st0" d="M10,21.1c-0.1,0-0.3,0.2-0.3,0.3c0,0.1,0,0.1,0,0.1c0.1,0.1,0.3,0.2,0.4,0.2c0.1,0,0.1,0,0.1-0.1   C10.3,21.5,10.2,21.3,10,21.1L10,21.1z"></path>
	<path class="st0" d="M9.9,20.2c0.1,0,0.2,0.1,0.2,0.2s0.1,0.1,0.1,0.1c0.1,0,0.1,0,0.1-0.1s0-0.1,0-0.2s0-0.2,0-0.2   c0-0.1,0-0.2-0.1-0.3c-0.1-0.1-0.1-0.1-0.2-0.1c-0.2,0-0.4,0.1-0.4,0.2C9.6,20.1,9.8,20.2,9.9,20.2"></path>
	<path class="st0" d="M17.8,29.5c-0.1,0-0.1,0.1-0.2,0.1s-0.2-0.1-0.3-0.2c-0.1-0.1,0-0.3,0.1-0.4c0.1,0,0.1-0.1,0.2-0.1   s0.2,0.1,0.3,0.2C18,29.2,17.9,29.4,17.8,29.5 M18.2,29.5c0.1-0.2,0-0.4-0.1-0.6c-0.1-0.1-0.3-0.2-0.4-0.2c-0.2,0-0.4,0.1-0.5,0.3   c-0.1,0.2-0.1,0.4,0.1,0.7c0.1,0.2,0.3,0.2,0.5,0.2C17.9,29.9,18.1,29.7,18.2,29.5"></path>
	<path class="st0" d="M15,31.6c-0.1,0-0.1,0.1-0.2,0.1c-0.1,0-0.2-0.1-0.3-0.2s0-0.3,0.1-0.4c0.1,0,0.1-0.1,0.2-0.1   c0.1,0,0.2,0.1,0.3,0.2C15.2,31.3,15.1,31.5,15,31.6 M14.8,30.8c-0.2,0-0.4,0.1-0.5,0.3c-0.1,0.2-0.1,0.4,0.1,0.7   c0.1,0.1,0.3,0.2,0.4,0.2l0,0c0.2,0,0.4-0.2,0.5-0.4c0.1-0.2,0-0.4-0.1-0.6C15.1,30.8,15,30.8,14.8,30.8"></path>
	<path class="st0" d="M30.3,34c-0.1,0-0.1,0.1-0.2,0.1s-0.3-0.1-0.3-0.2c0-0.1-0.1-0.2,0.1-0.4c0.1,0,0.1-0.1,0.2-0.1   s0.3,0.1,0.3,0.2C30.5,33.7,30.4,33.9,30.3,34 M30.1,33.1c-0.2,0-0.4,0.1-0.5,0.3s-0.1,0.5,0.1,0.7c0.1,0.2,0.3,0.2,0.5,0.2   s0.5-0.2,0.6-0.4s0-0.5-0.2-0.7C30.4,33.2,30.2,33.1,30.1,33.1"></path>
	<path class="st0" d="M19.5,31.2c-0.5-0.3-1-0.7-1.2-1.1c0-0.1-0.1-0.1-0.1-0.1h-0.1c0,0.1,0,0.1,0,0.2c0.3,0.5,0.8,1,1.4,1.2   c0.1,0,0.1,0,0.1,0C19.6,31.3,19.6,31.2,19.5,31.2"></path>
	<path class="st0" d="M19.4,33.5c-0.3-0.1-0.9-0.2-1.2-0.2c-0.1,0-0.1,0-0.1,0.1c0,0,0,0.1,0.1,0.1c0.4,0.1,0.9,0.3,1.2,0.4h0.1   c0,0,0,0,0-0.1v-0.3C19.5,33.5,19.5,33.5,19.4,33.5"></path>
	<path class="st0" d="M17.3,32.9c-0.3,0-0.5,0.1-0.8,0.4c0,0.1,0,0.1,0,0.1h0.1c0.1,0,0.2,0,0.2-0.1c0.2-0.2,0.4-0.2,0.6-0.2h0.1   c0.2,0,0.2,0.1,0.2,0.2c0,0.1-0.1,0.2-0.2,0.2h-0.1h-0.1h-0.1c-0.2,0.1-0.3,0.1-0.4,0.2l0,0h-0.1l0,0c0,0,0,0,0,0.1   c0.2,0.1,0.4,0.1,0.6,0.1c0.3,0,0.4-0.1,0.5-0.2c0.1-0.1,0.1-0.3,0-0.5S17.5,32.9,17.3,32.9"></path>
	<path class="st0" d="M12.9,28.3c0,0-0.1,0-0.1,0.1s0.1,0.2,0.4,0.2c0.3,0,0.6,0.1,0.8,0.2c0,0.1,0,0.2,0,0.3s-0.1,0.1-0.2,0.1   c-0.1,0-0.1,0-0.2-0.1c0-0.1,0-0.1-0.2-0.2s-0.4-0.1-0.5-0.1s-0.1,0-0.2,0l0,0l0,0c0,0,0,0,0,0.1c0.5,0.6,0.8,0.7,1,0.7   s0.3-0.1,0.4-0.2c0.1-0.2,0.1-0.4,0-0.5C13.9,28.4,13.5,28.3,12.9,28.3"></path>
	<path class="st0" d="M32.3,31.7c-0.3-0.1-0.7-0.2-0.9-0.2c-0.3,0-0.5,0.1-0.6,0.2s-0.2,0.3-0.2,0.4c0,0.3,0.2,0.5,0.6,0.5   c0.3,0,0.6-0.1,1-0.3l0.1-0.1c0,0,0,0-0.1,0s-0.1,0-0.2,0c-0.1,0-0.3-0.1-0.6-0.1c-0.1,0-0.2,0-0.2,0.1l-0.1,0.1   c-0.1,0-0.2-0.1-0.2-0.2c0,0,0-0.2,0.2-0.2c0.1,0,0.2-0.1,0.3-0.1c0.2,0,0.4,0,0.6,0.1c0.1,0,0.1,0,0.2,0c0.2,0,0.3-0.1,0.3-0.1   C32.4,31.8,32.3,31.7,32.3,31.7"></path>
	<path class="st0" d="M29.1,32.3c0.5,0,0.8-0.1,1.1-0.2l0.1-0.1c0-0.1-0.1-0.1-0.2-0.1H30c-0.4,0.1-0.8,0.2-1.2,0.2   c-0.2,0-0.5,0-0.8,0c-0.1,0-0.2,0.1-0.2,0.1c0,0.1,0.1,0.1,0.2,0.2C28.5,32.3,28.8,32.3,29.1,32.3"></path>
	<path class="st0" d="M29.1,33.2C29,33.1,29,33.1,29,33.1c0-0.1,0.1-0.1,0.2-0.1l1-0.3c0.1,0,0.1-0.1,0.1-0.1s0-0.1-0.2-0.1l0,0   c-1,0.2-1.5,0.4-1.6,0.6c0,0.1,0.1,0.3,0.4,0.5H29c0.1,0,0.1,0,0.2-0.1v-0.1L29.1,33.2z"></path>
	<path class="st0" d="M29,33.8L28,34c0,0,0,0.1,0,0.2c0,0.1,0.1,0.2,0.2,0.1h0.1l0.9-0.2c0.1,0,0.1-0.1,0.1-0.2   C29.2,33.9,29.1,33.8,29,33.8"></path>
	<path class="st0" d="M18.5,32.4c-0.2-0.5-1.2-0.9-2.6-1.1c-0.1,0-0.2,0-0.2,0.1s0,0.1,0.1,0.2c1.1,0.2,1.8,0.5,2.2,0.8   c0.1,0.1,0.2,0.2,0.2,0.2c0,0.1,0,0.1-0.1,0.2c0,0-0.1,0.1-0.1,0.2c0,0,0,0,0.1,0h0.1C18.5,32.8,18.5,32.6,18.5,32.4"></path>
	<path class="st0" d="M16,30.8c0-0.2-0.2-0.7-1.4-1.3h-0.1h-0.1c0,0,0,0.1,0.1,0.1c0.1,0.1,0.1,0.1,0.2,0.2l0.1,0.1   c0.3,0.2,0.5,0.3,0.7,0.5c0.1,0,0.1,0.1,0.1,0.2c0,0,0,0.1-0.1,0.1c0,0.1,0,0.1,0,0.1c0.1,0.1,0.2,0.1,0.3,0.1   C15.9,30.9,15.9,30.9,16,30.8"></path>
	<path class="st0" d="M16.2,30.1c0.2,0.1,0.4,0.2,0.5,0.2c0.3,0.1,0.5,0.2,0.7,0.2h0.1c0.2,0,0.3-0.1,0.3-0.2s0-0.2-0.1-0.3   c-0.1,0-0.1,0-0.1,0l0,0c0,0.1-0.1,0.1-0.2,0.1c0,0-0.1,0-0.2,0c-0.7-0.3-1.5-0.6-2.4-1.2h-0.1h-0.1V29   C15.2,29.6,15.7,29.9,16.2,30.1"></path>
	<path class="st0" d="M7.9,16c-0.2,0-0.3,0-0.4,0S7.2,16.1,7,16.3l-0.3,0.2c-0.1,0.1-0.2,0.1-0.3,0.2c-0.1,0-0.2,0-0.3,0   c-0.1,0-0.2-0.1-0.2-0.1c0-0.1-0.1-0.1,0-0.2c0-0.1,0.1-0.2,0.2-0.3C6.2,16,6.4,16,6.7,16l0,0v-0.1l-0.9-0.2v0.1l0,0   c0,0,0.1,0,0.1,0.1c0,0,0,0,0,0.1c0,0,0,0-0.1,0.1s-0.1,0.2-0.1,0.3c0,0.2,0,0.4,0.1,0.5c0.1,0,0.2,0.1,0.5,0.2c0.2,0,0.3,0,0.5,0   C6.9,17.1,7,17,7,17l0.3-0.2c0.2-0.1,0.3-0.2,0.3-0.2c0.1,0,0.2-0.1,0.3,0c0.1,0,0.2,0.1,0.3,0.2s0.1,0.2,0.1,0.3   c0,0.2-0.2,0.3-0.4,0.4c-0.1,0-0.3,0.1-0.5,0.1l0,0v0.1l0.9,0.1v-0.1l0,0H8.2l0,0c0,0,0,0,0.1-0.2c0.1-0.1,0.1-0.2,0.2-0.3   c0.1-0.2,0-0.4-0.1-0.6C8.3,16.2,8.1,16,7.9,16"></path>
	<path class="st0" d="M9,14.6c-0.1,0.1-0.1,0.2-0.1,0.2s-0.1,0-0.3,0L6.7,14l0.1-0.1c0.1-0.2,0.1-0.3,0.2-0.3s0.2,0,0.4,0l0,0   l0.1-0.1l-0.7-0.3L6.1,15l0.7,0.3l0.1-0.1l0,0c-0.2-0.1-0.3-0.2-0.3-0.3s0-0.2,0-0.3l0.1-0.1l1.9,0.7c0.2,0.1,0.3,0.1,0.3,0.1   s0,0.1,0,0.2l0,0L9,15.6l0.4-0.9L9,14.6L9,14.6z"></path>
	<path class="st0" d="M8.9,12.6l-0.3,0.6l-0.7-0.7L8.9,12.6z M10.2,12.3c0,0.1-0.1,0.1-0.1,0.1s-0.1,0-0.3,0L7.3,12l-0.1,0.1   l1.5,1.5C8.9,13.8,9,14,9.1,14c0,0.1,0,0.1,0,0.2l0,0l0.1,0.1l0.3-0.6l-0.1-0.1l0,0c-0.1,0.1-0.1,0.1-0.1,0.1H9.2   c0,0-0.1,0-0.1-0.1c0,0-0.2-0.2-0.3-0.3l0.4-0.7l0.4,0.1c0.1,0,0.1,0,0.2,0c0.1,0,0.1,0,0.1,0s0.1,0,0.1,0.1c0,0,0,0.1-0.1,0.2l0,0   l0.1,0.1l0.4-0.8H10.2L10.2,12.3z"></path>
	<path class="st0" d="M10.9,10.9c0,0.2-0.1,0.4-0.2,0.6c-0.1,0.1-0.1,0.1-0.1,0.1s0,0-0.1,0l-1.7-1.2c-0.1,0-0.1-0.1-0.1-0.1   s0,0,0.1-0.1C9,9.9,9.2,9.8,9.4,9.7h0.1c0.2,0,0.5,0.1,0.8,0.3C10.7,10.3,10.9,10.6,10.9,10.9 M11,10.1c-0.1-0.2-0.2-0.3-0.4-0.4   c-0.5-0.3-0.9-0.4-1.3-0.2C9,9.5,8.8,9.7,8.7,10l-0.5,0.7l0.1,0.1l0,0c0.1-0.1,0.1-0.1,0.2-0.1c0,0,0.1,0,0.2,0.1l1.5,1.1   c0.2,0.1,0.2,0.2,0.2,0.2s0,0.1-0.1,0.2l0,0l0.1,0.1l0.6-0.8c0.1-0.2,0.2-0.4,0.3-0.6c0-0.1,0-0.2,0-0.3   C11.2,10.5,11.1,10.3,11,10.1"></path>
	<path class="st0" d="M12.4,9.5c-0.1,0.1-0.3,0.2-0.5,0.1c-0.2,0-0.5-0.2-0.8-0.5s-0.5-0.6-0.5-0.8s0-0.4,0.1-0.5s0.2-0.1,0.4-0.1   h0.1c0.2,0,0.5,0.2,0.8,0.5c0.3,0.3,0.5,0.6,0.5,0.8C12.6,9.2,12.5,9.4,12.4,9.5 M12.3,7.9c-0.3-0.3-0.6-0.5-1-0.5   c-0.3,0-0.6,0.1-0.8,0.3c-0.2,0.2-0.3,0.5-0.3,0.8c0,0.3,0.2,0.7,0.5,1s0.6,0.5,1,0.5c0.1,0,0.1,0,0.1,0c0.3,0,0.5-0.1,0.7-0.3   s0.3-0.5,0.3-0.8C12.8,8.5,12.6,8.2,12.3,7.9"></path>
	<path class="st0" d="M13.8,6.9c-0.1,0-0.3-0.1-0.5-0.1h-0.4c-0.1,0-0.2,0-0.3,0s-0.1-0.1-0.2-0.2c-0.1-0.1-0.1-0.2-0.1-0.2   c0-0.1,0-0.1,0.1-0.2s0.2-0.1,0.3-0.1s0.3,0.1,0.5,0.3l0,0l0.1-0.1l-0.6-0.7l-0.1,0.1l0,0v0.1l0,0c0,0,0,0-0.2,0.1   c-0.1,0-0.2,0.1-0.3,0.1c0,0.2-0.1,0.3-0.1,0.5s0.1,0.4,0.2,0.5c0.1,0.1,0.2,0.2,0.4,0.3c0.1,0,0.2,0,0.3,0h0.4c0.2,0,0.3,0,0.4,0   c0.1,0,0.2,0.1,0.3,0.2s0.1,0.2,0.1,0.3c0,0.1,0,0.2-0.1,0.2c-0.1,0.1-0.3,0.1-0.5,0.1c-0.1,0-0.3-0.1-0.4-0.2l0,0L12.9,8l0.7,0.7   l0.1-0.1l0,0V8.5l0,0c0,0,0,0,0.2-0.1c0.1,0,0.2-0.1,0.3-0.1c0.2-0.1,0.3-0.3,0.3-0.5s-0.1-0.4-0.2-0.6C14.1,7.1,14,7,13.8,6.9"></path>
	<path class="st0" d="M16.8,4.1c-0.1-0.2-0.1-0.3-0.1-0.4c0-0.1,0.1-0.1,0.2-0.2l0,0l-0.1-0.1l-0.7,0.4l0.1,0.1l0,0   c0.1,0,0.2,0,0.2,0s0.1,0.1,0.2,0.3l0.5,0.9c0.1,0.2,0.2,0.4,0.2,0.5c0,0.2-0.1,0.4-0.3,0.5c-0.2,0.1-0.4,0.1-0.5-0.1   c-0.1-0.1-0.2-0.2-0.3-0.4l-0.6-1.2c-0.1-0.2-0.1-0.2-0.1-0.3c0,0,0-0.1,0.2-0.2l0,0l0,0.1l-0.9,0.4l0.1,0.1l0,0c0.1,0,0.2,0,0.2,0   s0.1,0.1,0.2,0.2l0.6,1.1C16,6,16.1,6.2,16.3,6.3c0.1,0.1,0.3,0.2,0.5,0.2c0.1,0,0.3,0,0.4-0.1c0.3-0.2,0.5-0.4,0.5-0.7   c0-0.2-0.1-0.4-0.2-0.6L16.8,4.1z"></path>
	<path class="st0" d="M19.3,2.9c0-0.1,0.1-0.1,0.2-0.2l0,0V2.6l-0.8,0.2v0.1l0,0c0.1,0,0.2,0,0.2,0S19,3,19.1,3.3l0.4,1.2l-1.7-1.4   l-0.6,0.2v0.1l0,0c0.1,0,0.1,0,0.1,0s0.1,0,0.1,0.1h0.1L18,5.2c0.1,0.2,0.1,0.3,0.1,0.4S18,5.7,17.9,5.8l0,0v0.1l0.8-0.2V5.6l0,0   c-0.1,0-0.2,0-0.2,0s-0.1-0.1-0.2-0.4l-0.4-1.4l2,1.6H20l-0.6-2.1C19.3,3,19.3,2.9,19.3,2.9"></path>
	<path class="st0" d="M21.3,4.9h-0.1c-0.1,0-0.1,0-0.1,0S21,4.8,21,4.7l-0.4-1.8c0-0.2,0-0.2,0-0.3c0,0,0.1-0.1,0.2-0.1l0,0V2.4   l-1,0.2v0.1l0,0c0.1,0,0.2,0,0.2,0s0.1,0.1,0.1,0.2l0.4,1.8c0,0.2,0,0.2,0,0.3c0,0-0.1,0.1-0.2,0.1l0,0v0.1l1-0.2V4.9L21.3,4.9z"></path>
	<path class="st0" d="M22.2,4.7C22.1,4.7,22.1,4.6,22.2,4.7c-0.1,0-0.1,0-0.1-0.1l-0.2-2c0-0.1,0-0.1,0-0.1s0,0,0.1,0h0.1   c0.2,0,0.4,0.1,0.6,0.2c0.2,0,0.3,0.3,0.4,0.7c0,0.4-0.1,0.8-0.3,1C22.7,4.6,22.5,4.6,22.2,4.7L22.2,4.7z M22.8,2.3   c-0.2-0.1-0.5-0.1-0.8-0.1l-0.9,0.1v0.1l0,0c0.1,0,0.2,0,0.2,0s0.1,0.1,0.1,0.3l0.2,1.8c0,0.2,0,0.2,0,0.3c0,0-0.1,0.1-0.2,0.1l0,0   V5l0.9-0.1c0.2,0,0.5-0.1,0.6-0.2s0.2-0.1,0.3-0.2c0.1-0.1,0.2-0.3,0.3-0.5c0.1-0.2,0.1-0.4,0.1-0.6C23.5,2.8,23.2,2.4,22.8,2.3"></path>
	<path class="st0" d="M25.6,3.5c0,0.4-0.1,0.7-0.2,0.9c-0.1,0.2-0.3,0.3-0.5,0.3s-0.3-0.1-0.4-0.3c-0.1-0.2-0.2-0.5-0.1-0.9   c0-0.4,0.1-0.7,0.2-0.9s0.3-0.3,0.5-0.3l0,0c0.2,0,0.3,0.1,0.4,0.3C25.6,2.7,25.6,3,25.6,3.5 M25,2c-0.3,0-0.6,0.1-0.8,0.3   c-0.2,0.3-0.4,0.6-0.4,1s0.1,0.8,0.3,1c0.2,0.3,0.4,0.4,0.8,0.4H25c0.3,0,0.5-0.1,0.7-0.3c0.2-0.3,0.4-0.6,0.4-1S26,2.6,25.8,2.3   C25.6,2.2,25.3,2,25,2"></path>
	<path class="st0" d="M27.9,2.4C27.9,2.4,27.8,2.5,27.9,2.4L27.9,2.4l-0.1,0.1c0,0,0,0-0.2-0.1c-0.1-0.1-0.2-0.1-0.3-0.1   c-0.2,0-0.4,0-0.5,0.1s-0.2,0.3-0.3,0.5c0,0.2,0,0.3,0.1,0.5c0,0.1,0.1,0.2,0.2,0.2L27,3.9c0.1,0.1,0.2,0.3,0.2,0.3   c0.1,0.1,0.1,0.2,0,0.3c0,0.1-0.1,0.2-0.2,0.3c-0.1,0.1-0.2,0.1-0.3,0.1c-0.2,0-0.3-0.1-0.4-0.3c-0.1-0.1-0.1-0.3-0.1-0.5l0,0h-0.1   L26.2,5h0.1l0,0V4.9l0,0c0,0,0,0,0.2,0.1c0.1,0.1,0.2,0.1,0.3,0.1h0.1c0.1,0,0.3,0,0.4-0.1c0.2-0.1,0.3-0.3,0.3-0.5s0-0.3,0-0.4   c-0.1-0.1-0.2-0.3-0.3-0.4l-0.2-0.3C27.1,3.2,27,3.1,27,3s0-0.2,0-0.3s0.1-0.2,0.1-0.2c0.1,0,0.1-0.1,0.2,0c0.1,0,0.2,0.1,0.3,0.2   c0.1,0.1,0.1,0.3,0.1,0.6l0,0h0.1L28,2.4H27.9L27.9,2.4z"></path>
	<path class="st0" d="M31.8,6.6c-0.1-0.1-0.2-0.1-0.2-0.1s0-0.1,0.1-0.3l0.7-1.6c0.1-0.2,0.1-0.2,0.1-0.2s0.1,0,0.2,0l0,0l0.1-0.1   L32.2,4l-1.4,1.5l0.1-2.1l-0.6-0.3l-0.1,0.1l0,0c0.1,0.1,0.2,0.1,0.2,0.2c0,0,0,0.1-0.1,0.3l-0.7,1.5c-0.1,0.2-0.2,0.3-0.2,0.3   s-0.1,0-0.3,0l0,0L29,5.6l0.8,0.3L30,5.8l0,0c-0.1-0.1-0.1-0.1-0.2-0.2c0-0.1,0-0.2,0.1-0.4l0.6-1.3l-0.1,2.2h0.1L32,4.5L31.3,6   c-0.1,0.2-0.1,0.2-0.2,0.3c0,0-0.1,0-0.2,0l0,0l-0.1,0.1l0.9,0.4L31.8,6.6L31.8,6.6z"></path>
	<path class="st0" d="M33.7,7.1L33.7,7.1c-0.2,0.2-0.3,0.2-0.5,0.2l0,0c-0.1,0-0.3-0.1-0.4-0.2c-0.2-0.1-0.3-0.2-0.3-0.2V6.8L33.1,6   l0.3,0.2c0.1,0.1,0.2,0.1,0.2,0.2c0,0,0,0.1-0.1,0.3l0,0l0.1,0.1L34.1,6L34,5.9l0,0C33.8,6,33.7,6,33.7,6.1c0,0-0.1,0-0.2-0.1   l-0.3-0.2l0.5-0.7c0-0.1,0-0.1,0-0.1l0,0l0.4,0.2c0.2,0.1,0.2,0.2,0.3,0.2c0,0,0,0.1-0.1,0.3l0,0l0.1,0.1l0.3-0.6l-1.5-1l-0.1,0.1   l0,0c0.1,0.1,0.1,0.1,0.1,0.2c0,0,0,0.1-0.1,0.2l-1,1.5c-0.1,0.2-0.2,0.2-0.2,0.2s-0.1,0-0.2-0.1l0,0l-0.1,0.1l1.5,1l0.5-0.6   L33.7,7.1z"></path>
	<path class="st0" d="M35.3,9.1c0-0.1-0.1-0.1-0.1-0.2c0,0,0-0.1,0-0.3l0.2-1.2l0.8-0.3C36.4,7,36.5,7,36.6,7c0.1,0,0.1,0,0.2,0.1   l0,0L37,7.2l-0.6-0.5l-0.1,0.1l0,0c0.1,0.1,0.1,0.1,0.1,0.1V7h-0.1c0,0-0.1,0.1-0.2,0.1l-0.6,0.2l0.1-0.6V6.6c0,0,0-0.1,0.1-0.1   c0,0,0,0,0.1,0c0,0,0.1,0,0.1,0.1l0,0L36,6.5l-0.8-0.7l-0.1,0.1l0,0C35.2,6,35.2,6,35.2,6.1s0,0.3-0.1,0.6L35,7.4l-0.9,0.3   c-0.2,0.1-0.4,0.1-0.4,0.1c-0.1,0-0.1,0-0.2-0.1l0,0l-0.1,0.1L34,8.3l0.1-0.1l0,0C34,8.1,34,8.1,34,8.1V8c0,0,0,0,0.1-0.1   c0,0,0.1,0,0.2-0.1L35,7.6c-0.1,0.4-0.1,0.7-0.2,0.8c0,0.1-0.1,0.2-0.1,0.2h-0.1c0,0-0.1,0-0.1-0.1l0,0l-0.1,0.1l0.8,0.7L35.3,9.1   L35.3,9.1z"></path>
	<path class="st0" d="M36.1,9.5l1.3-1.2c0.1-0.1,0.2-0.1,0.2-0.1s0.1,0,0.2,0.1l0,0l0.1-0.1l-0.7-0.7l-0.1,0.1l0,0   c0.1,0.1,0.1,0.2,0.1,0.2s0,0.1-0.2,0.2l-1.3,1.2c-0.1,0.1-0.2,0.1-0.2,0.1s-0.1,0-0.2-0.1l0,0l-0.1,0.1l0.7,0.7L36,9.9l0,0   c-0.1-0.1-0.1-0.2-0.1-0.2C35.9,9.7,36,9.7,36.1,9.5"></path>
	<path class="st0" d="M37.7,11.5L37.7,11.5l0.1-0.2l0,0c-0.1,0-0.3,0-0.4-0.1c-0.2,0-0.3-0.1-0.4-0.3c-0.1-0.2-0.2-0.4-0.1-0.6   c0.1-0.2,0.3-0.5,0.5-0.7c0.3-0.2,0.6-0.4,0.8-0.4c0.3,0,0.4,0,0.6,0.2c0.1,0.2,0.2,0.4,0.1,0.6c0,0.1-0.1,0.3-0.2,0.4l0,0l0.1,0.1   l0.8-0.6l-0.1-0.1l0,0h-0.1h-0.1c0,0,0,0-0.1-0.2c0-0.1-0.1-0.2-0.2-0.3c-0.2-0.3-0.5-0.4-0.8-0.4l0,0c-0.3,0-0.7,0.1-1,0.4   c-0.3,0.2-0.5,0.5-0.6,0.8s0,0.7,0.2,0.9c0.1,0.2,0.3,0.3,0.6,0.3c0.1,0,0.2,0,0.3,0C37.6,11.5,37.6,11.5,37.7,11.5"></path>
	<path class="st0" d="M39.6,11.6L39,12.4l-0.3-0.6L39.6,11.6z M38.6,13.7c0-0.1,0-0.1,0-0.2c0,0,0-0.1,0.2-0.2l1.6-1.9l-0.1-0.1   l-2.1,0.4c-0.3,0.1-0.5,0.1-0.6,0.1s-0.1,0-0.2-0.1l0,0l-0.1,0.1l0.4,0.6l0.1-0.1l0,0c0-0.1,0-0.1,0-0.1s0-0.1,0.1-0.1H38   c0.1,0,0.2,0,0.5-0.1l0.4,0.7L38.6,13l-0.1,0.1l-0.1,0.1h-0.1c0,0,0,0-0.1-0.1l0,0L38,13l0.5,0.8L38.6,13.7L38.6,13.7z"></path>
	<path class="st0" d="M41.6,14.8c0.1,0,0.1,0.1,0.2,0.2l0,0l0.1-0.1l-0.3-0.8l-0.1,0.1l0,0c0,0.1,0,0.2,0,0.2s-0.1,0.1-0.4,0.2   L40,15.1l1.3-1.8L41,12.7l-0.1,0.1l0,0c0,0.1,0,0.1,0,0.1s0,0.1-0.1,0.1v0.1l-1.6,0.7c-0.2,0.1-0.3,0.1-0.4,0.1   c-0.1,0-0.1-0.1-0.2-0.2l0,0l-0.1,0.1l0.3,0.8l0.1-0.1l0,0c0-0.1,0-0.2,0-0.2s0.1-0.1,0.4-0.2l1.3-0.5l-1.5,2.1l0,0v0.1l2-0.8   C41.4,14.8,41.5,14.7,41.6,14.8"></path>
	<path class="st0" d="M40.2,17.4c-0.2-0.1-0.3-0.2-0.4-0.4c0-0.2,0-0.3,0.2-0.5s0.4-0.3,0.9-0.4C41,16,41.2,16,41.4,16   c0.1,0,0.3,0,0.4,0.1c0.2,0.1,0.3,0.2,0.4,0.4c0,0.2,0,0.3-0.2,0.5s-0.4,0.3-0.9,0.4C40.7,17.5,40.4,17.5,40.2,17.4 M40.7,17.9   c0.2,0,0.3,0,0.5-0.1c0.4-0.1,0.7-0.3,1-0.6c0.2-0.3,0.2-0.5,0.2-0.8c-0.1-0.3-0.3-0.5-0.5-0.7c-0.3-0.2-0.7-0.2-1.1-0.1   c-0.4,0.1-0.7,0.3-0.9,0.5c-0.2,0.3-0.3,0.5-0.2,0.9c0.1,0.3,0.2,0.5,0.5,0.6C40.3,17.8,40.5,17.9,40.7,17.9"></path>
	<path class="st0" d="M42.8,19.2L42.8,19.2C42.7,19.2,42.7,19.2,42.8,19.2L42.8,19.2c-0.1,0-0.1,0-0.1-0.2c0-0.1,0-0.2,0-0.3   c0-0.2-0.1-0.3-0.3-0.4s-0.3-0.1-0.5-0.1s-0.3,0.1-0.4,0.2c-0.1,0.1-0.1,0.1-0.2,0.2l-0.2,0.3c-0.1,0.2-0.2,0.3-0.2,0.3   c-0.1,0.1-0.2,0.1-0.3,0.1s-0.2,0-0.3-0.1s-0.1-0.1-0.1-0.2c0-0.2,0-0.3,0.2-0.5c0.1-0.1,0.2-0.2,0.4-0.2l0,0v-0.1l-0.9,0.2v0.1   l0,0H40l0,0c0,0,0,0,0,0.2c0,0.1,0,0.2,0,0.3c0,0.2,0.1,0.4,0.3,0.5c0.1,0.1,0.3,0.1,0.5,0.1h0.1c0.2,0,0.3-0.1,0.4-0.2   c0.1-0.1,0.2-0.2,0.3-0.4l0.2-0.3c0.1-0.1,0.1-0.2,0.2-0.3c0.1-0.1,0.1-0.1,0.2-0.1c0.1,0,0.2,0,0.3,0.1s0.1,0.1,0.1,0.2   s0,0.2-0.1,0.3c-0.1,0.1-0.2,0.2-0.5,0.3l0,0v0.1l0.9-0.2L42.8,19.2z"></path>
	<path class="st0" d="M23.4,38.3c-0.1,0-0.2-0.1-0.2-0.2c-0.1-0.3-0.1-0.7,0-1.2c0-0.1,0.1-0.2,0.2-0.2s0.2,0,0.3,0.2   c0.1,0.4,0.1,0.8,0,1.1C23.6,38.2,23.5,38.2,23.4,38.3"></path>
	<path class="st0" d="M24.5,38.2c-0.1,0-0.3,0-0.3-0.2v-0.9c0-0.1,0-0.2,0.1-0.3c0-0.1,0.1-0.1,0.2-0.1s0.3,0.1,0.3,0.3v0.9   c0,0.1,0,0.2-0.1,0.2C24.7,38.2,24.6,38.2,24.5,38.2"></path>
	<path class="st0" d="M19.2,37.9c0.3,0,0.4,0.1,0.5,0.2c0,0.1,0,0.2,0,0.3c-0.1,0.1-0.1,0.2,0,0.2h0.1c0.1,0,0.3-0.2,0.4-0.5   c0-0.1,0.1-0.2,0.3-0.2c0.1-0.1,0.2-0.2,0.2-0.3s-0.1-0.2-0.1-0.1c0,0-0.1,0-0.1,0.1c-0.1,0.1-0.2,0.1-0.3,0.2h-0.1   c-0.3,0-0.4-0.1-0.6-0.3L19,36.8c0-0.1-0.1-0.1-0.1-0.1l0,0l0,0c0,0,0,0.1,0,0.2l0.2,0.3c0,0.1,0,0.1,0,0.1L19,37.4l0,0   c-0.5,0-0.9-0.2-1.3-0.7c-0.1-0.1-0.1-0.1-0.2-0.1l0,0l0,0c0,0,0,0.1,0,0.2l0.2,0.3c0.1,0.1,0.1,0.1,0.1,0.1s0,0-0.1,0   c-0.4,0-0.9-0.1-1.3-0.5c-0.1,0-0.1-0.1-0.2,0s-0.1,0.1,0,0.1l0.1,0.2v0.1c0,0,0,0-0.1,0l-0.7,0.1c-0.1,0-0.2,0-0.2,0.1   s0.1,0.1,0.3,0.1c0.8-0.1,1.3,0,1.6,0.1h0.1v0.1L16.8,38c-0.1,0.1-0.1,0.1-0.1,0.2c0,0,0,0.1,0.1,0h0.1c0.4-0.3,0.7-0.4,1-0.4   c0.1,0,0.2,0,0.3,0c0.1,0,0.1,0,0.1,0.1s0,0.1,0,0.2l-0.1,0.3c0,0.1,0,0.2,0,0.2h0.1c0,0,0.1,0,0.1-0.1   C18.5,38.2,18.8,37.9,19.2,37.9L19.2,37.9z M19.1,39.3c-0.1,0-0.2,0-0.2-0.1s0-0.1,0-0.2l0.3-0.4c0-0.1,0-0.1,0-0.2h-0.1   c-0.1,0-0.2,0.1-0.3,0.2c-0.3,0.4-0.7,0.5-1.1,0.6c-0.1,0-0.2,0-0.3,0c-0.1,0-0.2-0.1-0.2-0.1c0-0.1,0-0.1,0.1-0.2l0.3-0.4   c0-0.1,0-0.1,0-0.2l0,0h-0.1h-0.1l-0.8,0.4c-0.1,0-0.2,0.1-0.2,0.1c-0.2,0-0.3,0-0.4-0.2l-0.1-0.1l0.1-0.1c0.1-0.1,0.2-0.2,0.3-0.4   c0-0.1,0.1-0.1,0-0.1c0-0.1-0.1-0.1-0.2-0.1c-0.3,0-0.5,0.1-0.8,0.1c-0.5,0-0.8,0-0.9-0.1c-0.1-0.1-0.1-0.1-0.1-0.2   c0-0.1,0.1-0.2,0.3-0.3l0.8-0.3c0.1,0,0.1-0.1,0.1-0.1s0-0.1-0.1-0.2v-0.1l0.1-0.1c0.1-0.1,0.2-0.1,0.3-0.1c0.2,0,0.5,0.1,0.9,0.4   c0.1,0,0.1,0.1,0.1,0.1c0.1-0.1,0.1-0.1,0-0.2l-0.1-0.3c0-0.1,0-0.1,0-0.2l0.1-0.1c0.4,0,0.8,0.2,1.2,0.7c0.1,0.1,0.2,0.1,0.2,0.1   l0,0h0.1c0-0.1,0-0.1,0-0.2l-0.1-0.3c0-0.1,0-0.1,0-0.2c0-0.1,0.1-0.1,0.2-0.1s0.1,0,0.2,0c0.3,0,0.5,0.1,0.5,0.2l0.4,0.7   c0.1,0.1,0.1,0.1,0.2,0.1s0.2-0.1,0.2-0.2c0-0.1,0.1-0.1,0.1-0.1c0.1,0,0.3,0.1,0.6,0.4c0.1,0.1,0.2,0.2,0.4,0.1   c0.1,0,0.2,0,0.2-0.1c0.3-0.2,0.7-0.2,1-0.3c0.1,0,0.3,0,0.4,0s0.2,0.1,0.1,0.2c0,0.1-0.2,0.2-0.4,0.3h-0.1h-0.1   c-0.3,0-0.8,0.3-1.1,0.6c-0.1,0.1-0.2,0.1-0.4,0.1c-0.1,0-0.1,0-0.2,0.1c-0.1,0-0.3,0.2-0.4,0.4C19.9,38.9,19.5,39.3,19.1,39.3"></path>
	<path class="st0" d="M12.7,35.1c0.2,0,0.3,0,0.4,0.1v0.1c0,0.1,0,0.2,0.1,0.2h0.6c0.1,0,0.1,0,0.1,0v-0.1c-0.1-0.2-0.2-0.3-0.3-0.3   h-0.1c0,0-0.1,0-0.2,0C13,35,12.9,34.5,13,33.8c0-0.1,0-0.1,0-0.2l0,0c-0.1,0-0.1,0.1-0.1,0.2l-0.1,0.4c0,0.2-0.1,0.2-0.1,0.2h-0.1   c-0.3-0.2-0.5-0.5-0.6-0.9c0-0.2,0-0.9-0.2-0.4c-0.1,0.1-0.3-0.2-0.4-0.5c0-0.1-0.1-0.1-0.1-0.1c-0.1,0.1-0.1,0.1-0.1,0.2   c0,0.1,0,0.2-0.1,0.2S11,33,11,33s0,0.1,0.1,0.1c0.2,0,0.5,0.3,0.7,0.8c0,0.1,0,0.1,0,0.1h-0.7H11c-0.1,0-0.1,0.1-0.1,0.1   c0,0.1,0.1,0.1,0.2,0.2l0.7,0.1c0.2,0,0.4,0.1,0.6,0.4c0.1,0.1,0.1,0.2,0.1,0.2s0,0.1-0.1,0.1C12,34.9,11.7,35,11.5,35   c-0.1,0-0.2,0-0.2,0.1c0,0,0,0.1,0.2,0.1c0.1,0,0.2,0,0.3,0s0.3,0,0.4-0.1C12.4,35.2,12.5,35.2,12.7,35.1 M15.1,36.4H15   c-0.5-0.4-1-0.6-1.6-0.5c-0.2,0-0.4,0.1-0.7,0.1c0,0-0.1,0-0.1-0.1c0,0,0-0.1,0-0.2c0-0.1-0.1-0.2-0.2-0.2h-0.1c-0.1,0-0.2,0-0.3,0   c-0.7,0.1-1.1-0.1-1.4-0.6v-0.1c0,0,0.1,0,0.1-0.1l0.9-0.1c0.1,0,0.1-0.1,0.1-0.1c0-0.1,0-0.1-0.1-0.1c-1-0.2-1.5-0.4-1.7-0.8v-0.1   c0,0,0.1-0.1,0.2-0.1l0.7,0.1c0.1,0,0.2,0,0.2-0.1s0-0.1-0.1-0.2l-0.7-0.4c-0.2,0-0.2-0.1-0.2-0.1c0-0.1,0.1-0.1,0.2-0.1   c0.1,0,0.2,0,0.3,0s0.2,0,0.2-0.1c0.1-0.1,0.1-0.2,0.1-0.5v-0.2c0-0.2,0-0.3,0.1-0.3c0,0,0.1,0,0.4,0.4c0.1,0.1,0.2,0.2,0.3,0.2   s0.1-0.2,0.2-0.4c0-0.1,0.1-0.1,0.1-0.1s0.1,0,0.2,0.1c0.3,0.2,0.3,0.9,0.3,1.6v0.1c0,0,0.1,0.1,0.1,0c0,0,0.1,0,0.2-0.2l0.1-0.5   c0-0.1,0.1-0.2,0.2-0.2c0.1,0,0.2,0,0.3,0.1c0.3,0.2,0.4,0.7,0.3,1.6c0,0.1,0,0.1,0.1,0.2h0.1c0.1,0,0.2-0.1,0.2-0.2   c0-0.1,0.1-0.1,0.1-0.1s0.1,0,0.1,0.2c0.1,0.8,0.5,1.4,1.1,1.9c0.1,0.1,0.1,0.1,0.1,0.2C15.2,36.4,15.2,36.4,15.1,36.4"></path>
	<path class="st0" d="M14.9,34.7c-0.1,0-0.2-0.1-0.2-0.1c0-0.1,0-0.2,0.1-0.2c0.1-0.1,0.2-0.1,0.3-0.1s0.2,0,0.2,0.1   c0,0,0.1,0.1,0.1,0.2C15.3,34.6,15.1,34.7,14.9,34.7L14.9,34.7z"></path>
	<path class="st0" d="M13.1,37H13c-0.2-0.1-0.2-0.2-0.2-0.3s0-0.2,0.1-0.3c0.1,0,0.1,0,0.2-0.1c0.2,0,0.2,0.1,0.3,0.3   c0,0.1,0,0.1-0.1,0.2C13.3,37,13.2,37,13.1,37"></path>
	<path class="st0" d="M15.5,36.1c-0.1,0-0.2-0.1-0.3-0.3s-0.3-0.3-0.4-0.4c-0.1,0-0.2-0.2-0.2-0.3s0.1-0.2,0.2-0.2h0.1   c0.1,0,0.3,0,0.4-0.1h0.1c0.1,0,0.2,0.1,0.2,0.1c0,0.1,0,0.2-0.1,0.2c-0.1,0.1-0.2,0.2-0.1,0.4C15.6,35.9,15.6,36,15.5,36.1   L15.5,36.1z"></path>
	<path class="st0" d="M13.8,37.2c-0.1,0-0.2,0-0.2-0.1c0-0.2,0-0.4-0.1-0.5s-0.1-0.2,0-0.3c0-0.1,0.1-0.1,0.2-0.1   c0.1,0,0.1,0,0.2,0.1c0.1,0.1,0.3,0.2,0.5,0.2s0.3,0,0.4,0.1c0.1,0.1,0.1,0.1,0.1,0.1c-0.1,0-0.1,0-0.1,0l0,0   c-0.2,0-0.5,0.1-0.6,0.4C14,37.1,13.9,37.1,13.8,37.2"></path>
	<path class="st0" d="M8.3,30.4C8.2,30.4,8.2,30.4,8.3,30.4c-0.1,0.1-0.1,0.2,0,0.2c0.3,0,0.5,0,0.7,0.1c0,0.1,0,0.1,0.1,0.1l0,0   h0.1v-0.1c-0.2-0.3-0.2-0.5,0-0.8c0.1-0.1,0.1-0.1,0.1-0.2l0,0H9.2H9.1c-0.1,0-0.1,0-0.2,0c-0.1,0-0.2,0-0.3-0.1s-0.1-0.4,0-0.7   c0.1-0.3,0.2-0.7,0.4-1c0-0.1,0-0.1,0-0.2l0,0c-0.1,0-0.1,0.1-0.1,0.1c-0.1,0.2-0.2,0.4-0.2,0.5c-0.1,0.3-0.2,0.5-0.3,0.5   S8.1,28.5,8,28.3c-0.2-0.2-0.1-0.5,0-0.8c0-0.1,0-0.1,0-0.2H7.9c-0.1,0-0.1,0-0.1,0.1c-0.1,0.2-0.1,0.2-0.2,0.2s-0.2-0.1-0.3-0.3   c0,0-0.1-0.1-0.1,0c-0.1,0-0.1,0-0.1,0.1s0,0.1,0,0.2l0.1,0.1c0.1,0.1,0.3,0.3,0.3,0.4H7.4c-0.1,0-0.2,0-0.3,0H7   c-0.1,0-0.1,0-0.1,0.1c0,0,0,0.1,0.1,0.1c0.6,0.1,1.1,0.6,1.1,0.8c0,0.1-0.1,0.2-0.2,0.2s-0.3,0-0.4-0.1H7.4c-0.1,0-0.1,0-0.1,0.1   s0,0.1,0.2,0.1c0.7,0,1.2,0.4,1.1,0.7C8.6,30.3,8.4,30.4,8.3,30.4L8.3,30.4z M10.5,32.3h-0.1c-0.4-0.2-0.7-0.4-1.1-0.8   C9.1,31.2,8.9,31,8.6,31c-0.6-0.1-1-0.3-1.2-0.6c0-0.1,0-0.1,0-0.1s0,0,0.1,0h0.3c0.1,0,0.1-0.1,0.1-0.1c0-0.1-0.1-0.1-0.2-0.2   c-0.9-0.2-1.3-0.4-1.4-0.8c0-0.1,0-0.1,0-0.2c0,0,0.1-0.1,0.2-0.1c0,0,0.1,0,0.2,0h0.1c0,0,0.1,0,0.1-0.1c0,0,0-0.1-0.2-0.1   c-0.3-0.1-0.5-0.3-0.7-0.5c0-0.1-0.1-0.2,0-0.3c0-0.1,0.1-0.1,0.2-0.1h0.1c0.1,0,0.1,0.1,0.2,0c0.1,0,0.1,0,0.1-0.1s0-0.2-0.1-0.3   c0-0.1-0.1-0.2,0-0.2c0,0,0.1-0.1,0.2-0.1s0.1,0,0.2,0s0.2-0.1,0.3-0.2h0.1c0.1,0,0.1,0,0.2,0.2c0,0.1,0.1,0.3,0.2,0.3   s0.1,0,0.2-0.2c0-0.2,0.1-0.3,0.2-0.3h0.1c0.2,0.1,0.2,0.4,0,1c0,0.1,0,0.2,0,0.2l0,0h0.1c0.1,0,0.2-0.1,0.2-0.3   c0.1-0.4,0.2-0.6,0.4-0.6H9c0.1,0,0.2,0.1,0.3,0.2c0.1,0.2,0.1,0.7-0.1,1.4c0,0.1,0,0.2,0,0.3c0,0,0.1,0.1,0.1,0   c0.1,0,0.1,0,0.2-0.1c0.1-0.1,0.2-0.2,0.2-0.2s0.1,0,0.1,0.1c0.1,0.1,0.1,0.3,0,0.6c-0.5,1.1-0.3,1.9,0.6,2.5   c0.1,0.1,0.1,0.2,0.1,0.2C10.6,32.2,10.5,32.3,10.5,32.3"></path>
	<path class="st0" d="M10.3,31.7c-0.1,0-0.1,0-0.1-0.1c0-0.5-0.1-0.8-0.2-0.9c-0.1-0.1-0.1-0.2,0-0.3c0-0.1,0.1-0.1,0.2-0.1h0.1   c0.2,0.1,0.4,0.1,0.6,0.1c0.1,0,0.2,0.1,0.2,0.2s0,0.2-0.1,0.2c-0.3,0.1-0.4,0.2-0.4,0.6C10.4,31.6,10.3,31.6,10.3,31.7"></path>
	<path class="st0" d="M10.6,30.1h-0.1c-0.1,0-0.2-0.1-0.2-0.2s0.1-0.2,0.2-0.3c0,0,0.1,0,0.2,0c0.1,0,0.2,0,0.2,0.1   C11,29.8,11,29.8,11,30C10.8,30,10.8,30.1,10.6,30.1"></path>
	<path class="st0" d="M8.2,32.2C8.1,32.2,8,32.1,8,32c-0.1-0.1,0-0.3,0-0.4c0.1-0.1,0.1-0.1,0.2-0.1c0.1,0,0.2,0,0.3,0.2   c0,0.1,0,0.2,0,0.3C8.4,32.1,8.3,32.2,8.2,32.2"></path>
	<path class="st0" d="M8.8,32.5c-0.1,0-0.2,0-0.2-0.1v-0.1c0.1-0.2,0.1-0.4,0.1-0.6s0.1-0.3,0.2-0.3c0.1,0,0.2,0,0.2,0.1   c0.1,0.2,0.2,0.3,0.4,0.4c0.3,0.1,0.4,0.3,0.4,0.3l-0.1,0.1H9.7c-0.1-0.1-0.3-0.1-0.4-0.1c-0.1,0-0.2,0-0.2,0.1   C9,32.5,8.9,32.5,8.8,32.5"></path>
	<path class="st0" d="M8.3,25.1c-0.1,0-0.2,0-0.2-0.1C8,24.9,8,24.8,8,24.8c0-0.1,0.1-0.2,0.2-0.2c0.2,0,0.3,0,0.3,0.1s0,0.2,0,0.3   C8.4,25.1,8.3,25.1,8.3,25.1"></path>
	<path class="st0" d="M7.6,26.4c0,0-0.1,0-0.1-0.1s0-0.3,0-0.4c0-0.2,0.1-0.3,0-0.4c0-0.1,0-0.2,0-0.3c0-0.1,0.1-0.1,0.2-0.1h0.1   c0.2,0.1,0.3,0.2,0.5,0.3c0.1,0,0.2,0.1,0.2,0.2s-0.1,0.2-0.3,0.2S7.8,26,7.6,26.4C7.7,26.4,7.6,26.4,7.6,26.4"></path>
	<path class="st0" d="M32.9,35.2c-0.1,0-0.2,0-0.2-0.1s0-0.1,0-0.2c0.1-0.1,0-0.3-0.2-0.4c-0.1-0.2-0.2-0.3-0.1-0.5   c0.1-0.1,0.2-0.2,0.4-0.3c0.2,0,0.3,0,0.4,0.1c0.1,0.1,0.1,0.3,0,0.5c-0.1,0.1-0.1,0.2-0.1,0.4c0,0.1,0,0.2,0,0.2   C33.1,35.2,33,35.2,32.9,35.2"></path>
	<path class="st0" d="M37.7,31c-0.1,0-0.2,0-0.2-0.2c0-0.1-0.1-0.2-0.3-0.2c-0.2-0.1-0.3-0.2-0.3-0.4c0-0.2,0.3-0.4,0.5-0.4   s0.4,0.1,0.4,0.4c0,0.2,0,0.3,0.1,0.3c0.1,0.1,0.1,0.2,0.1,0.2C37.9,30.9,37.8,31,37.7,31"></path>
	<path class="st0" d="M40.2,25.4c-0.1,0-0.1,0-0.2-0.1c0-0.1-0.1-0.2-0.3-0.1h-0.1c-0.3-0.1-0.4-0.3-0.4-0.4c0-0.2,0.2-0.5,0.5-0.5   c0.2,0,0.3,0.1,0.4,0.3v0.1c0,0.1,0,0.2,0.2,0.2c0.2,0.1,0.2,0.2,0.1,0.3C40.4,25.3,40.3,25.4,40.2,25.4"></path>
	<path class="st0" d="M34.1,37.1c-0.2,0-0.3-0.1-0.4-0.3c0-0.2-0.1-0.3-0.2-0.3c-0.1,0-0.2-0.1-0.2-0.2c0-0.1,0.1-0.3,0.3-0.3   c0.1,0,0.1,0,0.2,0.1c0,0.1,0.1,0.1,0.2,0.1c0,0,0.1,0,0.2,0c0.3,0,0.4,0.1,0.5,0.3C34.5,36.7,34.3,37.1,34.1,37.1"></path>
	<path class="st0" d="M39.5,32c-0.1,0-0.2,0-0.3-0.1s-0.2-0.1-0.3-0.1h-0.1h-0.1c-0.1,0-0.1,0-0.2-0.1l-0.1-0.1   c0-0.1,0.1-0.3,0.2-0.3h0.1h0.1c0.1,0,0.2-0.1,0.3-0.2c0.1,0,0.2-0.1,0.2-0.1c0.2,0,0.2,0.1,0.3,0.1c0.1,0.1,0.1,0.4,0,0.5   C39.7,31.9,39.6,32,39.5,32"></path>
	<path class="st0" d="M42.2,25.8c-0.1,0-0.1,0-0.2,0c-0.1-0.1-0.2-0.1-0.2-0.1c-0.1,0-0.1,0-0.2,0.1h-0.1c-0.2,0-0.3-0.1-0.3-0.2   s0-0.1,0.1-0.2c0,0,0.1-0.1,0.2-0.1h0.1h0.1c0.1,0,0.2-0.1,0.3-0.2s0.2-0.2,0.3-0.2s0.2,0,0.3,0.2s0.1,0.4,0,0.6   C42.4,25.8,42.3,25.8,42.2,25.8"></path>
	<path class="st0" d="M28.5,38.5c-0.1,0-0.3,0-0.4,0c-0.5-0.1-0.9-0.4-1.2-0.6c-0.7-0.3-1.2-0.5-1.7-0.5c-0.1,0-0.2-0.1-0.2-0.2   c0-0.1,0.1-0.2,0.2-0.2c0.6,0.1,1.3,0.3,2,0.6c0.1,0,0.3,0.1,0.4,0.1c0.2,0,0.3-0.1,0.4-0.2l0.3-0.1c1.3-0.6,2.4-1,3.5-1.1   c0.1,0,0.3,0,0.4,0s0.2,0,0.2,0s-0.1,0.1-0.3,0.1H32c-0.2,0-0.5,0.1-0.7,0.2c-0.3,0.2-0.6,0.3-0.9,0.5c-0.6,0.3-1,0.5-1.4,0.6h-0.1   c-0.4,0.1-0.6,0.2-0.6,0.3s0.1,0.1,0.2,0.1s0.2,0,0.3,0c0.5,0,1-0.3,1.4-0.5c0.7-0.5,1.5-0.9,2.4-1.1h0.1h0.1c0,0,0,0-0.1,0.2   c-0.5,0.6-1.6,1-2.4,1.4c-0.2,0.1-0.4,0.2-0.6,0.2C29.1,38.4,28.8,38.5,28.5,38.5"></path>
	<path class="st0" d="M27.7,37.3c-0.2,0-0.5-0.1-0.6-0.2l0,0c0.4,0,0.8-0.3,1.2-0.7c0.2-0.2,0.4-0.4,0.7-0.5c0.1,0,0.3-0.1,0.4-0.1   s0.3-0.1,0.5-0.2c0.3-0.2,0.6-0.3,0.8-0.3c0.2,0,0.3,0,0.5,0.1c0.1,0.1,0.1,0.1,0.1,0.1c-0.1,0-0.1,0-0.1,0c-0.1,0-0.1,0-0.2,0   c-0.3,0-0.6,0.2-0.9,0.4l-0.8,0.2c-0.2,0.1-0.5,0.2-0.4,0.3c0,0,0,0.1,0.1,0.1h0.1l0.4-0.1c0.1,0,0.3-0.1,0.4-0.2   c0.2-0.1,0.3-0.2,0.6-0.2c0.2,0,0.4-0.1,0.6-0.2c0.1,0,0.2-0.1,0.3-0.1l0,0c0.1,0,0.1,0.1,0.1,0.1c0,0.1,0,0.2-0.1,0.2   c-0.2,0-0.3,0.1-0.5,0.1c-0.3,0.1-0.5,0.1-0.8,0.2c-0.8,0.3-1.5,0.6-2.1,1C27.9,37.3,27.8,37.3,27.7,37.3"></path>
	<path class="st0" d="M33,36c-0.1,0-0.2,0-0.2-0.1s0-0.1,0.1-0.2c0-0.1,0.2-0.3,0.5-0.5c0.4-0.3,1-0.7,1.5-1.4   c0.3-0.5,0.9-1,1.6-1.6c0.3-0.2,0.6-0.5,0.9-0.8c0.1-0.1,0.1-0.1,0.2-0.1c0,0,0,0,0,0.1c-0.1,0.4-0.5,0.8-1.1,1.3   c-0.7,0.5-1.5,1.2-1.8,1.7c-0.1,0.1-0.1,0.2-0.1,0.2l0,0l0,0c0,0,0.1,0,0.3-0.2c0.5-0.6,1-1.1,1.5-1.4c0.6-0.4,1-0.9,1.2-1.4   c0-0.1,0.1-0.1,0.1-0.1s0,0,0,0.3c0,0.5-0.3,1-0.9,1.4c-0.8,0.8-1.5,1.3-2.1,1.6c-0.8,0.2-1.3,0.4-1.5,0.8C33.1,35.9,33.1,36,33,36   "></path>
	<path class="st0" d="M35.6,35.4c-0.2,0-0.4,0-0.5,0c-0.2,0-0.3,0-0.5,0c-0.1,0-0.2,0-0.2-0.1c0,0,0-0.1,0.1-0.1   c1.6-0.5,2.5-1.5,3.2-2.4c0.1-0.1,0.1-0.1,0.2-0.1H38v0.1c-0.4,0.8-1,1.3-1.7,1.7l-0.2,0.1c0,0.3-0.1,0.4-0.1,0.4s0,0.1,0.1,0.1   h0.1c0.8-0.6,1.5-1.3,2.1-2.1c0-0.1,0.1-0.1,0.1-0.1s0,0,0.1,0.1c0.1,0.2-0.1,0.6-0.5,1c-0.6,0.6-1,1-1.5,1.3   C36.2,35.3,35.9,35.4,35.6,35.4"></path>
	<path class="st0" d="M33.8,34.6C33.8,34.6,33.7,34.6,33.8,34.6c-0.1-0.1-0.1-0.1-0.1-0.2c0.1-0.2,0.1-0.5,0.2-0.9   c0.1-0.4,0.3-0.7,0.6-1c0.7-0.6,1.1-1,1.5-1.5l0.1-0.1c0,0,0,0,0,0.1c0,0.2-0.2,0.4-0.5,0.7c-0.2,0.2-0.4,0.4-0.6,0.7L34.4,33   c-0.1,0.1-0.1,0.2,0,0.2l0,0h0.1c0.1,0,0.2-0.1,0.3-0.2c0.4-0.5,0.7-1,1.1-1.3c0.1-0.1,0.1-0.1,0.2-0.1c0,0,0,0,0,0.2   s-0.2,0.5-0.6,0.7c-0.3,0.2-0.6,0.6-1,1.2C34.3,34.2,34.1,34.4,33.8,34.6"></path>
	<path class="st0" d="M38.1,31.5c-0.1,0-0.1,0-0.1-0.1s0-0.2,0-0.2c0.4-0.4,0.6-1,0.8-1.9l0.1-0.4c0.3-0.8,0.7-1.9,1.3-2.6   c0.1-0.1,0.1-0.1,0.2-0.1c0,0,0,0,0,0.2c-0.2,0.6-0.5,1.2-0.7,1.8c-0.2,0.4-0.4,0.9-0.6,1.3c0,0.1,0,0.2,0,0.2l0,0l0,0   c0,0,0.1,0,0.2-0.1c0.4-0.5,0.7-1.3,0.9-2c0.2-0.5,0.3-1.1,0.6-1.5c0.1-0.2,0.1-0.2,0.2-0.2c0,0,0,0,0,0.2c0,0.9-0.4,2-1.1,3.3   c-0.1,0.2-0.3,0.3-0.4,0.4c-0.2,0.2-0.4,0.3-0.4,0.5c-0.2,0.4-0.4,0.7-0.7,1C38.2,31.5,38.1,31.5,38.1,31.5"></path>
	<path class="st0" d="M38.3,30c0,0-0.1,0-0.1-0.1c-0.8-1.2,0-2.6,0.8-3.6c0.1-0.1,0.1-0.1,0.2-0.1c0.1,0,0.1,0.1,0,0.1   c-0.2,0.3-0.3,0.5-0.4,0.8c-0.1,0.4-0.2,0.6-0.3,0.8c-0.1,0.1-0.1,0.2-0.2,0.3c-0.1,0.2-0.1,0.4-0.1,0.5l0,0h0.1   c0.1,0,0.1-0.1,0.1-0.1c0.2-0.4,0.4-0.9,0.6-1.3c0.2-0.4,0.3-0.8,0.5-1c0.1-0.1,0.1-0.1,0.1-0.1h0.1c0,0,0.1,0.1,0,0.2   c-0.1,0.4-0.4,1.1-0.9,1.9c-0.2,0.3-0.3,0.6-0.3,1C38.5,29.7,38.4,30,38.3,30"></path>
	<path class="st0" d="M39.4,30.5L39.4,30.5c-0.1,0-0.1-0.1,0-0.2c0.6-0.5,1-1.1,1.2-1.7c0.2-0.8,0.4-1.2,0.9-1.5   c0.1-0.1,0.2-0.1,0.2-0.1s0,0.1-0.1,0.2c-0.3,0.3-0.4,0.7-0.6,1.1c-0.1,0.4-0.3,0.8-0.6,1.1c-0.1,0.1-0.1,0.2-0.1,0.2l0,0h0.1   c0,0,0.1,0,0.1-0.1c0.2-0.1,0.4-0.6,0.5-1c0.2-0.5,0.4-1.1,0.7-1.5c0.1-0.1,0.1-0.1,0.2-0.1c0,0,0,0-0.1,0.2   c-0.1,0.3-0.2,0.6-0.3,0.9c-0.2,0.6-0.4,1.1-0.8,1.6c-0.2,0.1-0.3,0.2-0.5,0.3c-0.1,0-0.2,0.1-0.3,0.1s-0.2,0.1-0.4,0.1   C39.6,30.4,39.5,30.5,39.4,30.5"></path>
	<path class="st0" d="M40.6,24.2c0,0-0.1,0-0.1-0.1c-0.7-0.6-0.9-1.5-0.6-2.9c0-0.1,0-0.1,0-0.1H40c0.2,0.3,0.2,0.4,0.1,0.7   c-0.1,0.3-0.2,0.7,0.1,1.6c0,0.1,0.1,0.1,0.2,0.1l0,0l0,0v-0.1c-0.2-0.5-0.2-0.9-0.1-1.2c0-0.2,0-0.3,0-0.4s0-0.1,0-0.1l0,0h0.1   c0.1,0.1,0.2,0.3,0.1,0.9c-0.1,0.3,0,0.6,0,0.9C40.7,23.8,40.7,24,40.6,24.2L40.6,24.2"></path>
	<path class="st0" d="M40.7,25.8C40.6,25.8,40.6,25.8,40.7,25.8c-0.1,0-0.2-0.1-0.1-0.2c0-0.3,0.1-0.6,0.1-0.9   c0.1-0.4,0.2-0.7,0.1-1.1c0-1.4,0.1-2.2,0.4-2.6c0.1-0.1,0.1-0.1,0.1-0.1s0.1,0.1,0.1,0.2c0.1,0.3,0,0.7-0.2,1.1   c-0.2,0.5-0.2,1-0.2,1.5c0,0.1,0,0.1,0.1,0.1h0.1c0.1,0,0.1-0.1,0.2-0.2c-0.1-0.5,0-1,0.2-1.5c0.2-0.3,0.2-0.7,0.1-1   c0-0.1,0-0.1,0-0.1s0,0,0.1,0.1s0.2,0.2,0.2,0.7c0,0.7-0.1,1.2-0.2,1.7c-0.1,0.3-0.3,0.5-0.4,0.7c-0.2,0.2-0.3,0.5-0.4,0.8   c-0.1,0.1-0.1,0.3-0.1,0.7C40.9,25.7,40.8,25.7,40.7,25.8"></path>
	<path class="st0" d="M41.3,24.9L41.3,24.9c0,0-0.1-0.1,0-0.2l0.7-1.2c0.2-0.2,0.2-0.8,0.2-1.9c0-0.1,0-0.2,0-0.2l0,0h0.1   c0.1,0.1,0.2,0.2,0.2,0.5l-0.2,1l-0.1,0.6c0,0.1,0,0.1,0,0.2l0,0h0.1c0.1,0,0.1-0.1,0.1-0.2c0-0.3,0.1-0.6,0.2-0.8   c0.1-0.5,0.1-0.9,0-1.3c0-0.1,0-0.1,0-0.1s0,0,0.1,0.1c0.2,0.3,0.3,0.6,0.2,0.9c-0.1,0.2-0.1,0.4-0.1,0.6c0,0.4-0.1,0.7-0.2,0.8   l-1,1C41.5,24.8,41.4,24.9,41.3,24.9"></path>
</g>
<path class="st1" d="M58,9.9c-0.3-0.2-0.7-0.3-1.3-0.3c-0.4,0-0.8,0.1-1,0.3c-0.4,0.6-0.8,1.3-0.8,2.3c0,1.6,0.8,2.6,2.1,2.6  c0.4,0,0.6-0.1,0.9-0.1c0-0.5-0.1-1.2-0.2-1.4c-0.1-0.1-0.5-0.3-0.8-0.4l0.1-0.6h3.2l0.1,0.6l-0.8,0.3c0,0.3-0.1,0.9-0.1,1.7v0.2  c-0.6,0.4-1.7,0.8-2.8,0.8c-2.3,0-3.8-1.3-3.8-3.5c0-2.1,1.9-3.7,4-3.7c1,0,1.9,0.2,2.5,0.6l0.2,0.3c-0.1,0.5-0.3,1.4-0.4,1.8  c-0.3,0-0.8,0-1.1-0.1C58.3,10.6,58.1,10.1,58,9.9"></path>
<path class="st1" d="M61.4,12.4c0-2.2,1.8-3.8,3.8-3.8c2,0,3.4,1.3,3.4,3.4c0,2.2-1.7,3.8-3.7,3.8C62.9,15.7,61.4,14.4,61.4,12.4   M66.4,14.3c0.2-0.4,0.4-1.1,0.4-2c0-1.7-0.5-2.7-1.8-2.7c-0.4,0-0.8,0.1-1.1,0.3c-0.4,0.5-0.6,1.3-0.6,2.2c0,1.6,0.7,2.5,1.9,2.5  C65.7,14.7,66.1,14.6,66.4,14.3"></path>
<path class="st1" d="M70.1,14.7c0-0.3,0.1-0.9,0.1-1.7v-1.7c0-0.5,0-1.4-0.1-1.5s-0.5-0.3-0.8-0.4l0.1-0.6H71c0.3,0,1.4-0.1,1.9-0.1  c1.7,0,2.7,0.6,2.7,1.7c0,0.7-0.5,1.2-1.1,1.6c0.8,0.2,1.5,0.7,1.5,1.6c0,1.3-1.3,2-2.7,2c-0.6,0-1.5-0.1-2.2-0.1h-1.6L69.3,15  L70.1,14.7z M71.9,11.7l1.3,0.1c0.3-0.2,0.5-0.6,0.5-1.2c0-0.4-0.1-0.6-0.2-0.8c-0.2-0.1-0.5-0.2-0.8-0.2c-0.2,0-0.4,0-0.7,0.1h-0.1  c0,0.3-0.1,0.9-0.1,1.7L71.9,11.7L71.9,11.7z M72.1,14.6c0.1,0.1,0.5,0.2,0.9,0.2c0.2,0,0.5,0,0.7-0.1c0.3-0.2,0.4-0.6,0.4-1  c0-0.6-0.4-1-1.1-1h-1.1V13C71.9,13.5,71.9,14.4,72.1,14.6L72.1,14.6"></path>
<path class="st1" d="M77.7,14.7c0-0.3,0.1-0.9,0.1-1.7v-1.7c0-0.5,0-1.4-0.1-1.5s-0.5-0.3-0.8-0.4L77,8.8h3.3l0.1,0.6l-0.9,0.3  c0,0.3-0.1,0.9-0.1,1.7V13c0,0.5,0,1.4,0.1,1.5s0.5,0.3,0.8,0.4l-0.1,0.6h-3.3L76.8,15L77.7,14.7z"></path>
<path class="st1" d="M82.5,14.7c0-0.3,0.1-0.9,0.1-1.7v-1.7c0-0.5,0-1.4-0.1-1.5c-0.1-0.2-0.5-0.3-0.8-0.4l0.1-0.6h2.7  c1.2,0,2.2,0,3-0.1c0.1,0.1,0.2,0.3,0.3,0.5c-0.1,0.5-0.3,1.3-0.3,1.7c-0.2,0-0.8,0-1-0.1l-0.3-1.1c-0.3-0.1-0.7-0.1-1-0.1  s-0.6,0-0.8,0c0,0.3-0.1,1-0.1,1.7v0.5l2.1-0.1l0.2,0.3c0,0.3-0.1,0.6-0.1,0.8l-2.1-0.1V13c0,0.5,0,1.4,0.1,1.5c0,0,0,0,0.1,0.1  c0.2,0.1,0.6,0.2,0.9,0.2s0.7,0,0.9-0.1l0.3-1.2c0.3,0,0.9,0,1.1,0.1c0,0.6,0,1.3,0,2h-6L81.6,15L82.5,14.7z"></path>
<path class="st1" d="M89.9,14.7c0-0.3,0.1-0.9,0.1-1.7v-1.7c0-0.5,0-1.4-0.1-1.5s-0.5-0.3-0.8-0.4l0.1-0.6h1.6  c0.3,0,1.4-0.1,1.9-0.1c1.6,0,2.6,0.6,2.6,1.8c0,0.9-0.7,1.5-1.3,1.8c0.5,0.9,1,1.9,1.4,2.3l0.6,0.3l-0.1,0.6c-0.7,0-1.2,0-2,0  c-0.3-0.8-0.8-1.7-1.3-2.8h-0.9V13c0,0.5,0,1.4,0.1,1.5s0.5,0.3,0.8,0.4l-0.1,0.6h-3.3L89,15L89.9,14.7z M91.7,11.9l1.4,0.1  c0.3-0.2,0.6-0.7,0.6-1.3c0-0.4-0.1-0.7-0.2-0.9c-0.2-0.1-0.5-0.2-0.8-0.2s-0.6,0-0.8,0.1c0,0.3-0.1,0.9-0.1,1.7L91.7,11.9  L91.7,11.9z"></path>
<path class="st1" d="M97.6,9.8c-0.2-0.1-0.5-0.3-0.8-0.4L97,8.8c0.7,0,1.6,0,2.2,0c0.5,1,2.1,2.9,3.2,4.3c0-1.9-0.1-3-0.2-3.2  c-0.1-0.1-0.6-0.3-1-0.4l0.1-0.6h3l0.1,0.6l-0.8,0.3c-0.1,0.5-0.2,2.8-0.2,5.8l-1.3,0.1l-0.9-1.3c-0.7-0.9-1.6-2.1-2.3-3  c0,1.8,0.1,3,0.2,3.2s0.7,0.3,1.1,0.4l-0.1,0.6H97L96.8,15l0.8-0.3c0-0.3,0.1-1.1,0.1-2.6C97.8,10.8,97.7,9.9,97.6,9.8"></path>
<path class="st1" d="M105,12.4c0-2.2,1.8-3.8,3.8-3.8s3.4,1.3,3.4,3.4c0,2.2-1.7,3.8-3.7,3.8C106.4,15.7,105,14.4,105,12.4   M109.9,14.3c0.2-0.4,0.4-1.1,0.4-2c0-1.7-0.5-2.7-1.8-2.7c-0.4,0-0.8,0.1-1.1,0.3c-0.4,0.5-0.6,1.3-0.6,2.2c0,1.6,0.7,2.5,1.9,2.5  C109.2,14.7,109.7,14.6,109.9,14.3"></path>
<path class="st1" d="M116.7,14.7c0-0.3,0.1-0.9,0.1-1.7v-1.7c0-0.5,0-1.4-0.1-1.5s-0.5-0.3-0.8-0.4l0.1-0.6h1.5  c0.4,0,1.4-0.1,1.9-0.1c2.8,0,3.8,1.6,3.8,3.4c0,2.4-1.6,3.5-3.5,3.5c-0.6,0-1.5-0.1-2.2-0.1H116l-0.1-0.6L116.7,14.7z M118.7,14.6  c0.2,0.1,1,0.3,1.6,0.1c0.7-0.4,1.1-1.3,1.1-2.6c0-1.1-0.4-1.9-0.8-2.2c-0.3-0.2-0.8-0.3-1.3-0.3c-0.3,0-0.6,0-0.8,0.1  c0,0.3-0.1,0.9-0.1,1.6V13C118.5,13.5,118.6,14.4,118.7,14.6L118.7,14.6"></path>
<path class="st1" d="M124.8,14.7c0-0.3,0.1-0.9,0.1-1.7v-1.7c0-0.5,0-1.4-0.1-1.5c-0.1-0.2-0.5-0.3-0.8-0.4l0.1-0.6h2.7  c1.2,0,2.2,0,3-0.1c0.1,0.1,0.2,0.3,0.3,0.5c-0.1,0.5-0.3,1.3-0.3,1.7c-0.2,0-0.8,0-1-0.1l-0.3-1.1c-0.3-0.1-0.7-0.1-1-0.1  s-0.6,0-0.8,0c0,0.3-0.1,1-0.1,1.7v0.5l2.1-0.1l0.2,0.3c0,0.3-0.1,0.6-0.1,0.8l-2.1-0.1V13c0,0.5,0,1.4,0.1,1.5c0,0,0,0,0.1,0.1  c0.2,0.1,0.6,0.2,0.9,0.2s0.7,0,0.9-0.1l0.3-1.2c0.3,0,0.9,0,1.1,0.1c0,0.6,0,1.3,0,2h-6L124,15L124.8,14.7z"></path>
<path class="st1" d="M58.1,32h-4.8l-0.2-1l1.5-0.5c0.1-0.9,0.3-2.8,0.3-4.5c0.1-2.2,0.1-3.1,0-3.4c-0.2-0.2-0.8-0.5-1.3-0.7l0.2-1  h5.3c0.5,1.6,1.6,4.7,2.4,6.6c0.8-2.2,2-5.2,2.4-6.6h5l0.2,1l-1.4,0.6l0.3,5.2c0.1,1.5,0.2,2.3,0.4,2.6c0.2,0.2,0.8,0.5,1.3,0.7  l-0.2,1H64l-0.2-1l1.5-0.5c0-0.9-0.2-4.7-0.3-7.4l-3,7.6c-0.7,0.1-1.5,0.1-2.2,0c-0.7-1.6-2.1-5.3-3.1-7.6l-0.1,3.4  c-0.1,2.5-0.1,3.4,0,3.7c0.1,0.4,1,0.5,1.6,0.7L58.1,32z"></path>
<path class="st1" d="M73.2,30.6c0.1-0.4,0.1-1.5,0.1-2.7v-2.8c0-0.9,0-2.2-0.2-2.5s-0.8-0.5-1.3-0.7l0.2-1h4.4c2,0,3.6-0.1,4.9-0.1  c0.2,0.2,0.4,0.6,0.5,0.8c-0.1,0.8-0.4,2.2-0.6,2.7c-0.4,0-1.3,0-1.7-0.1l-0.4-1.8c-0.5-0.1-1.1-0.1-1.7-0.1c-0.5,0-0.9,0-1.4,0  c0,0.5-0.1,1.6-0.1,2.8v0.8l3.4-0.2l0.3,0.4c-0.1,0.4-0.2,0.9-0.2,1.3L76,27.3v0.5c0,0.9,0,2.2,0.2,2.5l0.1,0.1  c0.3,0.2,0.9,0.2,1.5,0.2c0.5,0,1.1-0.1,1.5-0.1l0.6-1.9c0.4,0,1.4,0,1.8,0.1c0,1.1,0,2.2,0,3.3H72l-0.2-1L73.2,30.6z M79,16.3  c0.4,0.5,0.8,1.3,1.1,1.9l-0.3,0.6L75.3,20L75,19.8L74.7,19C76,18.1,77.6,17.1,79,16.3"></path>
<path class="st1" d="M85.1,30.5c0.9-0.8,2.1-2.5,3.2-4.2c-1.2-1.7-2.4-3.1-3-3.8c-0.4-0.2-0.9-0.4-1.3-0.6l0.2-1  c1.2,0,2.8,0,3.8-0.1c0.6,1.1,1.6,2.7,2.7,4.3c0.5-0.9,1-1.8,1.4-2.6c-0.3-0.2-1-0.5-1.6-0.6l0.2-1h5l0.2,1  c-0.3,0.2-0.8,0.4-1.2,0.6c-0.9,0.9-2.1,2.4-3.2,4c1.2,1.7,2.5,3.3,3.1,4c0.4,0.2,0.9,0.4,1.3,0.6l-0.2,1c-1.2,0-2.8,0-3.7,0.1  c-0.6-1.1-1.6-2.8-2.8-4.4c-0.5,0.9-1.1,1.9-1.5,2.7c0.5,0.2,1.2,0.4,1.8,0.6l-0.2,1H84l-0.2-1C84.2,30.9,84.7,30.7,85.1,30.5"></path>
<path class="st1" d="M99.5,30.6c0.1-0.4,0.1-1.5,0.1-2.7v-2.8c0-0.9,0-2.2-0.2-2.5c-0.2-0.2-0.8-0.5-1.3-0.7l0.2-1h5.4l0.2,1  l-1.4,0.5c-0.1,0.4-0.1,1.5-0.1,2.7v2.8c0,0.9,0,2.2,0.2,2.5c0.2,0.2,0.8,0.5,1.3,0.7l-0.2,1h-5.4l-0.2-1L99.5,30.6z"></path>
<path class="st1" d="M113.8,30.2c0.1-0.3,0.4-1.1,0.6-2c0.4,0,1.5,0,1.9,0.1c0,0.7,0.1,1.8,0.1,2.4l-0.2,0.5  c-0.9,0.6-2.5,1.1-4.2,1.1c-3.7,0-6-2.1-6-5.6c0-3.6,2.9-6,6.3-6c1.6,0,3,0.4,4.1,1l0.3,0.5c-0.2,0.8-0.4,2.1-0.6,2.9  c-0.4,0-1.3,0-1.7-0.1c-0.2-0.9-0.4-1.7-0.5-2c-0.4-0.2-1.1-0.5-1.9-0.5c-0.7,0-1.3,0.2-1.7,0.4c-0.7,0.8-1.2,2.2-1.2,3.7  c0,2.4,1.2,4,3.3,4C113,30.5,113.5,30.4,113.8,30.2"></path>
<path class="st1" d="M118.8,26.8c0-3.7,2.9-6.1,6.2-6.1c3.3,0,5.6,2.1,5.6,5.5c0,3.6-2.7,6.1-6,6.1  C121.1,32.3,118.8,30.2,118.8,26.8 M126.8,30c0.3-0.6,0.7-1.8,0.7-3.2c0-2.8-0.8-4.4-2.9-4.4c-0.7,0-1.3,0.2-1.8,0.5  c-0.6,0.8-1,2.1-1,3.6c0,2.6,1.1,4.2,3,4.2C125.7,30.6,126.4,30.4,126.8,30"></path>
</svg>